<svg width="32" height="33" viewBox="0 0 32 33" fill="none" xmlns="http://www.w3.org/2000/svg">
<g clip-path="url(#clip0_460_1755)">
<path d="M16 32.7812C24.8366 32.7812 32 25.6178 32 16.7812C32 7.94469 24.8366 0.78125 16 0.78125C7.16344 0.78125 0 7.94469 0 16.7812C0 25.6178 7.16344 32.7812 16 32.7812Z" fill="#FFDA44"/>
<path d="M18.4333 32.5983C21.0355 32.2013 23.4309 31.1765 25.4618 29.6847L16 16.7822L18.4333 32.5983Z" fill="#D80027"/>
<path d="M13.5676 0.96582C10.9654 1.36282 8.57006 2.38757 6.53906 3.87938L16.0009 16.7819L13.5676 0.96582Z" fill="#D80027"/>
<path d="M6.53906 29.6847C8.56994 31.1765 10.9653 32.2012 13.5675 32.5984L16.0009 16.7822L6.53906 29.6847Z" fill="#D80027"/>
<path d="M3.09716 7.32031C1.60528 9.35131 0.580656 11.7466 0.183594 14.3489L15.9997 16.7822L3.09716 7.32031Z" fill="#D80027"/>
<path d="M0.183594 19.2155C0.580594 21.8177 1.60534 24.2131 3.09722 26.244L15.9997 16.7822L0.183594 19.2155Z" fill="#D80027"/>
<path d="M31.8161 14.3488C31.419 11.7466 30.3943 9.35125 28.9024 7.32031L16 16.7821L31.8161 14.3488Z" fill="#D80027"/>
<path d="M25.4618 3.87932C23.4308 2.38751 21.0355 1.36282 18.4333 0.96582L16 16.7819L25.4618 3.87932Z" fill="#D80027"/>
<path d="M28.9026 26.244C30.3944 24.2131 31.4191 21.8177 31.8162 19.2155L16 16.7822L28.9026 26.244Z" fill="#D80027"/>
<path d="M15.9988 22.3472C19.0723 22.3472 21.564 19.8556 21.564 16.782C21.564 13.7084 19.0723 11.2168 15.9988 11.2168C12.9252 11.2168 10.4336 13.7084 10.4336 16.782C10.4336 19.8556 12.9252 22.3472 15.9988 22.3472Z" fill="#D80027"/>
<path d="M16.0021 20.9553C18.3073 20.9553 20.176 19.0866 20.176 16.7814C20.176 14.4762 18.3073 12.6074 16.0021 12.6074C13.6969 12.6074 11.8281 14.4762 11.8281 16.7814C11.8281 19.0866 13.6969 20.9553 16.0021 20.9553Z" fill="#FFDA44"/>
</g>
<defs>
<clipPath id="clip0_460_1755">
<rect width="32" height="32" fill="white" transform="translate(0 0.78125)"/>
</clipPath>
</defs>
</svg>
