<svg width="32" height="33" viewBox="0 0 32 33" fill="none" xmlns="http://www.w3.org/2000/svg">
<g clip-path="url(#clip0_461_1769)">
<path d="M16 32.5312C24.8366 32.5312 32 25.3678 32 16.5312C32 7.69469 24.8366 0.53125 16 0.53125C7.16344 0.53125 0 7.69469 0 16.5312C0 25.3678 7.16344 32.5312 16 32.5312Z" fill="#F0F0F0"/>
<path d="M32.0012 16.5311C32.0012 9.65174 27.6592 3.78699 21.5664 1.52637V31.5361C27.6592 29.2752 32.0012 23.4106 32.0012 16.5311V16.5311Z" fill="#FF9811"/>
<path d="M0 16.5311C0 23.4106 4.342 29.2752 10.4348 31.536V1.52637C4.342 3.78699 0 9.65174 0 16.5311V16.5311Z" fill="#6DA544"/>
</g>
<defs>
<clipPath id="clip0_461_1769">
<rect width="32" height="32" fill="white" transform="translate(0 0.53125)"/>
</clipPath>
</defs>
</svg>
