<svg width="32" height="33" viewBox="0 0 32 33" fill="none" xmlns="http://www.w3.org/2000/svg">
<g clip-path="url(#clip0_460_1747)">
<path d="M0.995188 11.279C0.352063 13.0124 0 14.8871 0 16.8442C0 18.8013 0.352063 20.6761 0.995188 22.4094L16 23.8007L31.0048 22.4094C31.6479 20.6761 32 18.8013 32 16.8442C32 14.8871 31.6479 13.0124 31.0048 11.279L16 9.8877L0.995188 11.279Z" fill="#F0F0F0"/>
<path d="M16.0008 0.84375C9.12147 0.84375 3.25672 5.18575 0.996094 11.2786H31.0058C28.745 5.18575 22.8803 0.84375 16.0008 0.84375V0.84375Z" fill="#D80027"/>
<path d="M16.0008 32.844C22.8803 32.844 28.745 28.502 31.0057 22.4092H0.996094C3.25672 28.502 9.12147 32.844 16.0008 32.844V32.844Z" fill="#6DA544"/>
</g>
<defs>
<clipPath id="clip0_460_1747">
<rect width="32" height="32" fill="white" transform="translate(0 0.84375)"/>
</clipPath>
</defs>
</svg>
