<svg width="32" height="33" viewBox="0 0 32 33" fill="none" xmlns="http://www.w3.org/2000/svg">
<g clip-path="url(#clip0_460_1753)">
<path d="M16 32.3438C24.8366 32.3438 32 25.1803 32 16.3438C32 7.50719 24.8366 0.34375 16 0.34375C7.16344 0.34375 0 7.50719 0 16.3438C0 25.1803 7.16344 32.3438 16 32.3438Z" fill="#F0F0F0"/>
<path d="M16.0012 0.34375C10.328 0.34375 5.34491 3.29644 2.50391 7.74869L24.2013 30.0843C28.8728 27.2904 32.0012 22.1827 32.0012 16.3438C32.0012 7.50725 24.8377 0.34375 16.0012 0.34375Z" fill="#FFDA44"/>
<path d="M32.0021 16.3432C32.0021 12.1918 30.4209 8.41003 27.8281 5.56641V27.12C30.4209 24.2763 32.0021 20.4945 32.0021 16.3432Z" fill="#0052B4"/>
<path d="M19.9868 30.4607L21.6628 30.4596L22.1798 28.8653L22.6986 30.459L23.5392 30.4585C24.0547 30.1825 24.5533 29.8793 25.033 29.5504L2.79306 7.31055C2.42656 7.8453 2.09231 8.40367 1.79175 8.98242L1.98937 9.58942L3.66531 9.58836L2.31006 10.5743L2.82894 12.168L1.47244 11.1837L0.663375 11.7722C0.232063 13.2207 0 14.755 0 16.3436C0 25.1801 7.1635 32.3436 16 32.3436C17.8683 32.3436 19.6614 32.0229 21.3281 31.4341L19.9868 30.4607ZM3.56869 15.648L4.08556 14.0537L2.72919 13.0694L4.40513 13.0683L4.92206 11.474L5.44094 13.0677L7.11688 13.0666L5.76156 14.0525L6.28044 15.6462L4.92394 14.662L3.56869 15.648ZM7.02025 19.1262L7.53713 17.532L6.18075 16.5476L7.85669 16.5465L8.37362 14.9522L8.8925 16.5459L10.5684 16.5449L9.21319 17.5308L9.73206 19.1245L8.37556 18.1402L7.02025 19.1262ZM10.4718 22.6045L10.9886 21.0102L9.63225 20.0259L11.3082 20.0248L11.8251 18.4305L12.344 20.0242L14.0199 20.0231L12.6647 21.009L13.1836 22.6027L11.8271 21.6184L10.4718 22.6045ZM15.2786 25.0968L13.9233 26.0827L14.4401 24.4885L13.0837 23.5041L14.7597 23.503L15.2767 21.9087L15.7956 23.5024L17.4715 23.5014L16.1162 24.4873L16.6351 26.081L15.2786 25.0968ZM17.3748 29.561L17.8917 27.9667L16.5353 26.9824L18.2113 26.9813L18.7282 25.387L19.2471 26.9807L20.923 26.9796L19.5678 27.9655L20.0866 29.5592L18.7301 28.5749L17.3748 29.561Z" fill="#0052B4"/>
</g>
<defs>
<clipPath id="clip0_460_1753">
<rect width="32" height="32" fill="white" transform="translate(0 0.34375)"/>
</clipPath>
</defs>
</svg>
