<svg width="32" height="33" viewBox="0 0 32 33" fill="none" xmlns="http://www.w3.org/2000/svg">
<g clip-path="url(#clip0_460_1748)">
<path d="M16 32.4688C24.8366 32.4688 32 25.3053 32 16.4688C32 7.63219 24.8366 0.46875 16 0.46875C7.16344 0.46875 0 7.63219 0 16.4688C0 25.3053 7.16344 32.4688 16 32.4688Z" fill="#F0F0F0"/>
<path d="M16 12.295H31.4488C31.0476 10.8067 30.4379 9.40409 29.6516 8.12109H16V12.295Z" fill="#338AF3"/>
<path d="M6.03947 28.9903H25.959C27.4192 27.8273 28.6715 26.4147 29.6508 24.8164H2.34766C3.32709 26.4147 4.57934 27.8273 6.03947 28.9903V28.9903Z" fill="#338AF3"/>
<path d="M5.56447 4.33984C4.30659 5.42303 3.21916 6.69859 2.34766 8.12084H5.56447V4.33984Z" fill="#338AF3"/>
<path d="M16 16.4689C16 14.8391 16 13.4752 16 12.2949H9.73913V16.4689H5.56519V12.2949H0.551188C0.1925 13.6258 0 15.0247 0 16.4689C0 17.913 0.1925 19.3119 0.551188 20.6428H31.4489C31.8075 19.3119 32 17.913 32 16.4689H16Z" fill="#338AF3"/>
<path d="M15.9992 0.46875C13.7773 0.46875 11.6614 0.922062 9.73828 1.7405V8.12094H15.9992C15.9992 6.66394 15.9992 5.42475 15.9992 3.947H25.959C23.2258 1.77025 19.7647 0.46875 15.9992 0.46875V0.46875Z" fill="#338AF3"/>
</g>
<defs>
<clipPath id="clip0_460_1748">
<rect width="32" height="32" fill="white" transform="translate(0 0.46875)"/>
</clipPath>
</defs>
</svg>
