<svg width="32" height="33" viewBox="0 0 32 33" fill="none" xmlns="http://www.w3.org/2000/svg">
<g clip-path="url(#clip0_461_1768)">
<path d="M32 16.7189C32 14.7618 31.648 12.8869 31.0048 11.1537L16 10.458L0.995188 11.1536C0.352063 12.8869 0 14.7618 0 16.7189C0 18.676 0.352063 20.5508 0.995188 22.2841L16 22.9798L31.0048 22.2841C31.648 20.5508 32 18.676 32 16.7189Z" fill="#496E2D"/>
<path d="M16.0009 32.719C22.8803 32.719 28.745 28.377 31.0057 22.2842H0.996094C3.25678 28.377 9.12147 32.719 16.0009 32.719Z" fill="#D80027"/>
<path d="M0.996094 11.1536H31.0058C28.745 5.06075 22.8803 0.71875 16.0009 0.71875C9.12147 0.71875 3.25678 5.06075 0.996094 11.1536V11.1536Z" fill="#F0F0F0"/>
</g>
<defs>
<clipPath id="clip0_461_1768">
<rect width="32" height="32" fill="white" transform="translate(0 0.71875)"/>
</clipPath>
</defs>
</svg>
