<svg width="32" height="33" viewBox="0 0 32 33" fill="none" xmlns="http://www.w3.org/2000/svg">
<g clip-path="url(#clip0_462_1818)">
<path d="M16 32.5938C24.8366 32.5938 32 25.4303 32 16.5938C32 7.75719 24.8366 0.59375 16 0.59375C7.16344 0.59375 0 7.75719 0 16.5938C0 25.4303 7.16344 32.5938 16 32.5938Z" fill="#F0F0F0"/>
<path d="M12.5196 14.5068H31.8623C30.8397 6.65637 24.127 0.59375 15.9978 0.59375C14.8031 0.59375 13.6395 0.725813 12.5195 0.974063V14.5068H12.5196Z" fill="#D80027"/>
<path d="M8.34519 14.5066V2.53906C3.95187 4.93619 0.80675 9.33312 0.132812 14.5067H8.34519V14.5066Z" fill="#D80027"/>
<path d="M8.34512 18.6807H0.132812C0.80675 23.8542 3.95187 28.2512 8.34519 30.6482L8.34512 18.6807Z" fill="#D80027"/>
<path d="M12.5195 18.6807V32.2134C13.6395 32.4617 14.8031 32.5937 15.9978 32.5937C24.127 32.5937 30.8397 26.5311 31.8623 18.6807H12.5195V18.6807Z" fill="#D80027"/>
</g>
<defs>
<clipPath id="clip0_462_1818">
<rect width="32" height="32" fill="white" transform="translate(0 0.59375)"/>
</clipPath>
</defs>
</svg>
