<svg width="32" height="33" viewBox="0 0 32 33" fill="none" xmlns="http://www.w3.org/2000/svg">
<g clip-path="url(#clip0_461_1766)">
<path d="M16 32.0938C24.8366 32.0938 32 24.9303 32 16.0938C32 7.25719 24.8366 0.09375 16 0.09375C7.16344 0.09375 0 7.25719 0 16.0938C0 24.9303 7.16344 32.0938 16 32.0938Z" fill="#F0F0F0"/>
<path d="M32.0012 16.0937C32.0012 9.21424 27.6592 3.34955 21.5664 1.08887V31.0986C27.6592 28.8378 32.0012 22.9731 32.0012 16.0937V16.0937Z" fill="#D80027"/>
<path d="M0 16.0937C0 22.9731 4.34206 28.8378 10.4348 31.0985V1.08887C4.34206 3.34955 0 9.21424 0 16.0937Z" fill="#0052B4"/>
</g>
<defs>
<clipPath id="clip0_461_1766">
<rect width="32" height="32" fill="white" transform="translate(0 0.09375)"/>
</clipPath>
</defs>
</svg>
