<svg width="32" height="33" viewBox="0 0 32 33" fill="none" xmlns="http://www.w3.org/2000/svg">
<g clip-path="url(#clip0_460_1751)">
<path d="M16 32.5312C24.8366 32.5312 32 25.3678 32 16.5312C32 7.69469 24.8366 0.53125 16 0.53125C7.16344 0.53125 0 7.69469 0 16.5312C0 25.3678 7.16344 32.5312 16 32.5312Z" fill="#F0F0F0"/>
<path d="M16.0009 0.53125C9.12147 0.53125 3.25678 4.87325 0.996094 10.9661H31.0058C28.745 4.87325 22.8803 0.53125 16.0009 0.53125V0.53125Z" fill="#EA141D"/>
<path d="M16.0009 32.5315C22.8803 32.5315 28.745 28.1895 31.0057 22.0967H0.996094C3.25678 28.1895 9.12147 32.5315 16.0009 32.5315Z" fill="#51ADDA"/>
</g>
<defs>
<clipPath id="clip0_460_1751">
<rect width="32" height="32" fill="white" transform="translate(0 0.53125)"/>
</clipPath>
</defs>
</svg>
