<svg width="32" height="33" viewBox="0 0 32 33" fill="none" xmlns="http://www.w3.org/2000/svg">
<g clip-path="url(#clip0_461_1762)">
<path d="M31.0048 22.2219C31.648 20.4886 32 18.6138 32 16.6567C32 14.6996 31.648 12.8249 31.0048 11.0915L16 9.7002L0.995188 11.0915C0.352063 12.8249 0 14.6996 0 16.6567C0 18.6138 0.352063 20.4886 0.995188 22.2219L16 23.6132L31.0048 22.2219Z" fill="#F0F0F0"/>
<path d="M15.9971 32.6565C22.8764 32.6565 28.7412 28.3145 31.0018 22.2217H0.992188C3.25294 28.3145 9.11756 32.6565 15.9971 32.6565Z" fill="#D80027"/>
<path d="M15.9971 0.65625C9.11756 0.65625 3.25294 4.99825 0.992188 11.0911H31.0019C28.7412 4.99825 22.8764 0.65625 15.9971 0.65625Z" fill="#D80027"/>
</g>
<defs>
<clipPath id="clip0_461_1762">
<rect width="32" height="32" fill="white" transform="translate(0 0.65625)"/>
</clipPath>
</defs>
</svg>
