<svg width="32" height="33" viewBox="0 0 32 33" fill="none" xmlns="http://www.w3.org/2000/svg">
<g clip-path="url(#clip0_461_1767)">
<path d="M16 32.9062C24.8366 32.9062 32 25.7428 32 16.9062C32 8.06969 24.8366 0.90625 16 0.90625C7.16344 0.90625 0 8.06969 0 16.9062C0 25.7428 7.16344 32.9062 16 32.9062Z" fill="#FFDA44"/>
<path d="M12.5196 14.8193H31.8623C30.8397 6.96887 24.127 0.90625 15.9978 0.90625C14.8032 0.90625 13.6395 1.03831 12.5195 1.28656V14.8193H12.5196Z" fill="#0052B4"/>
<path d="M8.34519 14.8191V2.85156C3.95181 5.24869 0.80675 9.64562 0.132812 14.8192H8.34519V14.8191Z" fill="#0052B4"/>
<path d="M8.34512 18.9932H0.132812C0.80675 24.1667 3.95181 28.5637 8.34519 30.9607L8.34512 18.9932Z" fill="#0052B4"/>
<path d="M12.5195 18.9932V32.5259C13.6395 32.7742 14.8032 32.9062 15.9978 32.9062C24.127 32.9062 30.8397 26.8436 31.8623 18.9932H12.5195V18.9932Z" fill="#0052B4"/>
</g>
<defs>
<clipPath id="clip0_461_1767">
<rect width="32" height="32" fill="white" transform="translate(0 0.90625)"/>
</clipPath>
</defs>
</svg>
