<svg width="32" height="33" viewBox="0 0 32 33" fill="none" xmlns="http://www.w3.org/2000/svg">
<g clip-path="url(#clip0_460_1752)">
<path d="M32 16.5314C32 14.5743 31.6479 12.6994 31.0048 10.9662L16 10.2705L0.995188 10.9661C0.352063 12.6994 0 14.5743 0 16.5314C0 18.4885 0.352063 20.3633 0.995188 22.0966L16 22.7923L31.0048 22.0966C31.6479 20.3633 32 18.4885 32 16.5314Z" fill="#F0F0F0"/>
<path d="M16.0009 32.5315C22.8803 32.5315 28.745 28.1895 31.0057 22.0967H0.996094C3.25678 28.1895 9.12147 32.5315 16.0009 32.5315Z" fill="#0052B4"/>
<path d="M0.996094 10.9661H31.0058C28.745 4.87325 22.8803 0.53125 16.0009 0.53125C9.12147 0.53125 3.25678 4.87325 0.996094 10.9661V10.9661Z" fill="#D80027"/>
<path d="M20.1772 11.6616H17.3945L17.8583 8.1833L19.7133 6.79199L21.5684 8.1833V10.9659L20.1772 11.6616Z" fill="#338AF3"/>
<path d="M11.8287 11.6616H14.6114L14.1476 8.1833L12.2925 6.79199L10.4375 8.1833V10.9659L11.8287 11.6616Z" fill="#338AF3"/>
<path d="M17.8548 11.6616H14.1445V8.1833L15.9997 6.79199L17.8548 8.1833V11.6616Z" fill="#0052B4"/>
<path d="M10.4336 10.9658V18.6179C10.4336 20.44 11.3137 22.0604 12.6712 23.0762L13.6452 22.8325L14.8742 24.0689C15.2376 24.1438 15.6137 24.1832 15.9988 24.1832C16.382 24.1832 16.7562 24.1443 17.1177 24.0701L18.5206 22.902L19.3263 23.0739C20.6833 22.0582 21.564 20.4395 21.564 18.6179V10.9658H10.4336Z" fill="#F0F0F0"/>
<path d="M10.4375 10.9668H12.6636V13.1929H10.4375V10.9668Z" fill="#D80027"/>
<path d="M14.8906 10.9668H17.1167V13.1929H14.8906V10.9668Z" fill="#D80027"/>
<path d="M19.3438 10.9668H21.5698V13.1929H19.3438V10.9668Z" fill="#D80027"/>
<path d="M12.6641 13.1934H14.8901V15.4194H12.6641V13.1934Z" fill="#D80027"/>
<path d="M17.1172 13.1934H19.3433V15.4194H17.1172V13.1934Z" fill="#D80027"/>
<path d="M10.4375 15.418H12.6636V17.644H10.4375V15.418Z" fill="#D80027"/>
<path d="M12.6641 17.6445H14.8901V19.8706H12.6641V17.6445Z" fill="#D80027"/>
<path d="M14.8906 15.418H17.1167V17.644H14.8906V15.418Z" fill="#D80027"/>
<path d="M19.3438 15.418H21.5698V17.644H19.3438V15.418Z" fill="#D80027"/>
<path d="M17.1172 17.6445H19.3433V19.8706H17.1172V17.6445Z" fill="#D80027"/>
<path d="M14.8906 19.8701H17.1167V22.0962H14.8906V19.8701Z" fill="#D80027"/>
<path d="M12.6645 19.8711H10.582C10.773 20.6986 11.1485 21.4558 11.6634 22.0972H12.6645V19.8711Z" fill="#D80027"/>
<path d="M19.3438 22.0972H20.3447C20.8597 21.4558 21.2351 20.6985 21.4261 19.8711H19.3438V22.0972Z" fill="#D80027"/>
<path d="M12.6641 22.0967V23.068C13.3115 23.5552 14.0681 23.9045 14.8901 24.0721V22.0967H12.6641Z" fill="#D80027"/>
<path d="M17.1172 22.0967V24.0721C17.9392 23.9046 18.6958 23.5552 19.3433 23.068V22.0967H17.1172Z" fill="#D80027"/>
</g>
<defs>
<clipPath id="clip0_460_1752">
<rect width="32" height="32" fill="white" transform="translate(0 0.53125)"/>
</clipPath>
</defs>
</svg>
