<svg width="32" height="33" viewBox="0 0 32 33" fill="none" xmlns="http://www.w3.org/2000/svg">
<g clip-path="url(#clip0_460_1754)">
<path d="M16 32.1562C24.8366 32.1562 32 24.9928 32 16.1562C32 7.31969 24.8366 0.15625 16 0.15625C7.16344 0.15625 0 7.31969 0 16.1562C0 24.9928 7.16344 32.1562 16 32.1562Z" fill="#F0F0F0"/>
<path d="M14.6099 16.1562C14.6099 16.1562 4.69688 27.4722 4.6875 27.4699C7.58288 30.3654 11.5829 32.1562 16.0012 32.1562C24.8377 32.1562 32.0012 24.9928 32.0012 16.1562H14.6099Z" fill="#D80027"/>
<path d="M4.68628 4.84277C-1.56209 11.0911 -1.56209 21.2218 4.68628 27.4703C7.26834 24.8882 9.75166 22.4049 16 16.1565L4.68628 4.84277Z" fill="#0052B4"/>
</g>
<defs>
<clipPath id="clip0_460_1754">
<rect width="32" height="32" fill="white" transform="translate(0 0.15625)"/>
</clipPath>
</defs>
</svg>
