<svg width="32" height="33" viewBox="0 0 32 33" fill="none" xmlns="http://www.w3.org/2000/svg">
<g clip-path="url(#clip0_460_1745)">
<path d="M0 16.4067C0 18.3638 0.352063 20.2386 0.995188 21.9719L16 23.3632L31.0048 21.9719C31.6479 20.2386 32 18.3638 32 16.4067C32 14.4496 31.6479 12.5748 31.0048 10.8415L16 9.4502L0.995188 10.8415C0.352063 12.5748 0 14.4496 0 16.4067H0Z" fill="#FFDA44"/>
<path d="M31.0018 10.8411C28.7411 4.74831 22.8764 0.40625 15.997 0.40625C9.11756 0.40625 3.25288 4.74831 0.992188 10.8411H31.0018Z" fill="#D80027"/>
<path d="M0.992188 21.9717C3.25288 28.0644 9.11756 32.4065 15.997 32.4065C22.8764 32.4065 28.7411 28.0644 31.0018 21.9717H0.992188Z" fill="#D80027"/>
</g>
<defs>
<clipPath id="clip0_460_1745">
<rect width="32" height="32" fill="white" transform="translate(0 0.40625)"/>
</clipPath>
</defs>
</svg>
