<svg width="32" height="33" viewBox="0 0 32 33" fill="none" xmlns="http://www.w3.org/2000/svg">
<g clip-path="url(#clip0_460_1756)">
<path d="M31.0048 22.1594C31.648 20.4261 32 18.5513 32 16.5942C32 14.6371 31.648 12.7623 31.0048 11.029L16 9.6377L0.995188 11.029C0.352 12.7623 0 14.6371 0 16.5942C0 18.5513 0.352 20.4261 0.995188 22.1594L16 23.5507L31.0048 22.1594Z" fill="#6DA544"/>
<path d="M31.0057 11.0286C28.745 4.93575 22.8803 0.59375 16.0009 0.59375C9.12147 0.59375 3.25678 4.93575 0.996094 11.0286H31.0057Z" fill="#FFDA44"/>
<path d="M16.0009 32.594C22.8803 32.594 28.745 28.252 31.0057 22.1592H0.996094C3.25678 28.252 9.12147 32.594 16.0009 32.594Z" fill="#D80027"/>
</g>
<defs>
<clipPath id="clip0_460_1756">
<rect width="32" height="32" fill="white" transform="translate(0 0.59375)"/>
</clipPath>
</defs>
</svg>
