<svg width="32" height="33" viewBox="0 0 32 33" fill="none" xmlns="http://www.w3.org/2000/svg">
<g clip-path="url(#clip0_460_1746)">
<path d="M16 32.2188C24.8366 32.2188 32 25.0553 32 16.2188C32 7.38219 24.8366 0.21875 16 0.21875C7.16344 0.21875 0 7.38219 0 16.2188C0 25.0553 7.16344 32.2188 16 32.2188Z" fill="#F0F0F0"/>
<path d="M15.9996 0.21875C8.60716 0.21875 2.38678 5.23256 0.550781 12.0448H31.4485C29.6124 5.23256 23.392 0.21875 15.9996 0.21875Z" fill="#A2001D"/>
<path d="M15.9996 32.2186C23.392 32.2186 29.6124 27.2048 31.4484 20.3926H0.550781C2.38678 27.2048 8.60716 32.2186 15.9996 32.2186Z" fill="#A2001D"/>
</g>
<defs>
<clipPath id="clip0_460_1746">
<rect width="32" height="32" fill="white" transform="translate(0 0.21875)"/>
</clipPath>
</defs>
</svg>
