<svg width="32" height="33" viewBox="0 0 32 33" fill="none" xmlns="http://www.w3.org/2000/svg">
<g clip-path="url(#clip0_462_1819)">
<path d="M21.5647 1.90144C19.8313 1.25831 17.9566 0.90625 15.9995 0.90625C14.0423 0.90625 12.1676 1.25831 10.4343 1.90144L9.04297 16.9062L10.4343 31.9111C12.1676 32.5542 14.0423 32.9062 15.9995 32.9062C17.9566 32.9062 19.8313 32.5542 21.5647 31.9111L22.956 16.9062L21.5647 1.90144Z" fill="#FFDA44"/>
<path d="M32.0012 16.9061C32.0012 10.0267 27.6592 4.16199 21.5664 1.90137V31.9111C27.6592 29.6502 32.0012 23.7856 32.0012 16.9061V16.9061Z" fill="#D80027"/>
<path d="M0 16.9061C0 23.7856 4.342 29.6502 10.4348 31.911V1.90137C4.342 4.16199 0 10.0267 0 16.9061V16.9061Z" fill="black"/>
</g>
<defs>
<clipPath id="clip0_462_1819">
<rect width="32" height="32" fill="white" transform="translate(0 0.90625)"/>
</clipPath>
</defs>
</svg>
