<svg width="32" height="33" viewBox="0 0 32 33" fill="none" xmlns="http://www.w3.org/2000/svg">
<g clip-path="url(#clip0_461_1764)">
<path d="M16 32.2812C24.8366 32.2812 32 25.1178 32 16.2812C32 7.44469 24.8366 0.28125 16 0.28125C7.16344 0.28125 0 7.44469 0 16.2812C0 25.1178 7.16344 32.2812 16 32.2812Z" fill="#F0F0F0"/>
<path d="M31.0048 10.7159H13.9131V6.54199H5.56519V10.7159H0.995188C0.352063 12.4492 0 14.324 0 16.2811C0 18.2382 0.352063 20.113 0.995188 21.8463L16 23.2376L31.0048 21.8463C31.6479 20.113 32 18.2382 32 16.2811C32 14.324 31.6479 12.4492 31.0048 10.7159Z" fill="#0052B4"/>
<path d="M16.0009 32.2815C22.8803 32.2815 28.745 27.9395 31.0057 21.8467H0.996094C3.25678 27.9395 9.12147 32.2815 16.0009 32.2815Z" fill="#D80027"/>
<path d="M5.56641 10.7161V12.1074C5.56641 15.3024 9.74034 16.2814 9.74034 16.2814C9.74034 16.2814 13.9143 15.3024 13.9143 12.1074V10.7161L12.523 12.1074L9.74034 10.0205L6.95772 12.1074L5.56641 10.7161Z" fill="#F0F0F0"/>
</g>
<defs>
<clipPath id="clip0_461_1764">
<rect width="32" height="32" fill="white" transform="translate(0 0.28125)"/>
</clipPath>
</defs>
</svg>
