<svg width="32" height="33" viewBox="0 0 32 33" fill="none" xmlns="http://www.w3.org/2000/svg">
<g clip-path="url(#clip0_460_1749)">
<path d="M16 32.2812C24.8366 32.2812 32 25.1178 32 16.2812C32 7.44469 24.8366 0.28125 16 0.28125C7.16344 0.28125 0 7.44469 0 16.2812C0 25.1178 7.16344 32.2812 16 32.2812Z" fill="#F0F0F0"/>
<path d="M31.8646 14.1943H18.0871H18.087V0.416688C17.4038 0.32775 16.7073 0.28125 16 0.28125C15.2927 0.28125 14.5962 0.32775 13.9131 0.416688V14.1942V14.1943H0.135438C0.0465 14.8774 0 15.5739 0 16.2812C0 16.9887 0.0465 17.6851 0.135438 18.3682H13.9129H13.913V32.1458C14.5962 32.2348 15.2927 32.2812 16 32.2812C16.7073 32.2812 17.4038 32.2348 18.0869 32.1458V18.3683V18.3682H31.8646C31.9535 17.6851 32 16.9887 32 16.2812C32 15.5739 31.9535 14.8774 31.8646 14.1943V14.1943Z" fill="#D80027"/>
<path d="M9.74034 7.93368V5.84668H7.65341V7.93368H5.56641V10.0206H7.65341V12.1076H9.74034V10.0206H11.8273V7.93368H9.74034Z" fill="#D80027"/>
<path d="M24.3458 7.93368V5.84668H22.2588V7.93368H20.1719V10.0206H22.2588V12.1076H24.3458V10.0206H26.4328V7.93368H24.3458Z" fill="#D80027"/>
<path d="M9.74034 22.542V20.4551H7.65341V22.542H5.56641V24.629H7.65341V26.716H9.74034V24.629H11.8273V22.542H9.74034Z" fill="#D80027"/>
<path d="M24.3458 22.542V20.4551H22.2588V22.542H20.1719V24.629H22.2588V26.716H24.3458V24.629H26.4328V22.542H24.3458Z" fill="#D80027"/>
</g>
<defs>
<clipPath id="clip0_460_1749">
<rect width="32" height="32" fill="white" transform="translate(0 0.28125)"/>
</clipPath>
</defs>
</svg>
