<svg width="32" height="33" viewBox="0 0 32 33" fill="none" xmlns="http://www.w3.org/2000/svg">
<g clip-path="url(#clip0_460_1750)">
<path d="M0 16.9064C0 18.8635 0.352063 20.7383 0.995188 22.4716L16 23.1673L31.0048 22.4716C31.648 20.7383 32 18.8635 32 16.9064C32 14.9493 31.648 13.0745 31.0048 11.3412L16 10.6455L0.995188 11.3411C0.352063 13.0745 0 14.9493 0 16.9064H0Z" fill="black"/>
<path d="M16.0009 0.90625C9.12147 0.90625 3.25678 5.24825 0.996094 11.3411H31.0058C28.745 5.24825 22.8803 0.90625 16.0009 0.90625V0.90625Z" fill="#0052B4"/>
<path d="M31.0057 22.4717H0.996094C3.25678 28.5644 9.12147 32.9065 16.0009 32.9065C22.8803 32.9065 28.745 28.5644 31.0057 22.4717Z" fill="#F0F0F0"/>
</g>
<defs>
<clipPath id="clip0_460_1750">
<rect width="32" height="32" fill="white" transform="translate(0 0.90625)"/>
</clipPath>
</defs>
</svg>
