<svg xmlns="http://www.w3.org/2000/svg" x="0px" y="0px" viewBox="0 0 32 32"><path fill="#f0f0f0" d="M16,32c8.8,0,16-7.2,16-16c0-8.8-7.2-16-16-16C7.2,0,0,7.2,0,16C0,24.8,7.2,32,16,32z"/><g fill="#002C6C"><path d="M3.3,6.3c-1.3,1.6-2.2,3.5-2.8,5.6h8.3L3.3,6.3z"/><path d="M31.4,11.8c-0.6-2-1.5-3.9-2.8-5.6l-5.6,5.6H31.4z"/><path d="M0.6,20.2c0.6,2,1.5,3.9,2.8,5.6l5.6-5.6H0.6z"/><path d="M25.7,3.3c-1.6-1.3-3.5-2.2-5.6-2.8v8.3L25.7,3.3z"/><path d="M6.3,28.7c1.6,1.3,3.5,2.2,5.6,2.8v-8.3L6.3,28.7z"/><path d="M11.8,0.6c-2,0.6-3.9,1.5-5.6,2.8l5.6,5.6V0.6z"/><path d="M20.2,31.4c2-0.6,3.9-1.5,5.6-2.8l-5.6-5.6V31.4z"/><path d="M23.1,20.2l5.6,5.6c1.3-1.6,2.2-3.5,2.8-5.6H23.1z"/></g><g fill="#D80027"><path d="M31.9,13.9H18.1h0V0.1C17.4,0,16.7,0,16,0c-0.7,0-1.4,0-2.1,0.1v13.8v0H0.1C0,14.6,0,15.3,0,16c0,0.7,0,1.4,0.1,2.1h13.8h0v13.8C14.6,32,15.3,32,16,32c0.7,0,1.4,0,2.1-0.1V18.1v0h13.8C32,17.4,32,16.7,32,16C32,15.3,32,14.6,31.9,13.9z"/><path d="M20.2,20.2l7.1,7.1c0.3-0.3,0.6-0.7,0.9-1l-6.1-6.1L20.2,20.2L20.2,20.2z"/><path d="M11.8,20.2L11.8,20.2l-7.1,7.1c0.3,0.3,0.7,0.6,1,0.9l6.1-6.1V20.2z"/><path d="M11.8,11.8L11.8,11.8L4.7,4.7C4.4,5,4,5.4,3.7,5.7l6.1,6.1H11.8L11.8,11.8z"/><path d="M20.2,11.8l7.1-7.1c-0.3-0.3-0.7-0.6-1-0.9l-6.1,6.1V11.8z"/></g></svg>