<svg width="32" height="33" viewBox="0 0 32 33" fill="none" xmlns="http://www.w3.org/2000/svg">
<g clip-path="url(#clip0_462_1817)">
<path d="M16 32.0938C24.8366 32.0938 32 24.9303 32 16.0938C32 7.25719 24.8366 0.09375 16 0.09375C7.16344 0.09375 0 7.25719 0 16.0938C0 24.9303 7.16344 32.0938 16 32.0938Z" fill="#F0F0F0"/>
<path d="M16 0.09375C24.8365 0.09375 32 7.25725 32 16.0938C32 24.9303 24.8365 32.0938 16 32.0938" fill="#D80027"/>
<path d="M11.131 6.35452V4.26758H9.04403V6.35452H6.95703V8.44145H9.04403V10.5285H11.131V8.44145H13.2179V6.35452H11.131Z" fill="#ACABB1"/>
</g>
<defs>
<clipPath id="clip0_462_1817">
<rect width="32" height="32" fill="white" transform="translate(0 0.09375)"/>
</clipPath>
</defs>
</svg>
