<svg width="32" height="33" viewBox="0 0 32 33" fill="none" xmlns="http://www.w3.org/2000/svg">
<g clip-path="url(#clip0_461_1765)">
<path d="M16 32.4688C24.8366 32.4688 32 25.3053 32 16.4688C32 7.63219 24.8366 0.46875 16 0.46875C7.16344 0.46875 0 7.63219 0 16.4688C0 25.3053 7.16344 32.4688 16 32.4688Z" fill="#F0F0F0"/>
<path d="M0.550781 20.6426C1.47653 24.0775 3.51684 27.0546 6.26047 29.1627V20.6426H0.550781Z" fill="#0052B4"/>
<path d="M14.6094 32.4078C15.068 32.4473 15.5318 32.4686 16.0007 32.4686C23.3931 32.4686 29.6135 27.4548 31.4495 20.6426H14.6094V32.4078Z" fill="#0052B4"/>
<path d="M31.4495 12.2948C29.6135 5.48256 23.3931 0.46875 16.0007 0.46875C15.5318 0.46875 15.068 0.490125 14.6094 0.529625V12.2948H31.4495Z" fill="#0052B4"/>
<path d="M6.26047 3.77441C3.51684 5.88254 1.47653 8.8596 0.550781 12.2945H6.26047V3.77441Z" fill="#0052B4"/>
<path d="M31.8646 14.3814H12.5218H12.5218V0.848633C11.0431 1.17651 9.64131 1.70795 8.34781 2.41376V14.3813H0.135438C0.046375 15.0645 0 15.761 0 16.4683C0 17.1756 0.046375 17.8721 0.135438 18.5553H8.34775H8.34781V30.5228C9.64131 31.2286 11.0431 31.7601 12.5218 32.0879V18.5554V18.5553H31.8646C31.9535 17.8721 32 17.1756 32 16.4683C32 15.761 31.9535 15.0645 31.8646 14.3814V14.3814Z" fill="#D80027"/>
</g>
<defs>
<clipPath id="clip0_461_1765">
<rect width="32" height="32" fill="white" transform="translate(0 0.46875)"/>
</clipPath>
</defs>
</svg>
