<svg xmlns="http://www.w3.org/2000/svg" x="0px" y="0px" viewBox="0 0 35 35" fill="#002C6C"><path d="M16.7,15.1c-0.6,0-1.3,0-1.9,0c-0.7,0-1.3-0.5-1.4-1.3c-0.1-0.7,0.4-1.6,1.6-1.6c1,0,2,0,3,0s1.6,0.6,1.6,1.6c0,3.5,0,6.9,0,10.4c0,0.2,0,0.3,0,0.5c0.9,0,1.7,0,2.6,0c1.1,0,1.7,1,1.3,2c-0.2,0.6-0.7,0.9-1.3,0.9c-1.7,0-3.5,0-5.2,0c-1,0-2,0-3,0c-0.7,0-1.3-0.6-1.3-1.3c-0.1-0.7,0.4-1.6,1.7-1.6c0.8,0,1.6,0,2.4,0C16.7,21.5,16.7,18.3,16.7,15.1z"/><path d="M17.5,0C7.9,0,0,7.8,0,17.4C0,27.1,7.8,34.9,17.5,35C27.1,35,35,27.2,35,17.5S27.2,0,17.5,0z M17.5,32C10,32,3,25,3,17.5S10,3,17.5,3S32,10,32,17.5S25,32,17.5,32z"/><circle cx="17.8" cy="8.1" r="2"/></svg>