<svg width="102" height="50" viewBox="0 0 102 50" fill="none" xmlns="http://www.w3.org/2000/svg">
<path d="M58.8017 30.7844V29.2008H55.8721V17.1631H54.4476L50.5664 18.7467L50.9623 20.4885L53.9713 19.3008V29.2H50.6443V30.7836L58.8017 30.7844Z" fill="#002C6C"/>
<path d="M48.8245 24.2899C48.8245 37.1981 38.2917 47.6505 25.3056 47.6505C12.3179 47.6505 1.78516 37.1981 1.78516 24.2899C1.86384 11.3817 12.3188 0.929199 25.3056 0.929199C38.2925 0.929199 48.8245 11.3817 48.8245 24.2899Z" fill="#002C6C"/>
<path d="M30.1374 17.2432C26.6538 17.2432 24.0391 20.094 24.0391 23.9743V24.1325C24.0391 28.1702 26.4956 30.8637 30.0579 30.8637C32.0374 30.8637 33.5423 30.071 34.4923 29.3571V23.5776H29.9784V25.003H32.9079V28.4079L32.8292 28.4874C32.1161 28.962 31.1669 29.2784 30.2161 29.2784C27.6022 29.2784 25.9391 27.2202 25.9391 24.053V23.9743C25.9391 21.044 27.6817 18.8268 30.1366 18.8268C31.562 18.8268 32.4333 19.3014 33.1456 19.935L34.1759 18.5899C32.9079 17.6391 31.721 17.2432 30.1374 17.2432Z" fill="white"/>
<path d="M37.0234 29.0428C38.3693 30.2288 39.9529 30.7846 41.6161 30.7846C44.1505 30.7846 45.8128 29.2788 45.8128 27.0616C45.8128 25.2411 44.8636 24.2116 42.2505 23.2616C39.8751 22.3108 39.2415 21.7575 39.2415 20.6485C39.2415 19.5395 40.1923 18.7477 41.5382 18.7477C42.489 18.7477 43.5161 19.1436 44.5456 19.9354L45.5767 18.5903C44.4677 17.6395 43.121 17.1641 41.6161 17.1641C39.1611 17.1641 37.4988 18.6682 37.4988 20.7272C37.4988 22.8657 38.8447 23.737 41.3013 24.6862C43.4374 25.4788 44.1513 26.0337 44.1513 27.1436C44.1513 28.3305 43.121 29.2018 41.6972 29.2018C40.1128 29.2018 38.9259 28.4091 38.1333 27.6968L37.0234 29.0428Z" fill="white"/>
<path d="M43.2812 4.9686C43.2812 3.7022 44.3083 2.67188 45.5772 2.67188C46.8444 2.67188 47.8731 3.7022 47.8731 4.9686C47.8731 6.23499 46.8444 7.2645 45.5772 7.2645C44.3083 7.2645 43.2812 6.23499 43.2812 4.9686ZM47.3976 4.9686C47.3976 3.93909 46.605 3.14647 45.5763 3.14647C44.5452 3.14647 43.7542 3.93827 43.7542 4.9686C43.7542 5.99729 44.5452 6.78991 45.5763 6.78991C46.605 6.78991 47.3976 5.99729 47.3976 4.9686ZM44.7042 3.85876H45.7345C46.2091 3.85876 46.605 4.09647 46.605 4.57188C46.605 4.88909 46.4476 5.12597 46.1304 5.28499L46.6837 6.07679H46.0517L45.5772 5.3645H45.2599V6.07679H44.7042V3.85876ZM45.7345 4.88909C45.9731 4.88909 46.1304 4.73089 46.1304 4.57188C46.1304 4.41286 45.9731 4.25466 45.7345 4.25466H45.2599V4.88827L45.7345 4.88909Z" fill="#002C6C"/>
<path d="M6.6168 24.2901C6.6168 13.6 14.8529 4.8893 25.3865 4.01798V3.93848C14.0611 3.93848 4.875 13.045 4.875 24.2901C4.875 35.536 14.0611 44.6426 25.307 44.6426V44.5639C14.8529 43.6918 6.6168 34.9016 6.6168 24.2901Z" fill="white"/>
<path d="M11.2086 24.29C11.2086 15.3416 18.0193 7.97768 26.8086 7.10636L26.7299 7.02686C17.3061 7.18505 9.625 14.867 9.625 24.29C9.625 33.7146 17.2266 41.3965 26.7299 41.5539L26.8086 41.4752C18.0184 40.5236 11.2086 33.2392 11.2086 24.29Z" fill="white"/>
<path d="M15.5647 24.2899C15.5647 17.0055 21.1081 10.9866 28.2351 10.1161L28.1556 10.0366C20.3942 10.2743 14.2188 16.5301 14.2188 24.2899C14.2188 32.0514 20.3942 38.3079 28.1556 38.5448L28.2351 38.4645C21.1073 37.594 15.5647 31.576 15.5647 24.2899Z" fill="white"/>
<path d="M19.7639 24.2898C19.7639 18.5898 24.0393 13.8381 29.6622 13.2045V13.125C23.5647 13.2832 18.7344 18.1939 18.7344 24.2906C18.7344 30.3881 23.6434 35.2988 29.6622 35.4578V35.3766C24.1196 34.6643 19.7639 29.993 19.7639 24.2898Z" fill="white"/>
<path d="M85.4629 47.6C84.4529 47.6 83.6229 47.02 83.6229 45.96V45.94C83.6229 44.77 84.5129 44.23 85.7829 44.23C86.3229 44.23 86.7129 44.32 87.0929 44.45V44.36C87.0929 43.73 86.7029 43.38 85.9429 43.38C85.3629 43.38 84.9529 43.49 84.4629 43.67L84.0829 42.51C84.6729 42.25 85.2529 42.08 86.1629 42.08C86.9929 42.08 87.5929 42.3 87.9729 42.68C88.3729 43.08 88.5529 43.67 88.5529 44.39V47.5H87.0829V46.92C86.7129 47.33 86.2029 47.6 85.4629 47.6ZM85.9229 46.55C86.6329 46.55 87.1129 46.16 87.1129 45.61V45.34C86.8529 45.22 86.5129 45.14 86.1429 45.14C85.4929 45.14 85.0929 45.4 85.0929 45.88V45.9C85.0929 46.31 85.4329 46.55 85.9229 46.55Z" fill="#F26334"/>
<path d="M81.1553 41.55V40.2H82.7553V41.55H81.1553ZM81.1953 47.5V42.14H82.7153V47.5H81.1953Z" fill="#F26334"/>
<path d="M76.9773 49.12C76.1073 49.12 75.2873 48.92 74.6073 48.56L75.1273 47.42C75.6773 47.73 76.2273 47.91 76.9373 47.91C77.9773 47.91 78.4673 47.41 78.4673 46.45V46.19C78.0173 46.73 77.5273 47.06 76.7173 47.06C75.4673 47.06 74.3373 46.15 74.3373 44.56V44.54C74.3373 42.94 75.4873 42.04 76.7173 42.04C77.5473 42.04 78.0373 42.39 78.4473 42.84V42.14H79.9673V46.29C79.9673 47.25 79.7373 47.95 79.2873 48.4C78.7873 48.9 78.0173 49.12 76.9773 49.12ZM77.1573 45.8C77.8973 45.8 78.4673 45.29 78.4673 44.56V44.54C78.4673 43.81 77.8973 43.3 77.1573 43.3C76.4173 43.3 75.8573 43.81 75.8573 44.54V44.56C75.8573 45.3 76.4173 45.8 77.1573 45.8Z" fill="#F26334"/>
<path d="M70.6952 47.5V42.14H72.2152V43.22C72.5252 42.48 73.0252 42 73.9252 42.04V43.63H73.8452C72.8352 43.63 72.2152 44.24 72.2152 45.52V47.5H70.6952Z" fill="#F26334"/>
<path d="M66.8846 47.62C65.2246 47.62 63.9946 46.39 63.9946 44.85V44.83C63.9946 43.29 65.2346 42.04 66.9046 42.04C68.5646 42.04 69.7946 43.27 69.7946 44.81V44.83C69.7946 46.37 68.5546 47.62 66.8846 47.62ZM66.9046 46.31C67.7746 46.31 68.2946 45.64 68.2946 44.85V44.83C68.2946 44.04 67.7246 43.35 66.8846 43.35C66.0146 43.35 65.4946 44.02 65.4946 44.81V44.83C65.4946 45.62 66.0646 46.31 66.9046 46.31Z" fill="#F26334"/>
<path d="M60.8618 47.62C59.2518 47.62 58.0618 46.49 58.0618 44.85V44.83C58.0618 43.3 59.1518 42.04 60.7118 42.04C62.5018 42.04 63.3218 43.43 63.3218 44.95C63.3218 45.07 63.3118 45.21 63.3018 45.35H59.5718C59.7218 46.04 60.2018 46.4 60.8818 46.4C61.3918 46.4 61.7618 46.24 62.1818 45.85L63.0518 46.62C62.5518 47.24 61.8318 47.62 60.8618 47.62ZM59.5518 44.4H61.8418C61.7518 43.72 61.3518 43.26 60.7118 43.26C60.0818 43.26 59.6718 43.71 59.5518 44.4Z" fill="#F26334"/>
<path d="M54.21 47.62C52.03 47.62 50.53 46.09 50.53 44.02V44C50.53 42.01 52.08 40.38 54.2 40.38C55.46 40.38 56.22 40.72 56.95 41.34L55.98 42.51C55.44 42.06 54.96 41.8 54.15 41.8C53.03 41.8 52.14 42.79 52.14 43.98V44C52.14 45.28 53.02 46.22 54.26 46.22C54.82 46.22 55.32 46.08 55.71 45.8V44.8H54.16V43.47H57.2V46.51C56.48 47.12 55.49 47.62 54.21 47.62Z" fill="#F26334"/>
</svg>
