<svg width="102" height="50" viewBox="0 0 102 50" fill="none" xmlns="http://www.w3.org/2000/svg">
<path d="M58.8017 30.7844V29.2008H55.8721V17.1631H54.4476L50.5664 18.7467L50.9623 20.4885L53.9713 19.3008V29.2H50.6443V30.7836L58.8017 30.7844Z" fill="#002C6C"/>
<path d="M48.8245 24.2899C48.8245 37.1981 38.2917 47.6505 25.3056 47.6505C12.3179 47.6505 1.78516 37.1981 1.78516 24.2899C1.86384 11.3817 12.3188 0.929199 25.3056 0.929199C38.2925 0.929199 48.8245 11.3817 48.8245 24.2899Z" fill="#002C6C"/>
<path d="M30.1374 17.2432C26.6538 17.2432 24.0391 20.094 24.0391 23.9743V24.1325C24.0391 28.1702 26.4956 30.8637 30.0579 30.8637C32.0374 30.8637 33.5423 30.071 34.4923 29.3571V23.5776H29.9784V25.003H32.9079V28.4079L32.8292 28.4874C32.1161 28.962 31.1669 29.2784 30.2161 29.2784C27.6022 29.2784 25.9391 27.2202 25.9391 24.053V23.9743C25.9391 21.044 27.6817 18.8268 30.1366 18.8268C31.562 18.8268 32.4333 19.3014 33.1456 19.935L34.1759 18.5899C32.9079 17.6391 31.721 17.2432 30.1374 17.2432Z" fill="white"/>
<path d="M37.0234 29.0428C38.3693 30.2288 39.9529 30.7846 41.6161 30.7846C44.1505 30.7846 45.8128 29.2788 45.8128 27.0616C45.8128 25.2411 44.8636 24.2116 42.2505 23.2616C39.8751 22.3108 39.2415 21.7575 39.2415 20.6485C39.2415 19.5395 40.1923 18.7477 41.5382 18.7477C42.489 18.7477 43.5161 19.1436 44.5456 19.9354L45.5767 18.5903C44.4677 17.6395 43.121 17.1641 41.6161 17.1641C39.1611 17.1641 37.4988 18.6682 37.4988 20.7272C37.4988 22.8657 38.8447 23.737 41.3013 24.6862C43.4374 25.4788 44.1513 26.0337 44.1513 27.1436C44.1513 28.3305 43.121 29.2018 41.6972 29.2018C40.1128 29.2018 38.9259 28.4091 38.1333 27.6968L37.0234 29.0428Z" fill="white"/>
<path d="M43.2812 4.9686C43.2812 3.7022 44.3083 2.67188 45.5772 2.67188C46.8444 2.67188 47.8731 3.7022 47.8731 4.9686C47.8731 6.23499 46.8444 7.2645 45.5772 7.2645C44.3083 7.2645 43.2812 6.23499 43.2812 4.9686ZM47.3976 4.9686C47.3976 3.93909 46.605 3.14647 45.5763 3.14647C44.5452 3.14647 43.7542 3.93827 43.7542 4.9686C43.7542 5.99729 44.5452 6.78991 45.5763 6.78991C46.605 6.78991 47.3976 5.99729 47.3976 4.9686ZM44.7042 3.85876H45.7345C46.2091 3.85876 46.605 4.09647 46.605 4.57188C46.605 4.88909 46.4476 5.12597 46.1304 5.28499L46.6837 6.07679H46.0517L45.5772 5.3645H45.2599V6.07679H44.7042V3.85876ZM45.7345 4.88909C45.9731 4.88909 46.1304 4.73089 46.1304 4.57188C46.1304 4.41286 45.9731 4.25466 45.7345 4.25466H45.2599V4.88827L45.7345 4.88909Z" fill="#002C6C"/>
<path d="M6.6168 24.2901C6.6168 13.6 14.8529 4.8893 25.3865 4.01798V3.93848C14.0611 3.93848 4.875 13.045 4.875 24.2901C4.875 35.536 14.0611 44.6426 25.307 44.6426V44.5639C14.8529 43.6918 6.6168 34.9016 6.6168 24.2901Z" fill="white"/>
<path d="M11.2086 24.29C11.2086 15.3416 18.0193 7.97768 26.8086 7.10636L26.7299 7.02686C17.3061 7.18505 9.625 14.867 9.625 24.29C9.625 33.7146 17.2266 41.3965 26.7299 41.5539L26.8086 41.4752C18.0184 40.5236 11.2086 33.2392 11.2086 24.29Z" fill="white"/>
<path d="M15.5647 24.2899C15.5647 17.0055 21.1081 10.9866 28.2351 10.1161L28.1556 10.0366C20.3942 10.2743 14.2188 16.5301 14.2188 24.2899C14.2188 32.0514 20.3942 38.3079 28.1556 38.5448L28.2351 38.4645C21.1073 37.594 15.5647 31.576 15.5647 24.2899Z" fill="white"/>
<path d="M19.7639 24.2898C19.7639 18.5898 24.0393 13.8381 29.6622 13.2045V13.125C23.5647 13.2832 18.7344 18.1939 18.7344 24.2906C18.7344 30.3881 23.6434 35.2988 29.6622 35.4578V35.3766C24.1196 34.6643 19.7639 29.993 19.7639 24.2898Z" fill="white"/>
<path d="M97.5398 47.6C96.2898 47.6 95.0998 46.62 95.0998 44.83V44.81C95.0998 43.02 96.2698 42.04 97.5398 42.04C98.3498 42.04 98.8498 42.41 99.2098 42.84V40.2H100.73V47.5H99.2098V46.73C98.8398 47.23 98.3298 47.6 97.5398 47.6ZM97.9298 46.31C98.6398 46.31 99.2298 45.72 99.2298 44.83V44.81C99.2298 43.92 98.6398 43.33 97.9298 43.33C97.2198 43.33 96.6198 43.91 96.6198 44.81V44.83C96.6198 45.72 97.2198 46.31 97.9298 46.31Z" fill="#F26334"/>
<path d="M89.3093 47.5V42.14H90.8293V42.9C91.1793 42.45 91.6293 42.04 92.3993 42.04C93.5493 42.04 94.2193 42.8 94.2193 44.03V47.5H92.6993V44.51C92.6993 43.79 92.3593 43.42 91.7793 43.42C91.1993 43.42 90.8293 43.79 90.8293 44.51V47.5H89.3093Z" fill="#F26334"/>
<path d="M85.1113 47.6C84.1013 47.6 83.2713 47.02 83.2713 45.96V45.94C83.2713 44.77 84.1613 44.23 85.4313 44.23C85.9713 44.23 86.3613 44.32 86.7413 44.45V44.36C86.7413 43.73 86.3513 43.38 85.5913 43.38C85.0113 43.38 84.6013 43.49 84.1113 43.67L83.7313 42.51C84.3213 42.25 84.9013 42.08 85.8113 42.08C86.6413 42.08 87.2413 42.3 87.6213 42.68C88.0213 43.08 88.2013 43.67 88.2013 44.39V47.5H86.7313V46.92C86.3613 47.33 85.8513 47.6 85.1113 47.6ZM85.5713 46.55C86.2813 46.55 86.7613 46.16 86.7613 45.61V45.34C86.5013 45.22 86.1613 45.14 85.7913 45.14C85.1413 45.14 84.7413 45.4 84.7413 45.88V45.9C84.7413 46.31 85.0813 46.55 85.5713 46.55Z" fill="#F26334"/>
<path d="M80.8438 47.5V40.2H82.3638V47.5H80.8438Z" fill="#F26334"/>
<path d="M76.7941 47.5V42.14H78.3141V43.22C78.6241 42.48 79.1241 42 80.0241 42.04V43.63H79.9441C78.9341 43.63 78.3141 44.24 78.3141 45.52V47.5H76.7941Z" fill="#F26334"/>
<path d="M73.4012 47.62C71.7912 47.62 70.6012 46.49 70.6012 44.85V44.83C70.6012 43.3 71.6913 42.04 73.2513 42.04C75.0413 42.04 75.8613 43.43 75.8613 44.95C75.8613 45.07 75.8512 45.21 75.8412 45.35H72.1113C72.2613 46.04 72.7412 46.4 73.4212 46.4C73.9312 46.4 74.3013 46.24 74.7213 45.85L75.5912 46.62C75.0912 47.24 74.3712 47.62 73.4012 47.62ZM72.0912 44.4H74.3812C74.2912 43.72 73.8913 43.26 73.2513 43.26C72.6213 43.26 72.2112 43.71 72.0912 44.4Z" fill="#F26334"/>
<path d="M66.5132 47.6C65.2632 47.6 64.0732 46.62 64.0732 44.83V44.81C64.0732 43.02 65.2432 42.04 66.5132 42.04C67.3232 42.04 67.8232 42.41 68.1832 42.84V40.2H69.7032V47.5H68.1832V46.73C67.8132 47.23 67.3032 47.6 66.5132 47.6ZM66.9032 46.31C67.6132 46.31 68.2032 45.72 68.2032 44.83V44.81C68.2032 43.92 67.6132 43.33 66.9032 43.33C66.1932 43.33 65.5932 43.91 65.5932 44.81V44.83C65.5932 45.72 66.1932 46.31 66.9032 46.31Z" fill="#F26334"/>
<path d="M60.9204 47.62C59.3104 47.62 58.1204 46.49 58.1204 44.85V44.83C58.1204 43.3 59.2104 42.04 60.7704 42.04C62.5604 42.04 63.3804 43.43 63.3804 44.95C63.3804 45.07 63.3704 45.21 63.3604 45.35H59.6304C59.7804 46.04 60.2604 46.4 60.9404 46.4C61.4504 46.4 61.8204 46.24 62.2404 45.85L63.1104 46.62C62.6104 47.24 61.8904 47.62 60.9204 47.62ZM59.6104 44.4H61.9004C61.8104 43.72 61.4104 43.26 60.7704 43.26C60.1404 43.26 59.7304 43.71 59.6104 44.4Z" fill="#F26334"/>
<path d="M50.84 47.5V40.5H52.26L55.54 44.81V40.5H57.06V47.5H55.75L52.36 43.05V47.5H50.84Z" fill="#F26334"/>
</svg>
