<svg width="98" height="50" viewBox="0 0 98 50" fill="none" xmlns="http://www.w3.org/2000/svg">
<path d="M58.8024 30.7844V29.2008H55.8729V17.1631H54.4483L50.5672 18.7467L50.9631 20.4885L53.9721 19.3008V29.2H50.645V30.7836L58.8024 30.7844Z" fill="#002C6C"/>
<path d="M48.8245 24.2899C48.8245 37.1981 38.2917 47.6505 25.3056 47.6505C12.3179 47.6505 1.78516 37.1981 1.78516 24.2899C1.86384 11.3817 12.3188 0.929199 25.3056 0.929199C38.2925 0.929199 48.8245 11.3817 48.8245 24.2899Z" fill="#002C6C"/>
<path d="M30.1359 17.2431C26.6523 17.2431 24.0376 20.094 24.0376 23.9743V24.1325C24.0376 28.1702 26.4941 30.8636 30.0564 30.8636C32.0359 30.8636 33.5409 30.071 34.4909 29.3571V23.5776H29.9769V25.003H32.9064V28.4079L32.8277 28.4874C32.1146 28.962 31.1654 29.2784 30.2146 29.2784C27.6007 29.2784 25.9376 27.2202 25.9376 24.053V23.9743C25.9376 21.044 27.6802 18.8267 30.1351 18.8267C31.5605 18.8267 32.4318 19.3013 33.1441 19.9349L34.1745 18.5899C32.9064 17.639 31.7195 17.2431 30.1359 17.2431Z" fill="white"/>
<path d="M37.0254 29.0426C38.3713 30.2286 39.9549 30.7844 41.618 30.7844C44.1524 30.7844 45.8147 29.2786 45.8147 27.0614C45.8147 25.2409 44.8655 24.2114 42.2524 23.2614C39.877 22.3106 39.2434 21.7573 39.2434 20.6483C39.2434 19.5393 40.1942 18.7475 41.5401 18.7475C42.4909 18.7475 43.518 19.1434 44.5475 19.9352L45.5786 18.5901C44.4696 17.6393 43.1229 17.1639 41.618 17.1639C39.1631 17.1639 37.5008 18.668 37.5008 20.727C37.5008 22.8655 38.8467 23.7368 41.3032 24.686C43.4393 25.4786 44.1532 26.0336 44.1532 27.1434C44.1532 28.3303 43.1229 29.2016 41.6991 29.2016C40.1147 29.2016 38.9278 28.409 38.1352 27.6967L37.0254 29.0426Z" fill="white"/>
<path d="M43.2827 4.96866C43.2827 3.70227 44.3097 2.67194 45.5786 2.67194C46.8458 2.67194 47.8745 3.70227 47.8745 4.96866C47.8745 6.23505 46.8458 7.26456 45.5786 7.26456C44.3097 7.26456 43.2827 6.23505 43.2827 4.96866ZM47.3991 4.96866C47.3991 3.93915 46.6064 3.14653 45.5777 3.14653C44.5466 3.14653 43.7556 3.93833 43.7556 4.96866C43.7556 5.99735 44.5466 6.78997 45.5777 6.78997C46.6064 6.78997 47.3991 5.99735 47.3991 4.96866ZM44.7056 3.85882H45.7359C46.2105 3.85882 46.6064 4.09653 46.6064 4.57194C46.6064 4.88915 46.4491 5.12604 46.1318 5.28505L46.6851 6.07686H46.0532L45.5786 5.36456H45.2614V6.07686H44.7056V3.85882ZM45.7359 4.88915C45.9745 4.88915 46.1318 4.73096 46.1318 4.57194C46.1318 4.41292 45.9745 4.25473 45.7359 4.25473H45.2614V4.88833L45.7359 4.88915Z" fill="#002C6C"/>
<path d="M6.61544 24.2899C6.61544 13.5997 14.8515 4.88909 25.3851 4.01778V3.93827C14.0597 3.93827 4.87364 13.0448 4.87364 24.2899C4.87364 35.5358 14.0597 44.6424 25.3056 44.6424V44.5637C14.8515 43.6915 6.61544 34.9014 6.61544 24.2899Z" fill="white"/>
<path d="M11.2089 24.2898C11.2089 15.3414 18.0195 7.97746 26.8089 7.10615L26.7302 7.02664C17.3064 7.18484 9.62526 14.8668 9.62526 24.2898C9.62526 33.7143 17.2269 41.3963 26.7302 41.5537L26.8089 41.475C18.0187 40.5234 11.2089 33.2389 11.2089 24.2898Z" fill="white"/>
<path d="M15.5646 24.2897C15.5646 17.0052 21.1081 10.9864 28.2351 10.1159L28.1556 10.0364C20.3941 10.2741 14.2187 16.5298 14.2187 24.2897C14.2187 32.0511 20.3941 38.3077 28.1556 38.5446L28.2351 38.4642C21.1072 37.5937 15.5646 31.5757 15.5646 24.2897Z" fill="white"/>
<path d="M19.7621 24.2897C19.7621 18.5897 24.0375 13.8381 29.6605 13.2045V13.125C23.5629 13.2831 18.7326 18.1938 18.7326 24.2905C18.7326 30.3881 23.6416 35.2987 29.6605 35.4577V35.3766C24.1179 34.6643 19.7621 29.993 19.7621 24.2897Z" fill="white"/>
<path d="M84.5875 47.6199C82.9775 47.6199 81.7875 46.4899 81.7875 44.8499V44.8299C81.7875 43.2999 82.8775 42.0399 84.4375 42.0399C86.2275 42.0399 87.0475 43.4299 87.0475 44.9499C87.0475 45.0699 87.0375 45.2099 87.0275 45.3499H83.2975C83.4475 46.0399 83.9275 46.3999 84.6075 46.3999C85.1175 46.3999 85.4875 46.2399 85.9075 45.8499L86.7775 46.6199C86.2775 47.2399 85.5575 47.6199 84.5875 47.6199ZM83.2775 44.3999H85.5675C85.4775 43.7199 85.0775 43.2599 84.4375 43.2599C83.8075 43.2599 83.3975 43.7099 83.2775 44.3999Z" fill="#F26334"/>
<path d="M76.017 47.4999V42.1399H77.537V42.8999C77.887 42.4499 78.337 42.0399 79.107 42.0399C80.257 42.0399 80.927 42.7999 80.927 44.0299V47.4999H79.407V44.5099C79.407 43.7899 79.067 43.4199 78.487 43.4199C77.907 43.4199 77.537 43.7899 77.537 44.5099V47.4999H76.017Z" fill="#F26334"/>
<path d="M73.2295 41.5499V40.1999H74.8295V41.5499H73.2295ZM73.2695 47.4999V42.1399H74.7895V47.4999H73.2695Z" fill="#F26334"/>
<path d="M69.0015 47.5999C67.9915 47.5999 67.1615 47.0199 67.1615 45.9599V45.9399C67.1615 44.7699 68.0515 44.2299 69.3215 44.2299C69.8615 44.2299 70.2515 44.3199 70.6315 44.4499V44.3599C70.6315 43.7299 70.2415 43.3799 69.4815 43.3799C68.9015 43.3799 68.4915 43.4899 68.0015 43.6699L67.6215 42.5099C68.2115 42.2499 68.7915 42.0799 69.7015 42.0799C70.5315 42.0799 71.1315 42.2999 71.5115 42.6799C71.9115 43.0799 72.0915 43.6699 72.0915 44.3899V47.4999H70.6215V46.9199C70.2515 47.3299 69.7415 47.5999 69.0015 47.5999ZM69.4615 46.5499C70.1715 46.5499 70.6515 46.1599 70.6515 45.6099V45.3399C70.3915 45.2199 70.0515 45.1399 69.6815 45.1399C69.0315 45.1399 68.6315 45.3999 68.6315 45.8799V45.8999C68.6315 46.3099 68.9715 46.5499 69.4615 46.5499Z" fill="#F26334"/>
<path d="M63.7557 47.4999V42.1399H65.2757V43.2199C65.5857 42.4799 66.0857 41.9999 66.9857 42.0399V43.6299H66.9057C65.8957 43.6299 65.2757 44.2399 65.2757 45.5199V47.4999H63.7557Z" fill="#F26334"/>
<path d="M58.0377 47.4999V40.1999H59.5577V44.0899L61.3377 42.1399H63.1577L61.1177 44.2499L63.2277 47.4999H61.4677L60.0977 45.2999L59.5577 45.8699V47.4999H58.0377Z" fill="#F26334"/>
<path d="M53.7591 47.6099C51.8791 47.6099 50.7291 46.5599 50.7291 44.4999V40.4999H52.2691V44.4599C52.2691 45.5999 52.8391 46.1899 53.7791 46.1899C54.7191 46.1899 55.2891 45.6199 55.2891 44.5099V40.4999H56.8291V44.4499C56.8291 46.5699 55.6391 47.6099 53.7591 47.6099Z" fill="#F26334"/>
</svg>
