<svg width="98" height="50" viewBox="0 0 98 50" fill="none" xmlns="http://www.w3.org/2000/svg">
<path d="M58.8024 30.7844V29.2008H55.8729V17.1631H54.4483L50.5672 18.7467L50.9631 20.4885L53.9721 19.3008V29.2H50.645V30.7836L58.8024 30.7844Z" fill="#002C6C"/>
<path d="M48.8245 24.2899C48.8245 37.1981 38.2917 47.6505 25.3056 47.6505C12.3179 47.6505 1.78516 37.1981 1.78516 24.2899C1.86384 11.3817 12.3188 0.929199 25.3056 0.929199C38.2925 0.929199 48.8245 11.3817 48.8245 24.2899Z" fill="#002C6C"/>
<path d="M30.1359 17.2431C26.6523 17.2431 24.0376 20.094 24.0376 23.9743V24.1325C24.0376 28.1702 26.4941 30.8636 30.0564 30.8636C32.0359 30.8636 33.5409 30.071 34.4909 29.3571V23.5776H29.9769V25.003H32.9064V28.4079L32.8277 28.4874C32.1146 28.962 31.1654 29.2784 30.2146 29.2784C27.6007 29.2784 25.9376 27.2202 25.9376 24.053V23.9743C25.9376 21.044 27.6802 18.8267 30.1351 18.8267C31.5605 18.8267 32.4318 19.3013 33.1441 19.9349L34.1745 18.5899C32.9064 17.639 31.7195 17.2431 30.1359 17.2431Z" fill="white"/>
<path d="M37.0254 29.0426C38.3713 30.2286 39.9549 30.7844 41.618 30.7844C44.1524 30.7844 45.8147 29.2786 45.8147 27.0614C45.8147 25.2409 44.8655 24.2114 42.2524 23.2614C39.877 22.3106 39.2434 21.7573 39.2434 20.6483C39.2434 19.5393 40.1942 18.7475 41.5401 18.7475C42.4909 18.7475 43.518 19.1434 44.5475 19.9352L45.5786 18.5901C44.4696 17.6393 43.1229 17.1639 41.618 17.1639C39.1631 17.1639 37.5008 18.668 37.5008 20.727C37.5008 22.8655 38.8467 23.7368 41.3032 24.686C43.4393 25.4786 44.1532 26.0336 44.1532 27.1434C44.1532 28.3303 43.1229 29.2016 41.6991 29.2016C40.1147 29.2016 38.9278 28.409 38.1352 27.6967L37.0254 29.0426Z" fill="white"/>
<path d="M43.2827 4.96866C43.2827 3.70227 44.3097 2.67194 45.5786 2.67194C46.8458 2.67194 47.8745 3.70227 47.8745 4.96866C47.8745 6.23505 46.8458 7.26456 45.5786 7.26456C44.3097 7.26456 43.2827 6.23505 43.2827 4.96866ZM47.3991 4.96866C47.3991 3.93915 46.6064 3.14653 45.5777 3.14653C44.5466 3.14653 43.7556 3.93833 43.7556 4.96866C43.7556 5.99735 44.5466 6.78997 45.5777 6.78997C46.6064 6.78997 47.3991 5.99735 47.3991 4.96866ZM44.7056 3.85882H45.7359C46.2105 3.85882 46.6064 4.09653 46.6064 4.57194C46.6064 4.88915 46.4491 5.12604 46.1318 5.28505L46.6851 6.07686H46.0532L45.5786 5.36456H45.2614V6.07686H44.7056V3.85882ZM45.7359 4.88915C45.9745 4.88915 46.1318 4.73096 46.1318 4.57194C46.1318 4.41292 45.9745 4.25473 45.7359 4.25473H45.2614V4.88833L45.7359 4.88915Z" fill="#002C6C"/>
<path d="M6.61544 24.2899C6.61544 13.5997 14.8515 4.88909 25.3851 4.01778V3.93827C14.0597 3.93827 4.87364 13.0448 4.87364 24.2899C4.87364 35.5358 14.0597 44.6424 25.3056 44.6424V44.5637C14.8515 43.6915 6.61544 34.9014 6.61544 24.2899Z" fill="white"/>
<path d="M11.2089 24.2898C11.2089 15.3414 18.0195 7.97746 26.8089 7.10615L26.7302 7.02664C17.3064 7.18484 9.62526 14.8668 9.62526 24.2898C9.62526 33.7143 17.2269 41.3963 26.7302 41.5537L26.8089 41.475C18.0187 40.5234 11.2089 33.2389 11.2089 24.2898Z" fill="white"/>
<path d="M15.5646 24.2897C15.5646 17.0052 21.1081 10.9864 28.2351 10.1159L28.1556 10.0364C20.3941 10.2741 14.2187 16.5298 14.2187 24.2897C14.2187 32.0511 20.3941 38.3077 28.1556 38.5446L28.2351 38.4642C21.1072 37.5937 15.5646 31.5757 15.5646 24.2897Z" fill="white"/>
<path d="M19.7621 24.2897C19.7621 18.5897 24.0375 13.8381 29.6605 13.2045V13.125C23.5629 13.2831 18.7326 18.1938 18.7326 24.2905C18.7326 30.3881 23.6416 35.2987 29.6605 35.4577V35.3766C24.1179 34.6643 19.7621 29.993 19.7621 24.2897Z" fill="white"/>
<path d="M81.3019 47.5999C80.2919 47.5999 79.4619 47.0199 79.4619 45.9599V45.9399C79.4619 44.7699 80.3519 44.2299 81.6219 44.2299C82.1619 44.2299 82.5519 44.3199 82.9319 44.4499V44.3599C82.9319 43.7299 82.5419 43.3799 81.7819 43.3799C81.2019 43.3799 80.7919 43.4899 80.3019 43.6699L79.9219 42.5099C80.5119 42.2499 81.0919 42.0799 82.0019 42.0799C82.8319 42.0799 83.4319 42.2999 83.8119 42.6799C84.2119 43.0799 84.3919 43.6699 84.3919 44.3899V47.4999H82.9219V46.9199C82.5519 47.3299 82.0419 47.5999 81.3019 47.5999ZM81.7619 46.5499C82.4719 46.5499 82.9519 46.1599 82.9519 45.6099V45.3399C82.6919 45.2199 82.3519 45.1399 81.9819 45.1399C81.3319 45.1399 80.9319 45.3999 80.9319 45.8799V45.8999C80.9319 46.3099 81.2719 46.5499 81.7619 46.5499Z" fill="#F26334"/>
<path d="M76.9943 41.5499V40.1999H78.5943V41.5499H76.9943ZM77.0343 47.4999V42.1399H78.5543V47.4999H77.0343Z" fill="#F26334"/>
<path d="M72.9846 47.4999V42.1399H74.5046V43.2199C74.8146 42.4799 75.3146 41.9999 76.2146 42.0399V43.6299H76.1346C75.1246 43.6299 74.5046 44.2399 74.5046 45.5199V47.4999H72.9846Z" fill="#F26334"/>
<path d="M70.8442 47.5899C69.9142 47.5899 69.2842 47.2199 69.2842 45.9799V43.4399H68.6442V42.1399H69.2842V40.7699H70.8042V42.1399H72.0642V43.4399H70.8042V45.7299C70.8042 46.0799 70.9542 46.2499 71.2942 46.2499C71.5742 46.2499 71.8242 46.1799 72.0442 46.0599V47.2799C71.7242 47.4699 71.3542 47.5899 70.8442 47.5899Z" fill="#F26334"/>
<path d="M66.1923 47.5999C65.4423 47.5999 64.6023 47.3499 63.8923 46.7899L64.5423 45.7899C65.1223 46.2099 65.7323 46.4299 66.2323 46.4299C66.6723 46.4299 66.8723 46.2699 66.8723 46.0299V46.0099C66.8723 45.6799 66.3523 45.5699 65.7623 45.3899C65.0123 45.1699 64.1623 44.8199 64.1623 43.7799V43.7599C64.1623 42.6699 65.0423 42.0599 66.1223 42.0599C66.8023 42.0599 67.5423 42.2899 68.1223 42.6799L67.5423 43.7299C67.0123 43.4199 66.4823 43.2299 66.0923 43.2299C65.7223 43.2299 65.5323 43.3899 65.5323 43.5999V43.6199C65.5323 43.9199 66.0423 44.0599 66.6223 44.2599C67.3723 44.5099 68.2423 44.8699 68.2423 45.8499V45.8699C68.2423 47.0599 67.3523 47.5999 66.1923 47.5999Z" fill="#F26334"/>
<path d="M60.0619 47.5999C58.9119 47.5999 58.2419 46.8399 58.2419 45.6099V42.1399H59.7619V45.1299C59.7619 45.8499 60.1019 46.2199 60.6819 46.2199C61.2619 46.2199 61.6319 45.8499 61.6319 45.1299V42.1399H63.1519V47.4999H61.6319V46.7399C61.2819 47.1899 60.8319 47.5999 60.0619 47.5999Z" fill="#F26334"/>
<path d="M50.2391 47.4999L53.2391 40.4499H54.6591L57.6591 47.4999H56.0491L55.4091 45.9299H52.4491L51.8091 47.4999H50.2391ZM52.9991 44.5699H54.8591L53.9291 42.2999L52.9991 44.5699Z" fill="#F26334"/>
</svg>
