<svg width="98" height="50" viewBox="0 0 98 50" fill="none" xmlns="http://www.w3.org/2000/svg">
<path d="M58.8033 30.7846V29.201H55.8738V17.1633H54.4492L50.568 18.7469L50.9639 20.4887L53.9729 19.301V29.2002H50.6459V30.7838L58.8033 30.7846Z" fill="#002C6C"/>
<path d="M48.8254 24.2901C48.8254 37.1983 38.2926 47.6508 25.3065 47.6508C12.3188 47.6508 1.78601 37.1983 1.78601 24.2901C1.8647 11.3819 12.3196 0.929443 25.3065 0.929443C38.2934 0.929443 48.8254 11.3819 48.8254 24.2901Z" fill="#002C6C"/>
<path d="M30.1368 17.2434C26.6532 17.2434 24.0384 20.0942 24.0384 23.9745V24.1327C24.0384 28.1704 26.495 30.8639 30.0573 30.8639C32.0368 30.8639 33.5417 30.0712 34.4917 29.3573V23.5778H29.9778V25.0032H32.9073V28.4081L32.8286 28.4876C32.1155 28.9622 31.1663 29.2786 30.2155 29.2786C27.6015 29.2786 25.9384 27.2204 25.9384 24.0532V23.9745C25.9384 21.0442 27.6811 18.827 30.136 18.827C31.5614 18.827 32.4327 19.3016 33.145 19.9352L34.1753 18.5901C32.9073 17.6393 31.7204 17.2434 30.1368 17.2434Z" fill="white"/>
<path d="M37.0262 29.0428C38.3721 30.2289 39.9557 30.7846 41.6188 30.7846C44.1533 30.7846 45.8156 29.2789 45.8156 27.0617C45.8156 25.2412 44.8664 24.2117 42.2533 23.2617C39.8779 22.3109 39.2442 21.7576 39.2442 20.6486C39.2442 19.5395 40.1951 18.7477 41.541 18.7477C42.4918 18.7477 43.5188 19.1436 44.5483 19.9354L45.5795 18.5904C44.4705 17.6395 43.1238 17.1641 41.6188 17.1641C39.1639 17.1641 37.5016 18.6682 37.5016 20.7272C37.5016 22.8658 38.8475 23.7371 41.3041 24.6863C43.4401 25.4789 44.1541 26.0338 44.1541 27.1436C44.1541 28.3305 43.1238 29.2018 41.7 29.2018C40.1156 29.2018 38.9287 28.4092 38.1361 27.6969L37.0262 29.0428Z" fill="white"/>
<path d="M43.2835 4.9689C43.2835 3.70251 44.3106 2.67218 45.5794 2.67218C46.8466 2.67218 47.8753 3.70251 47.8753 4.9689C47.8753 6.2353 46.8466 7.26481 45.5794 7.26481C44.3106 7.26481 43.2835 6.2353 43.2835 4.9689ZM47.3999 4.9689C47.3999 3.9394 46.6073 3.14677 45.5786 3.14677C44.5475 3.14677 43.7565 3.93858 43.7565 4.9689C43.7565 5.99759 44.5475 6.79022 45.5786 6.79022C46.6073 6.79022 47.3999 5.99759 47.3999 4.9689ZM44.7065 3.85907H45.7368C46.2114 3.85907 46.6073 4.09677 46.6073 4.57218C46.6073 4.8894 46.4499 5.12628 46.1327 5.2853L46.686 6.0771H46.054L45.5794 5.36481H45.2622V6.0771H44.7065V3.85907ZM45.7368 4.8894C45.9753 4.8894 46.1327 4.7312 46.1327 4.57218C46.1327 4.41317 45.9753 4.25497 45.7368 4.25497H45.2622V4.88858L45.7368 4.8894Z" fill="#002C6C"/>
<path d="M6.6163 24.2902C6.6163 13.6 14.8524 4.88933 25.386 4.01802V3.93851C14.0606 3.93851 4.8745 13.0451 4.8745 24.2902C4.8745 35.5361 14.0606 44.6426 25.3065 44.6426V44.5639C14.8524 43.6918 6.6163 34.9016 6.6163 24.2902Z" fill="white"/>
<path d="M11.2097 24.29C11.2097 15.3416 18.0204 7.9777 26.8097 7.10639L26.731 7.02688C17.3073 7.18508 9.62612 14.867 9.62612 24.29C9.62612 33.7146 17.2278 41.3966 26.731 41.5539L26.8097 41.4752C18.0196 40.5236 11.2097 33.2392 11.2097 24.29Z" fill="white"/>
<path d="M15.5655 24.2899C15.5655 17.0055 21.1089 10.9866 28.236 10.1161L28.1564 10.0366C20.395 10.2743 14.2196 16.5301 14.2196 24.2899C14.2196 32.0514 20.395 38.3079 28.1564 38.5448L28.236 38.4645C21.1081 37.594 15.5655 31.576 15.5655 24.2899Z" fill="white"/>
<path d="M19.763 24.2899C19.763 18.5899 24.0384 13.8383 29.6613 13.2047V13.1252C23.5638 13.2834 18.7335 18.194 18.7335 24.2908C18.7335 30.3883 23.6425 35.299 29.6613 35.458V35.3768C24.1187 34.6645 19.763 29.9932 19.763 24.2899Z" fill="white"/>
<path d="M82.6566 47.6001C81.4066 47.6001 80.2166 46.6201 80.2166 44.8301V44.8101C80.2166 43.0201 81.3866 42.0401 82.6566 42.0401C83.4666 42.0401 83.9666 42.4101 84.3266 42.8401V40.2001H85.8466V47.5001H84.3266V46.7301C83.9566 47.2301 83.4466 47.6001 82.6566 47.6001ZM83.0466 46.3101C83.7566 46.3101 84.3466 45.7201 84.3466 44.8301V44.8101C84.3466 43.9201 83.7566 43.3301 83.0466 43.3301C82.3366 43.3301 81.7366 43.9101 81.7366 44.8101V44.8301C81.7366 45.7201 82.3366 46.3101 83.0466 46.3101Z" fill="#F26334"/>
<path d="M74.4261 47.5001V42.1401H75.9461V42.9001C76.2961 42.4501 76.7461 42.0401 77.5161 42.0401C78.6661 42.0401 79.3361 42.8001 79.3361 44.0301V47.5001H77.8161V44.5101C77.8161 43.7901 77.4761 43.4201 76.8961 43.4201C76.3161 43.4201 75.9461 43.7901 75.9461 44.5101V47.5001H74.4261Z" fill="#F26334"/>
<path d="M70.2281 47.6001C69.2181 47.6001 68.3881 47.0201 68.3881 45.9601V45.9401C68.3881 44.7701 69.2781 44.2301 70.5481 44.2301C71.0881 44.2301 71.4781 44.3201 71.8581 44.4501V44.3601C71.8581 43.7301 71.4681 43.3801 70.7081 43.3801C70.1281 43.3801 69.7181 43.4901 69.2281 43.6701L68.8481 42.5101C69.4381 42.2501 70.0181 42.0801 70.9281 42.0801C71.7581 42.0801 72.3581 42.3001 72.7381 42.6801C73.1381 43.0801 73.3181 43.6701 73.3181 44.3901V47.5001H71.8481V46.9201C71.4781 47.3301 70.9681 47.6001 70.2281 47.6001ZM70.6881 46.5501C71.3981 46.5501 71.8781 46.1601 71.8781 45.6101V45.3401C71.6181 45.2201 71.2781 45.1401 70.9081 45.1401C70.2581 45.1401 69.8581 45.4001 69.8581 45.8801V45.9001C69.8581 46.3101 70.1981 46.5501 70.6881 46.5501Z" fill="#F26334"/>
<path d="M65.9605 47.5001V40.2001H67.4805V47.5001H65.9605Z" fill="#F26334"/>
<path d="M59.8601 47.5001V42.1401H61.3801V42.9001C61.7301 42.4501 62.1801 42.0401 62.9501 42.0401C64.1001 42.0401 64.7701 42.8001 64.7701 44.0301V47.5001H63.2501V44.5101C63.2501 43.7901 62.9101 43.4201 62.3301 43.4201C61.7501 43.4201 61.3801 43.7901 61.3801 44.5101V47.5001H59.8601Z" fill="#F26334"/>
<path d="M57.0725 41.5501V40.2001H58.6725V41.5501H57.0725ZM57.1125 47.5001V42.1401H58.6325V47.5001H57.1125Z" fill="#F26334"/>
<path d="M50.84 47.5001V40.5001H56.17V41.9001H52.38V43.3901H55.72V44.7901H52.38V47.5001H50.84Z" fill="#F26334"/>
</svg>
