<svg width="127" height="50" viewBox="0 0 127 50" fill="none" xmlns="http://www.w3.org/2000/svg">
<path d="M58.8017 30.7844V29.2008H55.8721V17.1631H54.4476L50.5664 18.7467L50.9623 20.4885L53.9713 19.3008V29.2H50.6443V30.7836L58.8017 30.7844Z" fill="#002C6C"/>
<path d="M48.8245 24.2899C48.8245 37.1981 38.2917 47.6505 25.3056 47.6505C12.3179 47.6505 1.78516 37.1981 1.78516 24.2899C1.86384 11.3817 12.3188 0.929199 25.3056 0.929199C38.2925 0.929199 48.8245 11.3817 48.8245 24.2899Z" fill="#002C6C"/>
<path d="M30.1374 17.2432C26.6538 17.2432 24.0391 20.094 24.0391 23.9743V24.1325C24.0391 28.1702 26.4956 30.8637 30.0579 30.8637C32.0374 30.8637 33.5423 30.071 34.4923 29.3571V23.5776H29.9784V25.003H32.9079V28.4079L32.8292 28.4874C32.1161 28.962 31.1669 29.2784 30.2161 29.2784C27.6022 29.2784 25.9391 27.2202 25.9391 24.053V23.9743C25.9391 21.044 27.6817 18.8268 30.1366 18.8268C31.562 18.8268 32.4333 19.3014 33.1456 19.935L34.1759 18.5899C32.9079 17.6391 31.721 17.2432 30.1374 17.2432Z" fill="white"/>
<path d="M37.0234 29.0428C38.3693 30.2288 39.9529 30.7846 41.6161 30.7846C44.1505 30.7846 45.8128 29.2788 45.8128 27.0616C45.8128 25.2411 44.8636 24.2116 42.2505 23.2616C39.8751 22.3108 39.2415 21.7575 39.2415 20.6485C39.2415 19.5395 40.1923 18.7477 41.5382 18.7477C42.489 18.7477 43.5161 19.1436 44.5456 19.9354L45.5767 18.5903C44.4677 17.6395 43.121 17.1641 41.6161 17.1641C39.1611 17.1641 37.4988 18.6682 37.4988 20.7272C37.4988 22.8657 38.8447 23.737 41.3013 24.6862C43.4374 25.4788 44.1513 26.0337 44.1513 27.1436C44.1513 28.3305 43.121 29.2018 41.6972 29.2018C40.1128 29.2018 38.9259 28.4091 38.1333 27.6968L37.0234 29.0428Z" fill="white"/>
<path d="M43.2812 4.9686C43.2812 3.7022 44.3083 2.67188 45.5772 2.67188C46.8444 2.67188 47.8731 3.7022 47.8731 4.9686C47.8731 6.23499 46.8444 7.2645 45.5772 7.2645C44.3083 7.2645 43.2812 6.23499 43.2812 4.9686ZM47.3976 4.9686C47.3976 3.93909 46.605 3.14647 45.5763 3.14647C44.5452 3.14647 43.7542 3.93827 43.7542 4.9686C43.7542 5.99729 44.5452 6.78991 45.5763 6.78991C46.605 6.78991 47.3976 5.99729 47.3976 4.9686ZM44.7042 3.85876H45.7345C46.2091 3.85876 46.605 4.09647 46.605 4.57188C46.605 4.88909 46.4476 5.12597 46.1304 5.28499L46.6837 6.07679H46.0517L45.5772 5.3645H45.2599V6.07679H44.7042V3.85876ZM45.7345 4.88909C45.9731 4.88909 46.1304 4.73089 46.1304 4.57188C46.1304 4.41286 45.9731 4.25466 45.7345 4.25466H45.2599V4.88827L45.7345 4.88909Z" fill="#002C6C"/>
<path d="M6.6168 24.2901C6.6168 13.6 14.8529 4.8893 25.3865 4.01798V3.93848C14.0611 3.93848 4.875 13.045 4.875 24.2901C4.875 35.536 14.0611 44.6426 25.307 44.6426V44.5639C14.8529 43.6918 6.6168 34.9016 6.6168 24.2901Z" fill="white"/>
<path d="M11.2086 24.29C11.2086 15.3416 18.0193 7.97768 26.8086 7.10636L26.7299 7.02686C17.3061 7.18505 9.625 14.867 9.625 24.29C9.625 33.7146 17.2266 41.3965 26.7299 41.5539L26.8086 41.4752C18.0184 40.5236 11.2086 33.2392 11.2086 24.29Z" fill="white"/>
<path d="M15.5647 24.2899C15.5647 17.0055 21.1081 10.9866 28.2351 10.1161L28.1556 10.0366C20.3942 10.2743 14.2188 16.5301 14.2188 24.2899C14.2188 32.0514 20.3942 38.3079 28.1556 38.5448L28.2351 38.4645C21.1073 37.594 15.5647 31.576 15.5647 24.2899Z" fill="white"/>
<path d="M19.7639 24.2898C19.7639 18.5898 24.0393 13.8381 29.6622 13.2045V13.125C23.5647 13.2832 18.7344 18.1939 18.7344 24.2906C18.7344 30.3881 23.6434 35.2988 29.6622 35.4578V35.3766C24.1196 34.6643 19.7639 29.993 19.7639 24.2898Z" fill="white"/>
<path d="M123.579 47.62C121.969 47.62 120.789 46.38 120.789 44.85V44.83C120.789 43.3 121.959 42.04 123.599 42.04C124.609 42.04 125.239 42.38 125.739 42.94L124.809 43.94C124.469 43.58 124.129 43.35 123.589 43.35C122.829 43.35 122.289 44.02 122.289 44.81V44.83C122.289 45.65 122.819 46.31 123.649 46.31C124.159 46.31 124.509 46.09 124.879 45.74L125.769 46.64C125.249 47.21 124.649 47.62 123.579 47.62Z" fill="#F26334"/>
<path d="M118.261 41.55V40.2H119.861V41.55H118.261ZM118.301 47.5V42.14H119.821V47.5H118.301Z" fill="#F26334"/>
<path d="M115.484 47.5V40.2H117.004V47.5H115.484Z" fill="#F26334"/>
<path d="M112.056 47.6C111.246 47.6 110.746 47.23 110.386 46.8V47.5H108.866V40.2H110.386V42.91C110.756 42.41 111.266 42.04 112.056 42.04C113.306 42.04 114.496 43.02 114.496 44.81V44.83C114.496 46.62 113.326 47.6 112.056 47.6ZM111.666 46.31C112.376 46.31 112.976 45.73 112.976 44.83V44.81C112.976 43.92 112.376 43.33 111.666 43.33C110.956 43.33 110.366 43.92 110.366 44.81V44.83C110.366 45.72 110.956 46.31 111.666 46.31Z" fill="#F26334"/>
<path d="M104.615 47.6C103.465 47.6 102.795 46.84 102.795 45.61V42.14H104.315V45.13C104.315 45.85 104.655 46.22 105.235 46.22C105.815 46.22 106.185 45.85 106.185 45.13V42.14H107.705V47.5H106.185V46.74C105.835 47.19 105.385 47.6 104.615 47.6Z" fill="#F26334"/>
<path d="M96.287 49.1V42.14H97.807V42.91C98.177 42.41 98.687 42.04 99.477 42.04C100.727 42.04 101.917 43.02 101.917 44.81V44.83C101.917 46.62 100.747 47.6 99.477 47.6C98.667 47.6 98.167 47.23 97.807 46.8V49.1H96.287ZM99.087 46.31C99.797 46.31 100.397 45.73 100.397 44.83V44.81C100.397 43.92 99.797 43.33 99.087 43.33C98.377 43.33 97.787 43.92 97.787 44.81V44.83C97.787 45.72 98.377 46.31 99.087 46.31Z" fill="#F26334"/>
<path d="M92.8942 47.62C91.2842 47.62 90.0942 46.49 90.0942 44.85V44.83C90.0942 43.3 91.1842 42.04 92.7442 42.04C94.5342 42.04 95.3542 43.43 95.3542 44.95C95.3542 45.07 95.3442 45.21 95.3342 45.35H91.6042C91.7542 46.04 92.2342 46.4 92.9142 46.4C93.4242 46.4 93.7942 46.24 94.2142 45.85L95.0842 46.62C94.5842 47.24 93.8642 47.62 92.8942 47.62ZM91.5842 44.4H93.8742C93.7842 43.72 93.3842 43.26 92.7442 43.26C92.1142 43.26 91.7042 43.71 91.5842 44.4Z" fill="#F26334"/>
<path d="M83.5853 47.5V40.5H86.7853C87.6753 40.5 88.3653 40.75 88.8253 41.21C89.2153 41.6 89.4253 42.15 89.4253 42.81V42.83C89.4253 43.96 88.8153 44.67 87.9253 45L89.6353 47.5H87.8353L86.3353 45.26H85.1253V47.5H83.5853ZM85.1253 43.9H86.6853C87.4353 43.9 87.8653 43.5 87.8653 42.91V42.89C87.8653 42.23 87.4053 41.89 86.6553 41.89H85.1253V43.9Z" fill="#F26334"/>
<path d="M74.5968 47.5V40.2H76.1168V42.9C76.4668 42.45 76.9168 42.04 77.6868 42.04C78.8368 42.04 79.5068 42.8 79.5068 44.03V47.5H77.9868V44.51C77.9868 43.79 77.6468 43.42 77.0668 43.42C76.4868 43.42 76.1168 43.79 76.1168 44.51V47.5H74.5968Z" fill="#F26334"/>
<path d="M71.6139 47.62C70.0039 47.62 68.8239 46.38 68.8239 44.85V44.83C68.8239 43.3 69.9939 42.04 71.6339 42.04C72.6439 42.04 73.2739 42.38 73.7739 42.94L72.8439 43.94C72.5039 43.58 72.1639 43.35 71.6239 43.35C70.8639 43.35 70.3239 44.02 70.3239 44.81V44.83C70.3239 45.65 70.8539 46.31 71.6839 46.31C72.1939 46.31 72.5439 46.09 72.9139 45.74L73.8039 46.64C73.2839 47.21 72.6839 47.62 71.6139 47.62Z" fill="#F26334"/>
<path d="M65.6911 47.62C64.0811 47.62 62.8911 46.49 62.8911 44.85V44.83C62.8911 43.3 63.9811 42.04 65.5411 42.04C67.3311 42.04 68.1511 43.43 68.1511 44.95C68.1511 45.07 68.1411 45.21 68.1311 45.35H64.4011C64.5511 46.04 65.0311 46.4 65.7111 46.4C66.2211 46.4 66.5911 46.24 67.0111 45.85L67.8811 46.62C67.3811 47.24 66.6611 47.62 65.6911 47.62ZM64.3811 44.4H66.6711C66.5811 43.72 66.1811 43.26 65.5411 43.26C64.9111 43.26 64.5011 43.71 64.3811 44.4Z" fill="#F26334"/>
<path d="M57.6828 47.5V46.43L60.4528 43.37H57.7728V42.14H62.3428V43.21L59.5628 46.27H62.3428V47.5H57.6828Z" fill="#F26334"/>
<path d="M54.12 47.62C52.06 47.62 50.53 46.03 50.53 44.02V44C50.53 42.01 52.03 40.38 54.18 40.38C55.5 40.38 56.29 40.82 56.94 41.46L55.96 42.59C55.42 42.1 54.87 41.8 54.17 41.8C52.99 41.8 52.14 42.78 52.14 43.98V44C52.14 45.2 52.97 46.2 54.17 46.2C54.97 46.2 55.46 45.88 56.01 45.38L56.99 46.37C56.27 47.14 55.47 47.62 54.12 47.62Z" fill="#F26334"/>
</svg>
