<svg width="151" height="50" viewBox="0 0 151 50" fill="none" xmlns="http://www.w3.org/2000/svg">
<path d="M58.8017 30.7844V29.2008H55.8721V17.1631H54.4476L50.5664 18.7467L50.9623 20.4885L53.9713 19.3008V29.2H50.6443V30.7836L58.8017 30.7844Z" fill="#002C6C"/>
<path d="M48.8245 24.2899C48.8245 37.1981 38.2917 47.6505 25.3056 47.6505C12.3179 47.6505 1.78516 37.1981 1.78516 24.2899C1.86384 11.3817 12.3188 0.929199 25.3056 0.929199C38.2925 0.929199 48.8245 11.3817 48.8245 24.2899Z" fill="#002C6C"/>
<path d="M30.1374 17.2432C26.6538 17.2432 24.0391 20.094 24.0391 23.9743V24.1325C24.0391 28.1702 26.4956 30.8637 30.0579 30.8637C32.0374 30.8637 33.5423 30.071 34.4923 29.3571V23.5776H29.9784V25.003H32.9079V28.4079L32.8292 28.4874C32.1161 28.962 31.1669 29.2784 30.2161 29.2784C27.6022 29.2784 25.9391 27.2202 25.9391 24.053V23.9743C25.9391 21.044 27.6817 18.8268 30.1366 18.8268C31.562 18.8268 32.4333 19.3014 33.1456 19.935L34.1759 18.5899C32.9079 17.6391 31.721 17.2432 30.1374 17.2432Z" fill="white"/>
<path d="M37.0234 29.0428C38.3693 30.2288 39.9529 30.7846 41.6161 30.7846C44.1505 30.7846 45.8128 29.2788 45.8128 27.0616C45.8128 25.2411 44.8636 24.2116 42.2505 23.2616C39.8751 22.3108 39.2415 21.7575 39.2415 20.6485C39.2415 19.5395 40.1923 18.7477 41.5382 18.7477C42.489 18.7477 43.5161 19.1436 44.5456 19.9354L45.5767 18.5903C44.4677 17.6395 43.121 17.1641 41.6161 17.1641C39.1611 17.1641 37.4988 18.6682 37.4988 20.7272C37.4988 22.8657 38.8447 23.737 41.3013 24.6862C43.4374 25.4788 44.1513 26.0337 44.1513 27.1436C44.1513 28.3305 43.121 29.2018 41.6972 29.2018C40.1128 29.2018 38.9259 28.4091 38.1333 27.6968L37.0234 29.0428Z" fill="white"/>
<path d="M43.2812 4.9686C43.2812 3.7022 44.3083 2.67188 45.5772 2.67188C46.8444 2.67188 47.8731 3.7022 47.8731 4.9686C47.8731 6.23499 46.8444 7.2645 45.5772 7.2645C44.3083 7.2645 43.2812 6.23499 43.2812 4.9686ZM47.3976 4.9686C47.3976 3.93909 46.605 3.14647 45.5763 3.14647C44.5452 3.14647 43.7542 3.93827 43.7542 4.9686C43.7542 5.99729 44.5452 6.78991 45.5763 6.78991C46.605 6.78991 47.3976 5.99729 47.3976 4.9686ZM44.7042 3.85876H45.7345C46.2091 3.85876 46.605 4.09647 46.605 4.57188C46.605 4.88909 46.4476 5.12597 46.1304 5.28499L46.6837 6.07679H46.0517L45.5772 5.3645H45.2599V6.07679H44.7042V3.85876ZM45.7345 4.88909C45.9731 4.88909 46.1304 4.73089 46.1304 4.57188C46.1304 4.41286 45.9731 4.25466 45.7345 4.25466H45.2599V4.88827L45.7345 4.88909Z" fill="#002C6C"/>
<path d="M6.6168 24.2901C6.6168 13.6 14.8529 4.8893 25.3865 4.01798V3.93848C14.0611 3.93848 4.875 13.045 4.875 24.2901C4.875 35.536 14.0611 44.6426 25.307 44.6426V44.5639C14.8529 43.6918 6.6168 34.9016 6.6168 24.2901Z" fill="white"/>
<path d="M11.2086 24.29C11.2086 15.3416 18.0193 7.97768 26.8086 7.10636L26.7299 7.02686C17.3061 7.18505 9.625 14.867 9.625 24.29C9.625 33.7146 17.2266 41.3965 26.7299 41.5539L26.8086 41.4752C18.0184 40.5236 11.2086 33.2392 11.2086 24.29Z" fill="white"/>
<path d="M15.5647 24.2899C15.5647 17.0055 21.1081 10.9866 28.2351 10.1161L28.1556 10.0366C20.3942 10.2743 14.2188 16.5301 14.2188 24.2899C14.2188 32.0514 20.3942 38.3079 28.1556 38.5448L28.2351 38.4645C21.1073 37.594 15.5647 31.576 15.5647 24.2899Z" fill="white"/>
<path d="M19.7639 24.2898C19.7639 18.5898 24.0393 13.8381 29.6622 13.2045V13.125C23.5647 13.2832 18.7344 18.1939 18.7344 24.2906C18.7344 30.3881 23.6434 35.2988 29.6622 35.4578V35.3766C24.1196 34.6643 19.7639 29.993 19.7639 24.2898Z" fill="white"/>
<path d="M147.667 47.62C146.057 47.62 144.867 46.49 144.867 44.85V44.83C144.867 43.3 145.957 42.04 147.517 42.04C149.307 42.04 150.127 43.43 150.127 44.95C150.127 45.07 150.117 45.21 150.107 45.35H146.377C146.527 46.04 147.007 46.4 147.687 46.4C148.197 46.4 148.567 46.24 148.987 45.85L149.857 46.62C149.357 47.24 148.637 47.62 147.667 47.62ZM146.357 44.4H148.647C148.557 43.72 148.157 43.26 147.517 43.26C146.887 43.26 146.477 43.71 146.357 44.4Z" fill="#F26334"/>
<path d="M139.096 47.5V42.14H140.616V42.9C140.966 42.45 141.416 42.04 142.186 42.04C143.336 42.04 144.006 42.8 144.006 44.03V47.5H142.486V44.51C142.486 43.79 142.146 43.42 141.566 43.42C140.986 43.42 140.616 43.79 140.616 44.51V47.5H139.096Z" fill="#F26334"/>
<path d="M136.309 41.55V40.2H137.909V41.55H136.309ZM136.349 47.5V42.14H137.869V47.5H136.349Z" fill="#F26334"/>
<path d="M132.113 47.54L130.003 42.14H131.613L132.813 45.73L134.023 42.14H135.603L133.493 47.54H132.113Z" fill="#F26334"/>
<path d="M126.975 47.62C125.315 47.62 124.085 46.39 124.085 44.85V44.83C124.085 43.29 125.325 42.04 126.995 42.04C128.655 42.04 129.885 43.27 129.885 44.81V44.83C129.885 46.37 128.645 47.62 126.975 47.62ZM126.995 46.31C127.865 46.31 128.385 45.64 128.385 44.85V44.83C128.385 44.04 127.815 43.35 126.975 43.35C126.105 43.35 125.585 44.02 125.585 44.81V44.83C125.585 45.62 126.155 46.31 126.995 46.31Z" fill="#F26334"/>
<path d="M120.197 49.12C119.327 49.12 118.507 48.92 117.827 48.56L118.347 47.42C118.897 47.73 119.447 47.91 120.157 47.91C121.197 47.91 121.687 47.41 121.687 46.45V46.19C121.237 46.73 120.747 47.06 119.937 47.06C118.687 47.06 117.557 46.15 117.557 44.56V44.54C117.557 42.94 118.707 42.04 119.937 42.04C120.767 42.04 121.257 42.39 121.667 42.84V42.14H123.187V46.29C123.187 47.25 122.957 47.95 122.507 48.4C122.007 48.9 121.237 49.12 120.197 49.12ZM120.377 45.8C121.117 45.8 121.687 45.29 121.687 44.56V44.54C121.687 43.81 121.117 43.3 120.377 43.3C119.637 43.3 119.077 43.81 119.077 44.54V44.56C119.077 45.3 119.637 45.8 120.377 45.8Z" fill="#F26334"/>
<path d="M114.404 47.62C112.794 47.62 111.604 46.49 111.604 44.85V44.83C111.604 43.3 112.694 42.04 114.254 42.04C116.044 42.04 116.864 43.43 116.864 44.95C116.864 45.07 116.854 45.21 116.844 45.35H113.114C113.264 46.04 113.744 46.4 114.424 46.4C114.934 46.4 115.304 46.24 115.724 45.85L116.594 46.62C116.094 47.24 115.374 47.62 114.404 47.62ZM113.094 44.4H115.384C115.294 43.72 114.894 43.26 114.254 43.26C113.624 43.26 113.214 43.71 113.094 44.4Z" fill="#F26334"/>
<path d="M109.028 47.62C107.418 47.62 106.238 46.38 106.238 44.85V44.83C106.238 43.3 107.408 42.04 109.048 42.04C110.058 42.04 110.688 42.38 111.188 42.94L110.258 43.94C109.918 43.58 109.578 43.35 109.038 43.35C108.278 43.35 107.738 44.02 107.738 44.81V44.83C107.738 45.65 108.268 46.31 109.098 46.31C109.608 46.31 109.958 46.09 110.328 45.74L111.218 46.64C110.698 47.21 110.098 47.62 109.028 47.62Z" fill="#F26334"/>
<path d="M102.664 47.5V42.14H104.184V43.22C104.494 42.48 104.994 42 105.894 42.04V43.63H105.814C104.804 43.63 104.184 44.24 104.184 45.52V47.5H102.664Z" fill="#F26334"/>
<path d="M99.2716 47.62C97.6616 47.62 96.4716 46.49 96.4716 44.85V44.83C96.4716 43.3 97.5616 42.04 99.1216 42.04C100.912 42.04 101.732 43.43 101.732 44.95C101.732 45.07 101.722 45.21 101.712 45.35H97.9816C98.1316 46.04 98.6116 46.4 99.2916 46.4C99.8016 46.4 100.172 46.24 100.592 45.85L101.462 46.62C100.962 47.24 100.242 47.62 99.2716 47.62ZM97.9616 44.4H100.252C100.162 43.72 99.7616 43.26 99.1216 43.26C98.4916 43.26 98.0816 43.71 97.9616 44.4Z" fill="#F26334"/>
<path d="M89.4939 47.5V40.5H91.0339V43.27H93.8739V40.5H95.4139V47.5H93.8739V44.69H91.0339V47.5H89.4939Z" fill="#F26334"/>
<path d="M83.7483 41.55V40.2H85.3483V41.55H83.7483ZM83.7883 47.5V42.14H85.3083V47.5H83.7883Z" fill="#F26334"/>
<path d="M77.5274 47.62C75.9174 47.62 74.7274 46.49 74.7274 44.85V44.83C74.7274 43.3 75.8174 42.04 77.3774 42.04C79.1674 42.04 79.9874 43.43 79.9874 44.95C79.9874 45.07 79.9774 45.21 79.9674 45.35H76.2374C76.3874 46.04 76.8674 46.4 77.5474 46.4C78.0574 46.4 78.4274 46.24 78.8474 45.85L79.7174 46.62C79.2174 47.24 78.4974 47.62 77.5274 47.62ZM76.2174 44.4H78.5074C78.4174 43.72 78.0174 43.26 77.3774 43.26C76.7474 43.26 76.3374 43.71 76.2174 44.4Z" fill="#F26334"/>
<path d="M68.957 47.5V42.14H70.477V42.9C70.827 42.45 71.277 42.04 72.047 42.04C73.197 42.04 73.867 42.8 73.867 44.03V47.5H72.347V44.51C72.347 43.79 72.007 43.42 71.427 43.42C70.847 43.42 70.477 43.79 70.477 44.51V47.5H68.957Z" fill="#F26334"/>
<path d="M66.0174 47.6C65.2674 47.6 64.4274 47.35 63.7174 46.79L64.3674 45.79C64.9474 46.21 65.5574 46.43 66.0574 46.43C66.4974 46.43 66.6974 46.27 66.6974 46.03V46.01C66.6974 45.68 66.1774 45.57 65.5874 45.39C64.8374 45.17 63.9874 44.82 63.9874 43.78V43.76C63.9874 42.67 64.8674 42.06 65.9474 42.06C66.6274 42.06 67.3674 42.29 67.9474 42.68L67.3674 43.73C66.8374 43.42 66.3074 43.23 65.9174 43.23C65.5474 43.23 65.3574 43.39 65.3574 43.6V43.62C65.3574 43.92 65.8674 44.06 66.4474 44.26C67.1974 44.51 68.0674 44.87 68.0674 45.85V45.87C68.0674 47.06 67.1774 47.6 66.0174 47.6Z" fill="#F26334"/>
<path d="M60.3268 47.62C58.6668 47.62 57.4368 46.39 57.4368 44.85V44.83C57.4368 43.29 58.6768 42.04 60.3468 42.04C62.0068 42.04 63.2368 43.27 63.2368 44.81V44.83C63.2368 46.37 61.9968 47.62 60.3268 47.62ZM60.3468 46.31C61.2168 46.31 61.7368 45.64 61.7368 44.85V44.83C61.7368 44.04 61.1668 43.35 60.3268 43.35C59.4568 43.35 58.9368 44.02 58.9368 44.81V44.83C58.9368 45.62 59.5068 46.31 60.3468 46.31Z" fill="#F26334"/>
<path d="M50.84 47.5V40.5H54.09C54.89 40.5 55.52 40.72 55.92 41.12C56.24 41.44 56.4 41.83 56.4 42.31V42.33C56.4 43.12 55.98 43.56 55.48 43.84C56.29 44.15 56.79 44.62 56.79 45.56V45.58C56.79 46.86 55.75 47.5 54.17 47.5H50.84ZM54.87 42.59V42.57C54.87 42.11 54.51 41.85 53.86 41.85H52.34V43.33H53.76C54.44 43.33 54.87 43.11 54.87 42.59ZM55.26 45.37C55.26 44.9 54.91 44.61 54.12 44.61H52.34V46.15H54.17C54.85 46.15 55.26 45.91 55.26 45.39V45.37Z" fill="#F26334"/>
</svg>
