<svg width="102" height="50" viewBox="0 0 102 50" fill="none" xmlns="http://www.w3.org/2000/svg">
<path d="M58.8017 30.7844V29.2008H55.8721V17.1631H54.4476L50.5664 18.7467L50.9623 20.4885L53.9713 19.3008V29.2H50.6443V30.7836L58.8017 30.7844Z" fill="#002C6C"/>
<path d="M48.8245 24.2899C48.8245 37.1981 38.2917 47.6505 25.3056 47.6505C12.3179 47.6505 1.78516 37.1981 1.78516 24.2899C1.86384 11.3817 12.3188 0.929199 25.3056 0.929199C38.2925 0.929199 48.8245 11.3817 48.8245 24.2899Z" fill="#002C6C"/>
<path d="M30.1374 17.2432C26.6538 17.2432 24.0391 20.094 24.0391 23.9743V24.1325C24.0391 28.1702 26.4956 30.8637 30.0579 30.8637C32.0374 30.8637 33.5423 30.071 34.4923 29.3571V23.5776H29.9784V25.003H32.9079V28.4079L32.8292 28.4874C32.1161 28.962 31.1669 29.2784 30.2161 29.2784C27.6022 29.2784 25.9391 27.2202 25.9391 24.053V23.9743C25.9391 21.044 27.6817 18.8268 30.1366 18.8268C31.562 18.8268 32.4333 19.3014 33.1456 19.935L34.1759 18.5899C32.9079 17.6391 31.721 17.2432 30.1374 17.2432Z" fill="white"/>
<path d="M37.0234 29.0428C38.3693 30.2288 39.9529 30.7846 41.6161 30.7846C44.1505 30.7846 45.8128 29.2788 45.8128 27.0616C45.8128 25.2411 44.8636 24.2116 42.2505 23.2616C39.8751 22.3108 39.2415 21.7575 39.2415 20.6485C39.2415 19.5395 40.1923 18.7477 41.5382 18.7477C42.489 18.7477 43.5161 19.1436 44.5456 19.9354L45.5767 18.5903C44.4677 17.6395 43.121 17.1641 41.6161 17.1641C39.1611 17.1641 37.4988 18.6682 37.4988 20.7272C37.4988 22.8657 38.8447 23.737 41.3013 24.6862C43.4374 25.4788 44.1513 26.0337 44.1513 27.1436C44.1513 28.3305 43.121 29.2018 41.6972 29.2018C40.1128 29.2018 38.9259 28.4091 38.1333 27.6968L37.0234 29.0428Z" fill="white"/>
<path d="M43.2812 4.9686C43.2812 3.7022 44.3083 2.67188 45.5772 2.67188C46.8444 2.67188 47.8731 3.7022 47.8731 4.9686C47.8731 6.23499 46.8444 7.2645 45.5772 7.2645C44.3083 7.2645 43.2812 6.23499 43.2812 4.9686ZM47.3976 4.9686C47.3976 3.93909 46.605 3.14647 45.5763 3.14647C44.5452 3.14647 43.7542 3.93827 43.7542 4.9686C43.7542 5.99729 44.5452 6.78991 45.5763 6.78991C46.605 6.78991 47.3976 5.99729 47.3976 4.9686ZM44.7042 3.85876H45.7345C46.2091 3.85876 46.605 4.09647 46.605 4.57188C46.605 4.88909 46.4476 5.12597 46.1304 5.28499L46.6837 6.07679H46.0517L45.5772 5.3645H45.2599V6.07679H44.7042V3.85876ZM45.7345 4.88909C45.9731 4.88909 46.1304 4.73089 46.1304 4.57188C46.1304 4.41286 45.9731 4.25466 45.7345 4.25466H45.2599V4.88827L45.7345 4.88909Z" fill="#002C6C"/>
<path d="M6.6168 24.2901C6.6168 13.6 14.8529 4.8893 25.3865 4.01798V3.93848C14.0611 3.93848 4.875 13.045 4.875 24.2901C4.875 35.536 14.0611 44.6426 25.307 44.6426V44.5639C14.8529 43.6918 6.6168 34.9016 6.6168 24.2901Z" fill="white"/>
<path d="M11.2086 24.29C11.2086 15.3416 18.0193 7.97768 26.8086 7.10636L26.7299 7.02686C17.3061 7.18505 9.625 14.867 9.625 24.29C9.625 33.7146 17.2266 41.3965 26.7299 41.5539L26.8086 41.4752C18.0184 40.5236 11.2086 33.2392 11.2086 24.29Z" fill="white"/>
<path d="M15.5647 24.2899C15.5647 17.0055 21.1081 10.9866 28.2351 10.1161L28.1556 10.0366C20.3942 10.2743 14.2188 16.5301 14.2188 24.2899C14.2188 32.0514 20.3942 38.3079 28.1556 38.5448L28.2351 38.4645C21.1073 37.594 15.5647 31.576 15.5647 24.2899Z" fill="white"/>
<path d="M19.7639 24.2898C19.7639 18.5898 24.0393 13.8381 29.6622 13.2045V13.125C23.5647 13.2832 18.7344 18.1939 18.7344 24.2906C18.7344 30.3881 23.6434 35.2988 29.6622 35.4578V35.3766C24.1196 34.6643 19.7639 29.993 19.7639 24.2898Z" fill="white"/>
<path d="M82.5137 47.6C81.5037 47.6 80.6737 47.02 80.6737 45.96V45.94C80.6737 44.77 81.5637 44.23 82.8337 44.23C83.3737 44.23 83.7637 44.32 84.1437 44.45V44.36C84.1437 43.73 83.7537 43.38 82.9937 43.38C82.4137 43.38 82.0037 43.49 81.5137 43.67L81.1337 42.51C81.7237 42.25 82.3037 42.08 83.2137 42.08C84.0437 42.08 84.6437 42.3 85.0237 42.68C85.4237 43.08 85.6037 43.67 85.6037 44.39V47.5H84.1337V46.92C83.7637 47.33 83.2537 47.6 82.5137 47.6ZM82.9737 46.55C83.6837 46.55 84.1637 46.16 84.1637 45.61V45.34C83.9037 45.22 83.5637 45.14 83.1937 45.14C82.5437 45.14 82.1437 45.4 82.1437 45.88V45.9C82.1437 46.31 82.4837 46.55 82.9737 46.55Z" fill="#F26334"/>
<path d="M78.2061 41.55V40.2H79.8061V41.55H78.2061ZM78.2461 47.5V42.14H79.7661V47.5H78.2461Z" fill="#F26334"/>
<path d="M72.1456 47.5V42.14H73.6656V42.9C74.0156 42.45 74.4656 42.04 75.2356 42.04C76.3856 42.04 77.0556 42.8 77.0556 44.03V47.5H75.5356V44.51C75.5356 43.79 75.1956 43.42 74.6156 43.42C74.0356 43.42 73.6656 43.79 73.6656 44.51V47.5H72.1456Z" fill="#F26334"/>
<path d="M68.335 47.62C66.675 47.62 65.445 46.39 65.445 44.85V44.83C65.445 43.29 66.685 42.04 68.355 42.04C70.015 42.04 71.245 43.27 71.245 44.81V44.83C71.245 46.37 70.005 47.62 68.335 47.62ZM68.355 46.31C69.225 46.31 69.745 45.64 69.745 44.85V44.83C69.745 44.04 69.175 43.35 68.335 43.35C67.465 43.35 66.945 44.02 66.945 44.81V44.83C66.945 45.62 67.515 46.31 68.355 46.31Z" fill="#F26334"/>
<path d="M63.7111 47.59C62.7811 47.59 62.1511 47.22 62.1511 45.98V43.44H61.5111V42.14H62.1511V40.77H63.6711V42.14H64.9311V43.44H63.6711V45.73C63.6711 46.08 63.8211 46.25 64.1611 46.25C64.4411 46.25 64.6911 46.18 64.9111 46.06V47.28C64.5911 47.47 64.2211 47.59 63.7111 47.59Z" fill="#F26334"/>
<path d="M59.0592 47.6C58.3092 47.6 57.4692 47.35 56.7592 46.79L57.4092 45.79C57.9892 46.21 58.5992 46.43 59.0992 46.43C59.5392 46.43 59.7392 46.27 59.7392 46.03V46.01C59.7392 45.68 59.2192 45.57 58.6292 45.39C57.8792 45.17 57.0292 44.82 57.0292 43.78V43.76C57.0292 42.67 57.9092 42.06 58.9892 42.06C59.6692 42.06 60.4092 42.29 60.9892 42.68L60.4092 43.73C59.8792 43.42 59.3492 43.23 58.9592 43.23C58.5892 43.23 58.3992 43.39 58.3992 43.6V43.62C58.3992 43.92 58.9092 44.06 59.4892 44.26C60.2392 44.51 61.1092 44.87 61.1092 45.85V45.87C61.1092 47.06 60.2192 47.6 59.0592 47.6Z" fill="#F26334"/>
<path d="M50.84 47.5V40.5H56.12V41.87H52.37V43.29H55.67V44.66H52.37V46.13H56.17V47.5H50.84Z" fill="#F26334"/>
</svg>
