<svg width="98" height="50" viewBox="0 0 98 50" fill="none" xmlns="http://www.w3.org/2000/svg">
<path d="M58.8024 30.7844V29.2008H55.8729V17.1631H54.4483L50.5672 18.7467L50.9631 20.4885L53.9721 19.3008V29.2H50.645V30.7836L58.8024 30.7844Z" fill="#002C6C"/>
<path d="M48.8245 24.2899C48.8245 37.1981 38.2917 47.6505 25.3056 47.6505C12.3179 47.6505 1.78516 37.1981 1.78516 24.2899C1.86384 11.3817 12.3188 0.929199 25.3056 0.929199C38.2925 0.929199 48.8245 11.3817 48.8245 24.2899Z" fill="#002C6C"/>
<path d="M30.1359 17.2431C26.6523 17.2431 24.0376 20.094 24.0376 23.9743V24.1325C24.0376 28.1702 26.4941 30.8636 30.0564 30.8636C32.0359 30.8636 33.5409 30.071 34.4909 29.3571V23.5776H29.9769V25.003H32.9064V28.4079L32.8277 28.4874C32.1146 28.962 31.1654 29.2784 30.2146 29.2784C27.6007 29.2784 25.9376 27.2202 25.9376 24.053V23.9743C25.9376 21.044 27.6802 18.8267 30.1351 18.8267C31.5605 18.8267 32.4318 19.3013 33.1441 19.9349L34.1745 18.5899C32.9064 17.639 31.7195 17.2431 30.1359 17.2431Z" fill="white"/>
<path d="M37.0254 29.0426C38.3713 30.2286 39.9549 30.7844 41.618 30.7844C44.1524 30.7844 45.8147 29.2786 45.8147 27.0614C45.8147 25.2409 44.8655 24.2114 42.2524 23.2614C39.877 22.3106 39.2434 21.7573 39.2434 20.6483C39.2434 19.5393 40.1942 18.7475 41.5401 18.7475C42.4909 18.7475 43.518 19.1434 44.5475 19.9352L45.5786 18.5901C44.4696 17.6393 43.1229 17.1639 41.618 17.1639C39.1631 17.1639 37.5008 18.668 37.5008 20.727C37.5008 22.8655 38.8467 23.7368 41.3032 24.686C43.4393 25.4786 44.1532 26.0336 44.1532 27.1434C44.1532 28.3303 43.1229 29.2016 41.6991 29.2016C40.1147 29.2016 38.9278 28.409 38.1352 27.6967L37.0254 29.0426Z" fill="white"/>
<path d="M43.2827 4.96866C43.2827 3.70227 44.3097 2.67194 45.5786 2.67194C46.8458 2.67194 47.8745 3.70227 47.8745 4.96866C47.8745 6.23505 46.8458 7.26456 45.5786 7.26456C44.3097 7.26456 43.2827 6.23505 43.2827 4.96866ZM47.3991 4.96866C47.3991 3.93915 46.6064 3.14653 45.5777 3.14653C44.5466 3.14653 43.7556 3.93833 43.7556 4.96866C43.7556 5.99735 44.5466 6.78997 45.5777 6.78997C46.6064 6.78997 47.3991 5.99735 47.3991 4.96866ZM44.7056 3.85882H45.7359C46.2105 3.85882 46.6064 4.09653 46.6064 4.57194C46.6064 4.88915 46.4491 5.12604 46.1318 5.28505L46.6851 6.07686H46.0532L45.5786 5.36456H45.2614V6.07686H44.7056V3.85882ZM45.7359 4.88915C45.9745 4.88915 46.1318 4.73096 46.1318 4.57194C46.1318 4.41292 45.9745 4.25473 45.7359 4.25473H45.2614V4.88833L45.7359 4.88915Z" fill="#002C6C"/>
<path d="M6.61544 24.2899C6.61544 13.5997 14.8515 4.88909 25.3851 4.01778V3.93827C14.0597 3.93827 4.87364 13.0448 4.87364 24.2899C4.87364 35.5358 14.0597 44.6424 25.3056 44.6424V44.5637C14.8515 43.6915 6.61544 34.9014 6.61544 24.2899Z" fill="white"/>
<path d="M11.2089 24.2898C11.2089 15.3414 18.0195 7.97746 26.8089 7.10615L26.7302 7.02664C17.3064 7.18484 9.62526 14.8668 9.62526 24.2898C9.62526 33.7143 17.2269 41.3963 26.7302 41.5537L26.8089 41.475C18.0187 40.5234 11.2089 33.2389 11.2089 24.2898Z" fill="white"/>
<path d="M15.5646 24.2897C15.5646 17.0052 21.1081 10.9864 28.2351 10.1159L28.1556 10.0364C20.3941 10.2741 14.2187 16.5298 14.2187 24.2897C14.2187 32.0511 20.3941 38.3077 28.1556 38.5446L28.2351 38.4642C21.1072 37.5937 15.5646 31.5757 15.5646 24.2897Z" fill="white"/>
<path d="M19.7621 24.2897C19.7621 18.5897 24.0375 13.8381 29.6605 13.2045V13.125C23.5629 13.2831 18.7326 18.1938 18.7326 24.2905C18.7326 30.3881 23.6416 35.2987 29.6605 35.4577V35.3766C24.1179 34.6643 19.7621 29.993 19.7621 24.2897Z" fill="white"/>
<path d="M80.4223 47.6199C78.8123 47.6199 77.6223 46.4899 77.6223 44.8499V44.8299C77.6223 43.2999 78.7123 42.0399 80.2723 42.0399C82.0623 42.0399 82.8823 43.4299 82.8823 44.9499C82.8823 45.0699 82.8723 45.2099 82.8623 45.3499H79.1323C79.2823 46.0399 79.7623 46.3999 80.4423 46.3999C80.9523 46.3999 81.3223 46.2399 81.7423 45.8499L82.6123 46.6199C82.1123 47.2399 81.3923 47.6199 80.4223 47.6199ZM79.1123 44.3999H81.4023C81.3123 43.7199 80.9123 43.2599 80.2723 43.2599C79.6423 43.2599 79.2323 43.7099 79.1123 44.3999Z" fill="#F26334"/>
<path d="M75.0459 47.6199C73.4359 47.6199 72.2559 46.3799 72.2559 44.8499V44.8299C72.2559 43.2999 73.4259 42.0399 75.0659 42.0399C76.0759 42.0399 76.7059 42.3799 77.2059 42.9399L76.2759 43.9399C75.9359 43.5799 75.5959 43.3499 75.0559 43.3499C74.2959 43.3499 73.7559 44.0199 73.7559 44.8099V44.8299C73.7559 45.6499 74.2859 46.3099 75.1159 46.3099C75.6259 46.3099 75.9759 46.0899 76.3459 45.7399L77.2359 46.6399C76.7159 47.2099 76.1159 47.6199 75.0459 47.6199Z" fill="#F26334"/>
<path d="M66.4854 47.4999V42.1399H68.0054V42.8999C68.3554 42.4499 68.8054 42.0399 69.5754 42.0399C70.7254 42.0399 71.3954 42.7999 71.3954 44.0299V47.4999H69.8754V44.5099C69.8754 43.7899 69.5354 43.4199 68.9554 43.4199C68.3754 43.4199 68.0054 43.7899 68.0054 44.5099V47.4999H66.4854Z" fill="#F26334"/>
<path d="M62.2874 47.5999C61.2774 47.5999 60.4474 47.0199 60.4474 45.9599V45.9399C60.4474 44.7699 61.3374 44.2299 62.6074 44.2299C63.1474 44.2299 63.5374 44.3199 63.9174 44.4499V44.3599C63.9174 43.7299 63.5274 43.3799 62.7674 43.3799C62.1874 43.3799 61.7774 43.4899 61.2874 43.6699L60.9074 42.5099C61.4974 42.2499 62.0774 42.0799 62.9874 42.0799C63.8174 42.0799 64.4174 42.2999 64.7974 42.6799C65.1974 43.0799 65.3774 43.6699 65.3774 44.3899V47.4999H63.9074V46.9199C63.5374 47.3299 63.0274 47.5999 62.2874 47.5999ZM62.7474 46.5499C63.4574 46.5499 63.9374 46.1599 63.9374 45.6099V45.3399C63.6774 45.2199 63.3374 45.1399 62.9674 45.1399C62.3174 45.1399 61.9174 45.3999 61.9174 45.8799V45.8999C61.9174 46.3099 62.2574 46.5499 62.7474 46.5499Z" fill="#F26334"/>
<path d="M57.0416 47.4999V42.1399H58.5616V43.2199C58.8716 42.4799 59.3716 41.9999 60.2716 42.0399V43.6299H60.1916C59.1816 43.6299 58.5616 44.2399 58.5616 45.5199V47.4999H57.0416Z" fill="#F26334"/>
<path d="M50.8391 47.4999V40.4999H56.1691V41.8999H52.3791V43.3899H55.7191V44.7899H52.3791V47.4999H50.8391Z" fill="#F26334"/>
</svg>
