<svg width="98" height="50" viewBox="0 0 98 50" fill="none" xmlns="http://www.w3.org/2000/svg">
<path d="M58.8033 30.7846V29.201H55.8738V17.1633H54.4492L50.568 18.7469L50.9639 20.4887L53.9729 19.301V29.2002H50.6459V30.7838L58.8033 30.7846Z" fill="#002C6C"/>
<path d="M48.8254 24.2901C48.8254 37.1983 38.2926 47.6508 25.3065 47.6508C12.3188 47.6508 1.78601 37.1983 1.78601 24.2901C1.8647 11.3819 12.3196 0.929443 25.3065 0.929443C38.2934 0.929443 48.8254 11.3819 48.8254 24.2901Z" fill="#002C6C"/>
<path d="M30.1368 17.2434C26.6532 17.2434 24.0384 20.0942 24.0384 23.9745V24.1327C24.0384 28.1704 26.495 30.8639 30.0573 30.8639C32.0368 30.8639 33.5417 30.0712 34.4917 29.3573V23.5778H29.9778V25.0032H32.9073V28.4081L32.8286 28.4876C32.1155 28.9622 31.1663 29.2786 30.2155 29.2786C27.6015 29.2786 25.9384 27.2204 25.9384 24.0532V23.9745C25.9384 21.0442 27.6811 18.827 30.136 18.827C31.5614 18.827 32.4327 19.3016 33.145 19.9352L34.1753 18.5901C32.9073 17.6393 31.7204 17.2434 30.1368 17.2434Z" fill="white"/>
<path d="M37.0262 29.0428C38.3721 30.2289 39.9557 30.7846 41.6188 30.7846C44.1533 30.7846 45.8156 29.2789 45.8156 27.0617C45.8156 25.2412 44.8664 24.2117 42.2533 23.2617C39.8779 22.3109 39.2442 21.7576 39.2442 20.6486C39.2442 19.5395 40.1951 18.7477 41.541 18.7477C42.4918 18.7477 43.5188 19.1436 44.5483 19.9354L45.5795 18.5904C44.4705 17.6395 43.1238 17.1641 41.6188 17.1641C39.1639 17.1641 37.5016 18.6682 37.5016 20.7272C37.5016 22.8658 38.8475 23.7371 41.3041 24.6863C43.4401 25.4789 44.1541 26.0338 44.1541 27.1436C44.1541 28.3305 43.1238 29.2018 41.7 29.2018C40.1156 29.2018 38.9287 28.4092 38.1361 27.6969L37.0262 29.0428Z" fill="white"/>
<path d="M43.2835 4.9689C43.2835 3.70251 44.3106 2.67218 45.5794 2.67218C46.8466 2.67218 47.8753 3.70251 47.8753 4.9689C47.8753 6.2353 46.8466 7.26481 45.5794 7.26481C44.3106 7.26481 43.2835 6.2353 43.2835 4.9689ZM47.3999 4.9689C47.3999 3.9394 46.6073 3.14677 45.5786 3.14677C44.5475 3.14677 43.7565 3.93858 43.7565 4.9689C43.7565 5.99759 44.5475 6.79022 45.5786 6.79022C46.6073 6.79022 47.3999 5.99759 47.3999 4.9689ZM44.7065 3.85907H45.7368C46.2114 3.85907 46.6073 4.09677 46.6073 4.57218C46.6073 4.8894 46.4499 5.12628 46.1327 5.2853L46.686 6.0771H46.054L45.5794 5.36481H45.2622V6.0771H44.7065V3.85907ZM45.7368 4.8894C45.9753 4.8894 46.1327 4.7312 46.1327 4.57218C46.1327 4.41317 45.9753 4.25497 45.7368 4.25497H45.2622V4.88858L45.7368 4.8894Z" fill="#002C6C"/>
<path d="M6.6163 24.2902C6.6163 13.6 14.8524 4.88933 25.386 4.01802V3.93851C14.0606 3.93851 4.8745 13.0451 4.8745 24.2902C4.8745 35.5361 14.0606 44.6426 25.3065 44.6426V44.5639C14.8524 43.6918 6.6163 34.9016 6.6163 24.2902Z" fill="white"/>
<path d="M11.2097 24.29C11.2097 15.3416 18.0204 7.9777 26.8097 7.10639L26.731 7.02688C17.3073 7.18508 9.62612 14.867 9.62612 24.29C9.62612 33.7146 17.2278 41.3966 26.731 41.5539L26.8097 41.4752C18.0196 40.5236 11.2097 33.2392 11.2097 24.29Z" fill="white"/>
<path d="M15.5655 24.2899C15.5655 17.0055 21.1089 10.9866 28.236 10.1161L28.1564 10.0366C20.395 10.2743 14.2196 16.5301 14.2196 24.2899C14.2196 32.0514 20.395 38.3079 28.1564 38.5448L28.236 38.4645C21.1081 37.594 15.5655 31.576 15.5655 24.2899Z" fill="white"/>
<path d="M19.763 24.2899C19.763 18.5899 24.0384 13.8383 29.6613 13.2047V13.1252C23.5638 13.2834 18.7335 18.194 18.7335 24.2908C18.7335 30.3883 23.6425 35.299 29.6613 35.458V35.3768C24.1187 34.6645 19.763 29.9932 19.763 24.2899Z" fill="white"/>
<path d="M87.1477 47.6001C86.1377 47.6001 85.3076 47.0201 85.3076 45.9601V45.9401C85.3076 44.7701 86.1977 44.2301 87.4677 44.2301C88.0077 44.2301 88.3976 44.3201 88.7776 44.4501V44.3601C88.7776 43.7301 88.3877 43.3801 87.6277 43.3801C87.0477 43.3801 86.6377 43.4901 86.1477 43.6701L85.7677 42.5101C86.3577 42.2501 86.9377 42.0801 87.8477 42.0801C88.6777 42.0801 89.2777 42.3001 89.6577 42.6801C90.0577 43.0801 90.2377 43.6701 90.2377 44.3901V47.5001H88.7677V46.9201C88.3977 47.3301 87.8877 47.6001 87.1477 47.6001ZM87.6077 46.5501C88.3177 46.5501 88.7977 46.1601 88.7977 45.6101V45.3401C88.5377 45.2201 88.1977 45.1401 87.8277 45.1401C87.1777 45.1401 86.7776 45.4001 86.7776 45.8801V45.9001C86.7776 46.3101 87.1177 46.5501 87.6077 46.5501Z" fill="#F26334"/>
<path d="M82.8401 41.5501V40.2001H84.4401V41.5501H82.8401ZM82.8801 47.5001V42.1401H84.4001V47.5001H82.8801Z" fill="#F26334"/>
<path d="M77.0921 47.5001V40.2001H78.6121V44.0901L80.3921 42.1401H82.2121L80.1721 44.2501L82.2821 47.5001H80.5221L79.1521 45.3001L78.6121 45.8701V47.5001H77.0921Z" fill="#F26334"/>
<path d="M72.8941 47.6001C71.8841 47.6001 71.0541 47.0201 71.0541 45.9601V45.9401C71.0541 44.7701 71.9441 44.2301 73.2141 44.2301C73.7541 44.2301 74.1441 44.3201 74.5241 44.4501V44.3601C74.5241 43.7301 74.1341 43.3801 73.3741 43.3801C72.7941 43.3801 72.3841 43.4901 71.8941 43.6701L71.5141 42.5101C72.1041 42.2501 72.6841 42.0801 73.5941 42.0801C74.4241 42.0801 75.0241 42.3001 75.4041 42.6801C75.8041 43.0801 75.9841 43.6701 75.9841 44.3901V47.5001H74.5141V46.9201C74.1441 47.3301 73.6341 47.6001 72.8941 47.6001ZM73.3541 46.5501C74.0641 46.5501 74.5441 46.1601 74.5441 45.6101V45.3401C74.2841 45.2201 73.9441 45.1401 73.5741 45.1401C72.9241 45.1401 72.5241 45.4001 72.5241 45.8801V45.9001C72.5241 46.3101 72.8641 46.5501 73.3541 46.5501Z" fill="#F26334"/>
<path d="M67.4619 47.5401L65.3519 42.1401H66.9619L68.1619 45.7301L69.3719 42.1401H70.952L68.8419 47.5401H67.4619Z" fill="#F26334"/>
<path d="M62.3241 47.6201C60.6641 47.6201 59.4341 46.3901 59.4341 44.8501V44.8301C59.4341 43.2901 60.6741 42.0401 62.3441 42.0401C64.0041 42.0401 65.2341 43.2701 65.2341 44.8101V44.8301C65.2341 46.3701 63.9941 47.6201 62.3241 47.6201ZM62.3441 46.3101C63.2141 46.3101 63.7341 45.6401 63.7341 44.8501V44.8301C63.7341 44.0401 63.1641 43.3501 62.3241 43.3501C61.4541 43.3501 60.9341 44.0201 60.9341 44.8101V44.8301C60.9341 45.6201 61.5041 46.3101 62.3441 46.3101Z" fill="#F26334"/>
<path d="M56.9465 47.5001V40.2001H58.4665V47.5001H56.9465Z" fill="#F26334"/>
<path d="M53.33 47.6001C52.27 47.6001 51.2 47.2301 50.36 46.4801L51.27 45.3901C51.9 45.9101 52.56 46.2401 53.36 46.2401C53.99 46.2401 54.37 45.9901 54.37 45.5801V45.5601C54.37 45.1701 54.13 44.9701 52.96 44.6701C51.55 44.3101 50.64 43.9201 50.64 42.5301V42.5101C50.64 41.2401 51.66 40.4001 53.09 40.4001C54.11 40.4001 54.98 40.7201 55.69 41.2901L54.89 42.4501C54.27 42.0201 53.66 41.7601 53.07 41.7601C52.48 41.7601 52.17 42.0301 52.17 42.3701V42.3901C52.17 42.8501 52.47 43.0001 53.68 43.3101C55.1 43.6801 55.9 44.1901 55.9 45.4101V45.4301C55.9 46.8201 54.84 47.6001 53.33 47.6001Z" fill="#F26334"/>
</svg>
