<svg width="102" height="50" viewBox="0 0 102 50" fill="none" xmlns="http://www.w3.org/2000/svg">
<path d="M58.8017 30.7844V29.2008H55.8721V17.1631H54.4476L50.5664 18.7467L50.9623 20.4885L53.9713 19.3008V29.2H50.6443V30.7836L58.8017 30.7844Z" fill="#002C6C"/>
<path d="M48.8245 24.2899C48.8245 37.1981 38.2917 47.6505 25.3056 47.6505C12.3179 47.6505 1.78516 37.1981 1.78516 24.2899C1.86384 11.3817 12.3188 0.929199 25.3056 0.929199C38.2925 0.929199 48.8245 11.3817 48.8245 24.2899Z" fill="#002C6C"/>
<path d="M30.1374 17.2432C26.6538 17.2432 24.0391 20.094 24.0391 23.9743V24.1325C24.0391 28.1702 26.4956 30.8637 30.0579 30.8637C32.0374 30.8637 33.5423 30.071 34.4923 29.3571V23.5776H29.9784V25.003H32.9079V28.4079L32.8292 28.4874C32.1161 28.962 31.1669 29.2784 30.2161 29.2784C27.6022 29.2784 25.9391 27.2202 25.9391 24.053V23.9743C25.9391 21.044 27.6817 18.8268 30.1366 18.8268C31.562 18.8268 32.4333 19.3014 33.1456 19.935L34.1759 18.5899C32.9079 17.6391 31.721 17.2432 30.1374 17.2432Z" fill="white"/>
<path d="M37.0234 29.0428C38.3693 30.2288 39.9529 30.7846 41.6161 30.7846C44.1505 30.7846 45.8128 29.2788 45.8128 27.0616C45.8128 25.2411 44.8636 24.2116 42.2505 23.2616C39.8751 22.3108 39.2415 21.7575 39.2415 20.6485C39.2415 19.5395 40.1923 18.7477 41.5382 18.7477C42.489 18.7477 43.5161 19.1436 44.5456 19.9354L45.5767 18.5903C44.4677 17.6395 43.121 17.1641 41.6161 17.1641C39.1611 17.1641 37.4988 18.6682 37.4988 20.7272C37.4988 22.8657 38.8447 23.737 41.3013 24.6862C43.4374 25.4788 44.1513 26.0337 44.1513 27.1436C44.1513 28.3305 43.121 29.2018 41.6972 29.2018C40.1128 29.2018 38.9259 28.4091 38.1333 27.6968L37.0234 29.0428Z" fill="white"/>
<path d="M43.2812 4.9686C43.2812 3.7022 44.3083 2.67188 45.5772 2.67188C46.8444 2.67188 47.8731 3.7022 47.8731 4.9686C47.8731 6.23499 46.8444 7.2645 45.5772 7.2645C44.3083 7.2645 43.2812 6.23499 43.2812 4.9686ZM47.3976 4.9686C47.3976 3.93909 46.605 3.14647 45.5763 3.14647C44.5452 3.14647 43.7542 3.93827 43.7542 4.9686C43.7542 5.99729 44.5452 6.78991 45.5763 6.78991C46.605 6.78991 47.3976 5.99729 47.3976 4.9686ZM44.7042 3.85876H45.7345C46.2091 3.85876 46.605 4.09647 46.605 4.57188C46.605 4.88909 46.4476 5.12597 46.1304 5.28499L46.6837 6.07679H46.0517L45.5772 5.3645H45.2599V6.07679H44.7042V3.85876ZM45.7345 4.88909C45.9731 4.88909 46.1304 4.73089 46.1304 4.57188C46.1304 4.41286 45.9731 4.25466 45.7345 4.25466H45.2599V4.88827L45.7345 4.88909Z" fill="#002C6C"/>
<path d="M6.6168 24.2901C6.6168 13.6 14.8529 4.8893 25.3865 4.01798V3.93848C14.0611 3.93848 4.875 13.045 4.875 24.2901C4.875 35.536 14.0611 44.6426 25.307 44.6426V44.5639C14.8529 43.6918 6.6168 34.9016 6.6168 24.2901Z" fill="white"/>
<path d="M11.2086 24.29C11.2086 15.3416 18.0193 7.97768 26.8086 7.10636L26.7299 7.02686C17.3061 7.18505 9.625 14.867 9.625 24.29C9.625 33.7146 17.2266 41.3965 26.7299 41.5539L26.8086 41.4752C18.0184 40.5236 11.2086 33.2392 11.2086 24.29Z" fill="white"/>
<path d="M15.5647 24.2899C15.5647 17.0055 21.1081 10.9866 28.2351 10.1161L28.1556 10.0366C20.3942 10.2743 14.2188 16.5301 14.2188 24.2899C14.2188 32.0514 20.3942 38.3079 28.1556 38.5448L28.2351 38.4645C21.1073 37.594 15.5647 31.576 15.5647 24.2899Z" fill="white"/>
<path d="M19.7639 24.2898C19.7639 18.5898 24.0393 13.8381 29.6622 13.2045V13.125C23.5647 13.2832 18.7344 18.1939 18.7344 24.2906C18.7344 30.3881 23.6434 35.2988 29.6622 35.4578V35.3766C24.1196 34.6643 19.7639 29.993 19.7639 24.2898Z" fill="white"/>
<path d="M76.4246 47.6C75.4146 47.6 74.5846 47.02 74.5846 45.96V45.94C74.5846 44.77 75.4746 44.23 76.7446 44.23C77.2846 44.23 77.6746 44.32 78.0546 44.45V44.36C78.0546 43.73 77.6646 43.38 76.9046 43.38C76.3246 43.38 75.9146 43.49 75.4246 43.67L75.0446 42.51C75.6346 42.25 76.2146 42.08 77.1246 42.08C77.9546 42.08 78.5546 42.3 78.9346 42.68C79.3346 43.08 79.5146 43.67 79.5146 44.39V47.5H78.0446V46.92C77.6746 47.33 77.1646 47.6 76.4246 47.6ZM76.8846 46.55C77.5946 46.55 78.0746 46.16 78.0746 45.61V45.34C77.8146 45.22 77.4746 45.14 77.1046 45.14C76.4546 45.14 76.0546 45.4 76.0546 45.88V45.9C76.0546 46.31 76.3946 46.55 76.8846 46.55Z" fill="#F26334"/>
<path d="M72.117 41.55V40.2H73.717V41.55H72.117ZM72.157 47.5V42.14H73.677V47.5H72.157Z" fill="#F26334"/>
<path d="M67.9209 47.54L65.8109 42.14H67.4209L68.6209 45.73L69.8309 42.14H71.4109L69.3009 47.54H67.9209Z" fill="#F26334"/>
<path d="M64.1505 47.59C63.2205 47.59 62.5905 47.22 62.5905 45.98V43.44H61.9505V42.14H62.5905V40.77H64.1105V42.14H65.3705V43.44H64.1105V45.73C64.1105 46.08 64.2605 46.25 64.6005 46.25C64.8805 46.25 65.1305 46.18 65.3505 46.06V47.28C65.0305 47.47 64.6605 47.59 64.1505 47.59Z" fill="#F26334"/>
<path d="M58.1914 47.6C57.1814 47.6 56.3514 47.02 56.3514 45.96V45.94C56.3514 44.77 57.2414 44.23 58.5114 44.23C59.0514 44.23 59.4414 44.32 59.8214 44.45V44.36C59.8214 43.73 59.4314 43.38 58.6714 43.38C58.0914 43.38 57.6814 43.49 57.1914 43.67L56.8114 42.51C57.4014 42.25 57.9814 42.08 58.8914 42.08C59.7214 42.08 60.3214 42.3 60.7014 42.68C61.1014 43.08 61.2814 43.67 61.2814 44.39V47.5H59.8114V46.92C59.4414 47.33 58.9314 47.6 58.1914 47.6ZM58.6514 46.55C59.3614 46.55 59.8414 46.16 59.8414 45.61V45.34C59.5814 45.22 59.2414 45.14 58.8714 45.14C58.2214 45.14 57.8214 45.4 57.8214 45.88V45.9C57.8214 46.31 58.1614 46.55 58.6514 46.55Z" fill="#F26334"/>
<path d="M50.84 47.5V40.5H52.38V46.1H55.87V47.5H50.84Z" fill="#F26334"/>
</svg>
