<svg width="98" height="50" viewBox="0 0 98 50" fill="none" xmlns="http://www.w3.org/2000/svg">
<path d="M58.8024 30.7844V29.2008H55.8729V17.1631H54.4483L50.5672 18.7467L50.9631 20.4885L53.9721 19.3008V29.2H50.645V30.7836L58.8024 30.7844Z" fill="#002C6C"/>
<path d="M48.8245 24.2899C48.8245 37.1981 38.2917 47.6505 25.3056 47.6505C12.3179 47.6505 1.78516 37.1981 1.78516 24.2899C1.86384 11.3817 12.3188 0.929199 25.3056 0.929199C38.2925 0.929199 48.8245 11.3817 48.8245 24.2899Z" fill="#002C6C"/>
<path d="M30.1359 17.2431C26.6523 17.2431 24.0376 20.094 24.0376 23.9743V24.1325C24.0376 28.1702 26.4941 30.8636 30.0564 30.8636C32.0359 30.8636 33.5409 30.071 34.4909 29.3571V23.5776H29.9769V25.003H32.9064V28.4079L32.8277 28.4874C32.1146 28.962 31.1654 29.2784 30.2146 29.2784C27.6007 29.2784 25.9376 27.2202 25.9376 24.053V23.9743C25.9376 21.044 27.6802 18.8267 30.1351 18.8267C31.5605 18.8267 32.4318 19.3013 33.1441 19.9349L34.1745 18.5899C32.9064 17.639 31.7195 17.2431 30.1359 17.2431Z" fill="white"/>
<path d="M37.0254 29.0426C38.3713 30.2286 39.9549 30.7844 41.618 30.7844C44.1524 30.7844 45.8147 29.2786 45.8147 27.0614C45.8147 25.2409 44.8655 24.2114 42.2524 23.2614C39.877 22.3106 39.2434 21.7573 39.2434 20.6483C39.2434 19.5393 40.1942 18.7475 41.5401 18.7475C42.4909 18.7475 43.518 19.1434 44.5475 19.9352L45.5786 18.5901C44.4696 17.6393 43.1229 17.1639 41.618 17.1639C39.1631 17.1639 37.5008 18.668 37.5008 20.727C37.5008 22.8655 38.8467 23.7368 41.3032 24.686C43.4393 25.4786 44.1532 26.0336 44.1532 27.1434C44.1532 28.3303 43.1229 29.2016 41.6991 29.2016C40.1147 29.2016 38.9278 28.409 38.1352 27.6967L37.0254 29.0426Z" fill="white"/>
<path d="M43.2827 4.96866C43.2827 3.70227 44.3097 2.67194 45.5786 2.67194C46.8458 2.67194 47.8745 3.70227 47.8745 4.96866C47.8745 6.23505 46.8458 7.26456 45.5786 7.26456C44.3097 7.26456 43.2827 6.23505 43.2827 4.96866ZM47.3991 4.96866C47.3991 3.93915 46.6064 3.14653 45.5777 3.14653C44.5466 3.14653 43.7556 3.93833 43.7556 4.96866C43.7556 5.99735 44.5466 6.78997 45.5777 6.78997C46.6064 6.78997 47.3991 5.99735 47.3991 4.96866ZM44.7056 3.85882H45.7359C46.2105 3.85882 46.6064 4.09653 46.6064 4.57194C46.6064 4.88915 46.4491 5.12604 46.1318 5.28505L46.6851 6.07686H46.0532L45.5786 5.36456H45.2614V6.07686H44.7056V3.85882ZM45.7359 4.88915C45.9745 4.88915 46.1318 4.73096 46.1318 4.57194C46.1318 4.41292 45.9745 4.25473 45.7359 4.25473H45.2614V4.88833L45.7359 4.88915Z" fill="#002C6C"/>
<path d="M6.61544 24.2899C6.61544 13.5997 14.8515 4.88909 25.3851 4.01778V3.93827C14.0597 3.93827 4.87364 13.0448 4.87364 24.2899C4.87364 35.5358 14.0597 44.6424 25.3056 44.6424V44.5637C14.8515 43.6915 6.61544 34.9014 6.61544 24.2899Z" fill="white"/>
<path d="M11.2089 24.2898C11.2089 15.3414 18.0195 7.97746 26.8089 7.10615L26.7302 7.02664C17.3064 7.18484 9.62526 14.8668 9.62526 24.2898C9.62526 33.7143 17.2269 41.3963 26.7302 41.5537L26.8089 41.475C18.0187 40.5234 11.2089 33.2389 11.2089 24.2898Z" fill="white"/>
<path d="M15.5646 24.2897C15.5646 17.0052 21.1081 10.9864 28.2351 10.1159L28.1556 10.0364C20.3941 10.2741 14.2187 16.5298 14.2187 24.2897C14.2187 32.0511 20.3941 38.3077 28.1556 38.5446L28.2351 38.4642C21.1072 37.5937 15.5646 31.5757 15.5646 24.2897Z" fill="white"/>
<path d="M19.7621 24.2897C19.7621 18.5897 24.0375 13.8381 29.6605 13.2045V13.125C23.5629 13.2831 18.7326 18.1938 18.7326 24.2905C18.7326 30.3881 23.6416 35.2987 29.6605 35.4577V35.3766C24.1179 34.6643 19.7621 29.993 19.7621 24.2897Z" fill="white"/>
<path d="M83.351 47.4999V42.1399H84.871V42.8999C85.221 42.4499 85.671 42.0399 86.441 42.0399C87.591 42.0399 88.261 42.7999 88.261 44.0299V47.4999H86.741V44.5099C86.741 43.7899 86.401 43.4199 85.821 43.4199C85.241 43.4199 84.871 43.7899 84.871 44.5099V47.4999H83.351Z" fill="#F26334"/>
<path d="M79.9582 47.6199C78.3482 47.6199 77.1582 46.4899 77.1582 44.8499V44.8299C77.1582 43.2999 78.2482 42.0399 79.8082 42.0399C81.5982 42.0399 82.4182 43.4299 82.4182 44.9499C82.4182 45.0699 82.4082 45.2099 82.3982 45.3499H78.6682C78.8182 46.0399 79.2982 46.3999 79.9782 46.3999C80.4882 46.3999 80.8582 46.2399 81.2782 45.8499L82.1482 46.6199C81.6482 47.2399 80.9282 47.6199 79.9582 47.6199ZM78.6482 44.3999H80.9382C80.8482 43.7199 80.4482 43.2599 79.8082 43.2599C79.1782 43.2599 78.7682 43.7099 78.6482 44.3999Z" fill="#F26334"/>
<path d="M73.0702 47.5999C71.8202 47.5999 70.6302 46.6199 70.6302 44.8299V44.8099C70.6302 43.0199 71.8002 42.0399 73.0702 42.0399C73.8802 42.0399 74.3802 42.4099 74.7402 42.8399V40.1999H76.2602V47.4999H74.7402V46.7299C74.3702 47.2299 73.8602 47.5999 73.0702 47.5999ZM73.4602 46.3099C74.1702 46.3099 74.7602 45.7199 74.7602 44.8299V44.8099C74.7602 43.9199 74.1702 43.3299 73.4602 43.3299C72.7502 43.3299 72.1502 43.9099 72.1502 44.8099V44.8299C72.1502 45.7199 72.7502 46.3099 73.4602 46.3099Z" fill="#F26334"/>
<path d="M67.4773 47.6199C65.8673 47.6199 64.6773 46.4899 64.6773 44.8499V44.8299C64.6773 43.2999 65.7673 42.0399 67.3273 42.0399C69.1173 42.0399 69.9373 43.4299 69.9373 44.9499C69.9373 45.0699 69.9274 45.2099 69.9174 45.3499H66.1873C66.3373 46.0399 66.8173 46.3999 67.4973 46.3999C68.0073 46.3999 68.3773 46.2399 68.7973 45.8499L69.6674 46.6199C69.1674 47.2399 68.4473 47.6199 67.4773 47.6199ZM66.1674 44.3999H68.4574C68.3674 43.7199 67.9673 43.2599 67.3273 43.2599C66.6973 43.2599 66.2874 43.7099 66.1674 44.3999Z" fill="#F26334"/>
<path d="M57.988 47.5399L56.338 42.1399H57.878L58.738 45.3899L59.748 42.1199H61.058L62.078 45.3999L62.958 42.1399H64.468L62.798 47.5399H61.428L60.398 44.2499L59.348 47.5399H57.988Z" fill="#F26334"/>
<path d="M53.3291 47.5999C52.2691 47.5999 51.1991 47.2299 50.3591 46.4799L51.2691 45.3899C51.8991 45.9099 52.5591 46.2399 53.3591 46.2399C53.9891 46.2399 54.3691 45.9899 54.3691 45.5799V45.5599C54.3691 45.1699 54.1291 44.9699 52.9591 44.6699C51.5491 44.3099 50.6391 43.9199 50.6391 42.5299V42.5099C50.6391 41.2399 51.6591 40.3999 53.0891 40.3999C54.1091 40.3999 54.9791 40.7199 55.6891 41.2899L54.8891 42.4499C54.2691 42.0199 53.6591 41.7599 53.0691 41.7599C52.4791 41.7599 52.1691 42.0299 52.1691 42.3699V42.3899C52.1691 42.8499 52.4691 42.9999 53.6791 43.3099C55.0991 43.6799 55.8991 44.1899 55.8991 45.4099V45.4299C55.8991 46.8199 54.8391 47.5999 53.3291 47.5999Z" fill="#F26334"/>
</svg>
