<svg width="98" height="50" viewBox="0 0 98 50" fill="none" xmlns="http://www.w3.org/2000/svg">
<path d="M58.8024 30.7844V29.2008H55.8729V17.1631H54.4483L50.5672 18.7467L50.9631 20.4885L53.9721 19.3008V29.2H50.645V30.7836L58.8024 30.7844Z" fill="#002C6C"/>
<path d="M48.8245 24.2899C48.8245 37.1981 38.2917 47.6505 25.3056 47.6505C12.3179 47.6505 1.78516 37.1981 1.78516 24.2899C1.86384 11.3817 12.3188 0.929199 25.3056 0.929199C38.2925 0.929199 48.8245 11.3817 48.8245 24.2899Z" fill="#002C6C"/>
<path d="M30.1359 17.2431C26.6523 17.2431 24.0376 20.094 24.0376 23.9743V24.1325C24.0376 28.1702 26.4941 30.8636 30.0564 30.8636C32.0359 30.8636 33.5409 30.071 34.4909 29.3571V23.5776H29.9769V25.003H32.9064V28.4079L32.8277 28.4874C32.1146 28.962 31.1654 29.2784 30.2146 29.2784C27.6007 29.2784 25.9376 27.2202 25.9376 24.053V23.9743C25.9376 21.044 27.6802 18.8267 30.1351 18.8267C31.5605 18.8267 32.4318 19.3013 33.1441 19.9349L34.1745 18.5899C32.9064 17.639 31.7195 17.2431 30.1359 17.2431Z" fill="white"/>
<path d="M37.0254 29.0426C38.3713 30.2286 39.9549 30.7844 41.618 30.7844C44.1524 30.7844 45.8147 29.2786 45.8147 27.0614C45.8147 25.2409 44.8655 24.2114 42.2524 23.2614C39.877 22.3106 39.2434 21.7573 39.2434 20.6483C39.2434 19.5393 40.1942 18.7475 41.5401 18.7475C42.4909 18.7475 43.518 19.1434 44.5475 19.9352L45.5786 18.5901C44.4696 17.6393 43.1229 17.1639 41.618 17.1639C39.1631 17.1639 37.5008 18.668 37.5008 20.727C37.5008 22.8655 38.8467 23.7368 41.3032 24.686C43.4393 25.4786 44.1532 26.0336 44.1532 27.1434C44.1532 28.3303 43.1229 29.2016 41.6991 29.2016C40.1147 29.2016 38.9278 28.409 38.1352 27.6967L37.0254 29.0426Z" fill="white"/>
<path d="M43.2827 4.96866C43.2827 3.70227 44.3097 2.67194 45.5786 2.67194C46.8458 2.67194 47.8745 3.70227 47.8745 4.96866C47.8745 6.23505 46.8458 7.26456 45.5786 7.26456C44.3097 7.26456 43.2827 6.23505 43.2827 4.96866ZM47.3991 4.96866C47.3991 3.93915 46.6064 3.14653 45.5777 3.14653C44.5466 3.14653 43.7556 3.93833 43.7556 4.96866C43.7556 5.99735 44.5466 6.78997 45.5777 6.78997C46.6064 6.78997 47.3991 5.99735 47.3991 4.96866ZM44.7056 3.85882H45.7359C46.2105 3.85882 46.6064 4.09653 46.6064 4.57194C46.6064 4.88915 46.4491 5.12604 46.1318 5.28505L46.6851 6.07686H46.0532L45.5786 5.36456H45.2614V6.07686H44.7056V3.85882ZM45.7359 4.88915C45.9745 4.88915 46.1318 4.73096 46.1318 4.57194C46.1318 4.41292 45.9745 4.25473 45.7359 4.25473H45.2614V4.88833L45.7359 4.88915Z" fill="#002C6C"/>
<path d="M6.61544 24.2899C6.61544 13.5997 14.8515 4.88909 25.3851 4.01778V3.93827C14.0597 3.93827 4.87364 13.0448 4.87364 24.2899C4.87364 35.5358 14.0597 44.6424 25.3056 44.6424V44.5637C14.8515 43.6915 6.61544 34.9014 6.61544 24.2899Z" fill="white"/>
<path d="M11.2089 24.2898C11.2089 15.3414 18.0195 7.97746 26.8089 7.10615L26.7302 7.02664C17.3064 7.18484 9.62526 14.8668 9.62526 24.2898C9.62526 33.7143 17.2269 41.3963 26.7302 41.5537L26.8089 41.475C18.0187 40.5234 11.2089 33.2389 11.2089 24.2898Z" fill="white"/>
<path d="M15.5646 24.2897C15.5646 17.0052 21.1081 10.9864 28.2351 10.1159L28.1556 10.0364C20.3941 10.2741 14.2187 16.5298 14.2187 24.2897C14.2187 32.0511 20.3941 38.3077 28.1556 38.5446L28.2351 38.4642C21.1072 37.5937 15.5646 31.5757 15.5646 24.2897Z" fill="white"/>
<path d="M19.7621 24.2897C19.7621 18.5897 24.0375 13.8381 29.6605 13.2045V13.125C23.5629 13.2831 18.7326 18.1938 18.7326 24.2905C18.7326 30.3881 23.6416 35.2987 29.6605 35.4577V35.3766C24.1179 34.6643 19.7621 29.993 19.7621 24.2897Z" fill="white"/>
<path d="M90.4429 47.5999C89.4329 47.5999 88.6029 47.0199 88.6029 45.9599V45.9399C88.6029 44.7699 89.4929 44.2299 90.7629 44.2299C91.3029 44.2299 91.6929 44.3199 92.0729 44.4499V44.3599C92.0729 43.7299 91.6829 43.3799 90.9229 43.3799C90.3429 43.3799 89.9329 43.4899 89.4429 43.6699L89.0629 42.5099C89.6529 42.2499 90.2329 42.0799 91.1429 42.0799C91.9729 42.0799 92.5729 42.2999 92.9529 42.6799C93.3529 43.0799 93.5329 43.6699 93.5329 44.3899V47.4999H92.0629V46.9199C91.6929 47.3299 91.1829 47.5999 90.4429 47.5999ZM90.9029 46.5499C91.6129 46.5499 92.0929 46.1599 92.0929 45.6099V45.3399C91.8329 45.2199 91.4929 45.1399 91.1229 45.1399C90.4729 45.1399 90.0729 45.3999 90.0729 45.8799V45.8999C90.0729 46.3099 90.4129 46.5499 90.9029 46.5499Z" fill="#F26334"/>
<path d="M86.1353 41.5499V40.1999H87.7353V41.5499H86.1353ZM85.9753 49.1299C85.6953 49.1299 85.5253 49.1099 85.3153 49.0699V47.8799C85.4353 47.8999 85.5253 47.9099 85.6353 47.9099C85.9553 47.9099 86.1753 47.7399 86.1753 47.2899V42.1399H87.6953V47.4099C87.6953 48.5899 87.0953 49.1299 85.9753 49.1299Z" fill="#F26334"/>
<path d="M83.3177 41.5499V40.1999H84.9177V41.5499H83.3177ZM83.3577 47.4999V42.1399H84.8777V47.4999H83.3577Z" fill="#F26334"/>
<path d="M77.2573 47.4999V42.1399H78.7773V42.8999C79.1273 42.4499 79.5773 42.0399 80.3473 42.0399C81.4973 42.0399 82.1673 42.7999 82.1673 44.0299V47.4999H80.6473V44.5099C80.6473 43.7899 80.3073 43.4199 79.7273 43.4199C79.1473 43.4199 78.7773 43.7899 78.7773 44.5099V47.4999H77.2573Z" fill="#F26334"/>
<path d="M73.8645 47.6199C72.2545 47.6199 71.0645 46.4899 71.0645 44.8499V44.8299C71.0645 43.2999 72.1545 42.0399 73.7145 42.0399C75.5045 42.0399 76.3245 43.4299 76.3245 44.9499C76.3245 45.0699 76.3145 45.2099 76.3045 45.3499H72.5745C72.7245 46.0399 73.2045 46.3999 73.8845 46.3999C74.3945 46.3999 74.7645 46.2399 75.1845 45.8499L76.0545 46.6199C75.5545 47.2399 74.8345 47.6199 73.8645 47.6199ZM72.5545 44.3999H74.8445C74.7545 43.7199 74.3545 43.2599 73.7145 43.2599C73.0845 43.2599 72.6745 43.7099 72.5545 44.3999Z" fill="#F26334"/>
<path d="M67.4611 47.5399L65.3511 42.1399H66.9611L68.1611 45.7299L69.3711 42.1399H70.9511L68.8411 47.5399H67.4611Z" fill="#F26334"/>
<path d="M62.3232 47.6199C60.6632 47.6199 59.4332 46.3899 59.4332 44.8499V44.8299C59.4332 43.2899 60.6732 42.0399 62.3432 42.0399C64.0032 42.0399 65.2332 43.2699 65.2332 44.8099V44.8299C65.2332 46.3699 63.9932 47.6199 62.3232 47.6199ZM62.3432 46.3099C63.2132 46.3099 63.7332 45.6399 63.7332 44.8499V44.8299C63.7332 44.0399 63.1632 43.3499 62.3232 43.3499C61.4532 43.3499 60.9332 44.0199 60.9332 44.8099V44.8299C60.9332 45.6199 61.5032 46.3099 62.3432 46.3099Z" fill="#F26334"/>
<path d="M56.9456 47.4999V40.1999H58.4656V47.4999H56.9456Z" fill="#F26334"/>
<path d="M53.3291 47.5999C52.2691 47.5999 51.1991 47.2299 50.3591 46.4799L51.2691 45.3899C51.8991 45.9099 52.5591 46.2399 53.3591 46.2399C53.9891 46.2399 54.3691 45.9899 54.3691 45.5799V45.5599C54.3691 45.1699 54.1291 44.9699 52.9591 44.6699C51.5491 44.3099 50.6391 43.9199 50.6391 42.5299V42.5099C50.6391 41.2399 51.6591 40.3999 53.0891 40.3999C54.1091 40.3999 54.9791 40.7199 55.6891 41.2899L54.8891 42.4499C54.2691 42.0199 53.6591 41.7599 53.0691 41.7599C52.4791 41.7599 52.1691 42.0299 52.1691 42.3699V42.3899C52.1691 42.8499 52.4691 42.9999 53.6791 43.3099C55.0991 43.6799 55.8991 44.1899 55.8991 45.4099V45.4299C55.8991 46.8199 54.8391 47.5999 53.3291 47.5999Z" fill="#F26334"/>
</svg>
