<svg width="98" height="50" viewBox="0 0 98 50" fill="none" xmlns="http://www.w3.org/2000/svg">
<path d="M58.8033 30.7846V29.201H55.8738V17.1633H54.4492L50.568 18.7469L50.9639 20.4887L53.9729 19.301V29.2002H50.6459V30.7838L58.8033 30.7846Z" fill="#002C6C"/>
<path d="M48.8254 24.2901C48.8254 37.1983 38.2926 47.6508 25.3065 47.6508C12.3188 47.6508 1.78601 37.1983 1.78601 24.2901C1.8647 11.3819 12.3196 0.929443 25.3065 0.929443C38.2934 0.929443 48.8254 11.3819 48.8254 24.2901Z" fill="#002C6C"/>
<path d="M30.1368 17.2434C26.6532 17.2434 24.0384 20.0942 24.0384 23.9745V24.1327C24.0384 28.1704 26.495 30.8639 30.0573 30.8639C32.0368 30.8639 33.5417 30.0712 34.4917 29.3573V23.5778H29.9778V25.0032H32.9073V28.4081L32.8286 28.4876C32.1155 28.9622 31.1663 29.2786 30.2155 29.2786C27.6015 29.2786 25.9384 27.2204 25.9384 24.0532V23.9745C25.9384 21.0442 27.6811 18.827 30.136 18.827C31.5614 18.827 32.4327 19.3016 33.145 19.9352L34.1753 18.5901C32.9073 17.6393 31.7204 17.2434 30.1368 17.2434Z" fill="white"/>
<path d="M37.0262 29.0428C38.3721 30.2289 39.9557 30.7846 41.6188 30.7846C44.1533 30.7846 45.8156 29.2789 45.8156 27.0617C45.8156 25.2412 44.8664 24.2117 42.2533 23.2617C39.8779 22.3109 39.2442 21.7576 39.2442 20.6486C39.2442 19.5395 40.1951 18.7477 41.541 18.7477C42.4918 18.7477 43.5188 19.1436 44.5483 19.9354L45.5795 18.5904C44.4705 17.6395 43.1238 17.1641 41.6188 17.1641C39.1639 17.1641 37.5016 18.6682 37.5016 20.7272C37.5016 22.8658 38.8475 23.7371 41.3041 24.6863C43.4401 25.4789 44.1541 26.0338 44.1541 27.1436C44.1541 28.3305 43.1238 29.2018 41.7 29.2018C40.1156 29.2018 38.9287 28.4092 38.1361 27.6969L37.0262 29.0428Z" fill="white"/>
<path d="M43.2835 4.9689C43.2835 3.70251 44.3106 2.67218 45.5794 2.67218C46.8466 2.67218 47.8753 3.70251 47.8753 4.9689C47.8753 6.2353 46.8466 7.26481 45.5794 7.26481C44.3106 7.26481 43.2835 6.2353 43.2835 4.9689ZM47.3999 4.9689C47.3999 3.9394 46.6073 3.14677 45.5786 3.14677C44.5475 3.14677 43.7565 3.93858 43.7565 4.9689C43.7565 5.99759 44.5475 6.79022 45.5786 6.79022C46.6073 6.79022 47.3999 5.99759 47.3999 4.9689ZM44.7065 3.85907H45.7368C46.2114 3.85907 46.6073 4.09677 46.6073 4.57218C46.6073 4.8894 46.4499 5.12628 46.1327 5.2853L46.686 6.0771H46.054L45.5794 5.36481H45.2622V6.0771H44.7065V3.85907ZM45.7368 4.8894C45.9753 4.8894 46.1327 4.7312 46.1327 4.57218C46.1327 4.41317 45.9753 4.25497 45.7368 4.25497H45.2622V4.88858L45.7368 4.8894Z" fill="#002C6C"/>
<path d="M6.6163 24.2902C6.6163 13.6 14.8524 4.88933 25.386 4.01802V3.93851C14.0606 3.93851 4.8745 13.0451 4.8745 24.2902C4.8745 35.5361 14.0606 44.6426 25.3065 44.6426V44.5639C14.8524 43.6918 6.6163 34.9016 6.6163 24.2902Z" fill="white"/>
<path d="M11.2097 24.29C11.2097 15.3416 18.0204 7.9777 26.8097 7.10639L26.731 7.02688C17.3073 7.18508 9.62612 14.867 9.62612 24.29C9.62612 33.7146 17.2278 41.3966 26.731 41.5539L26.8097 41.4752C18.0196 40.5236 11.2097 33.2392 11.2097 24.29Z" fill="white"/>
<path d="M15.5655 24.2899C15.5655 17.0055 21.1089 10.9866 28.236 10.1161L28.1564 10.0366C20.395 10.2743 14.2196 16.5301 14.2196 24.2899C14.2196 32.0514 20.395 38.3079 28.1564 38.5448L28.236 38.4645C21.1081 37.594 15.5655 31.576 15.5655 24.2899Z" fill="white"/>
<path d="M19.763 24.2899C19.763 18.5899 24.0384 13.8383 29.6613 13.2047V13.1252C23.5638 13.2834 18.7335 18.194 18.7335 24.2908C18.7335 30.3883 23.6425 35.299 29.6613 35.458V35.3768C24.1187 34.6645 19.763 29.9932 19.763 24.2899Z" fill="white"/>
<path d="M84.8913 45.7901L86.0613 42.1401H87.6413L85.5813 47.6301C85.1713 48.7201 84.7313 49.1301 83.8213 49.1301C83.2713 49.1301 82.8613 48.9901 82.4713 48.7601L82.9813 47.6601C83.1813 47.7801 83.4313 47.8701 83.6313 47.8701C83.8913 47.8701 84.0313 47.7901 84.1613 47.5201L82.0613 42.1401H83.6713L84.8913 45.7901Z" fill="#F26334"/>
<path d="M78.5387 47.6001C77.5287 47.6001 76.6987 47.0201 76.6987 45.9601V45.9401C76.6987 44.7701 77.5887 44.2301 78.8587 44.2301C79.3987 44.2301 79.7887 44.3201 80.1687 44.4501V44.3601C80.1687 43.7301 79.7787 43.3801 79.0187 43.3801C78.4387 43.3801 78.0287 43.4901 77.5387 43.6701L77.1587 42.5101C77.7487 42.2501 78.3287 42.0801 79.2387 42.0801C80.0687 42.0801 80.6687 42.3001 81.0487 42.6801C81.4487 43.0801 81.6287 43.6701 81.6287 44.3901V47.5001H80.1587V46.9201C79.7887 47.3301 79.2787 47.6001 78.5387 47.6001ZM78.9987 46.5501C79.7087 46.5501 80.1887 46.1601 80.1887 45.6101V45.3401C79.9287 45.2201 79.5887 45.1401 79.2187 45.1401C78.5687 45.1401 78.1687 45.4001 78.1687 45.8801V45.9001C78.1687 46.3101 78.5087 46.5501 78.9987 46.5501Z" fill="#F26334"/>
<path d="M70.0107 47.5401L68.3607 42.1401H69.9007L70.7607 45.3901L71.7707 42.1201H73.0807L74.1007 45.4001L74.9807 42.1401H76.4907L74.8207 47.5401H73.4507L72.4207 44.2501L71.3707 47.5401H70.0107Z" fill="#F26334"/>
<path d="M64.821 47.5001V42.1401H66.341V43.2201C66.651 42.4801 67.151 42.0001 68.051 42.0401V43.6301H67.971C66.961 43.6301 66.341 44.2401 66.341 45.5201V47.5001H64.821Z" fill="#F26334"/>
<path d="M61.0104 47.6201C59.3504 47.6201 58.1204 46.3901 58.1204 44.8501V44.8301C58.1204 43.2901 59.3604 42.0401 61.0304 42.0401C62.6904 42.0401 63.9204 43.2701 63.9204 44.8101V44.8301C63.9204 46.3701 62.6804 47.6201 61.0104 47.6201ZM61.0304 46.3101C61.9004 46.3101 62.4204 45.6401 62.4204 44.8501V44.8301C62.4204 44.0401 61.8504 43.3501 61.0104 43.3501C60.1404 43.3501 59.6204 44.0201 59.6204 44.8101V44.8301C59.6204 45.6201 60.1904 46.3101 61.0304 46.3101Z" fill="#F26334"/>
<path d="M50.84 47.5001V40.5001H52.26L55.54 44.8101V40.5001H57.06V47.5001H55.75L52.36 43.0501V47.5001H50.84Z" fill="#F26334"/>
</svg>
