<svg width="98" height="50" viewBox="0 0 98 50" fill="none" xmlns="http://www.w3.org/2000/svg">
<path d="M58.8033 30.7844V29.2008H55.8738V17.1631H54.4492L50.568 18.7467L50.9639 20.4885L53.9729 19.3008V29.2H50.6459V30.7836L58.8033 30.7844Z" fill="#002C6C"/>
<path d="M48.8254 24.2899C48.8254 37.1981 38.2926 47.6505 25.3065 47.6505C12.3188 47.6505 1.78601 37.1981 1.78601 24.2899C1.8647 11.3817 12.3196 0.929199 25.3065 0.929199C38.2934 0.929199 48.8254 11.3817 48.8254 24.2899Z" fill="#002C6C"/>
<path d="M30.1368 17.2431C26.6532 17.2431 24.0384 20.094 24.0384 23.9743V24.1325C24.0384 28.1702 26.495 30.8636 30.0573 30.8636C32.0368 30.8636 33.5417 30.071 34.4917 29.3571V23.5776H29.9778V25.003H32.9073V28.4079L32.8286 28.4874C32.1155 28.962 31.1663 29.2784 30.2155 29.2784C27.6015 29.2784 25.9384 27.2202 25.9384 24.053V23.9743C25.9384 21.044 27.6811 18.8267 30.136 18.8267C31.5614 18.8267 32.4327 19.3013 33.145 19.9349L34.1753 18.5899C32.9073 17.639 31.7204 17.2431 30.1368 17.2431Z" fill="white"/>
<path d="M37.0262 29.0426C38.3721 30.2286 39.9557 30.7844 41.6188 30.7844C44.1533 30.7844 45.8156 29.2786 45.8156 27.0614C45.8156 25.2409 44.8664 24.2114 42.2533 23.2614C39.8779 22.3106 39.2442 21.7573 39.2442 20.6483C39.2442 19.5393 40.1951 18.7475 41.541 18.7475C42.4918 18.7475 43.5188 19.1434 44.5483 19.9352L45.5795 18.5901C44.4705 17.6393 43.1238 17.1639 41.6188 17.1639C39.1639 17.1639 37.5016 18.668 37.5016 20.727C37.5016 22.8655 38.8475 23.7368 41.3041 24.686C43.4401 25.4786 44.1541 26.0336 44.1541 27.1434C44.1541 28.3303 43.1238 29.2016 41.7 29.2016C40.1156 29.2016 38.9287 28.409 38.1361 27.6967L37.0262 29.0426Z" fill="white"/>
<path d="M43.2835 4.96866C43.2835 3.70227 44.3106 2.67194 45.5794 2.67194C46.8466 2.67194 47.8753 3.70227 47.8753 4.96866C47.8753 6.23505 46.8466 7.26456 45.5794 7.26456C44.3106 7.26456 43.2835 6.23505 43.2835 4.96866ZM47.3999 4.96866C47.3999 3.93915 46.6073 3.14653 45.5786 3.14653C44.5475 3.14653 43.7565 3.93833 43.7565 4.96866C43.7565 5.99735 44.5475 6.78997 45.5786 6.78997C46.6073 6.78997 47.3999 5.99735 47.3999 4.96866ZM44.7065 3.85882H45.7368C46.2114 3.85882 46.6073 4.09653 46.6073 4.57194C46.6073 4.88915 46.4499 5.12604 46.1327 5.28505L46.686 6.07686H46.054L45.5794 5.36456H45.2622V6.07686H44.7065V3.85882ZM45.7368 4.88915C45.9753 4.88915 46.1327 4.73096 46.1327 4.57194C46.1327 4.41292 45.9753 4.25473 45.7368 4.25473H45.2622V4.88833L45.7368 4.88915Z" fill="#002C6C"/>
<path d="M6.6163 24.2899C6.6163 13.5997 14.8524 4.88909 25.386 4.01778V3.93827C14.0606 3.93827 4.8745 13.0448 4.8745 24.2899C4.8745 35.5358 14.0606 44.6424 25.3065 44.6424V44.5637C14.8524 43.6915 6.6163 34.9014 6.6163 24.2899Z" fill="white"/>
<path d="M11.2097 24.2898C11.2097 15.3414 18.0204 7.97746 26.8097 7.10615L26.731 7.02664C17.3073 7.18484 9.62612 14.8668 9.62612 24.2898C9.62612 33.7143 17.2278 41.3963 26.731 41.5537L26.8097 41.475C18.0196 40.5234 11.2097 33.2389 11.2097 24.2898Z" fill="white"/>
<path d="M15.5655 24.2897C15.5655 17.0052 21.1089 10.9864 28.236 10.1159L28.1564 10.0364C20.395 10.2741 14.2196 16.5298 14.2196 24.2897C14.2196 32.0511 20.395 38.3077 28.1564 38.5446L28.236 38.4642C21.1081 37.5937 15.5655 31.5757 15.5655 24.2897Z" fill="white"/>
<path d="M19.763 24.2897C19.763 18.5897 24.0384 13.8381 29.6613 13.2045V13.125C23.5638 13.2831 18.7335 18.1938 18.7335 24.2905C18.7335 30.3881 23.6425 35.2987 29.6613 35.4577V35.3766C24.1187 34.6643 19.763 29.993 19.763 24.2897Z" fill="white"/>
<path d="M68.6753 45.7899L69.8453 42.1399H71.4253L69.3653 47.6299C68.9553 48.7199 68.5153 49.1299 67.6053 49.1299C67.0553 49.1299 66.6453 48.9899 66.2553 48.7599L66.7653 47.6599C66.9653 47.7799 67.2153 47.8699 67.4153 47.8699C67.6753 47.8699 67.8153 47.7899 67.9453 47.5199L65.8453 42.1399H67.4553L68.6753 45.7899Z" fill="#F26334"/>
<path d="M63.5777 47.4999V40.1999H65.0977V47.4999H63.5777Z" fill="#F26334"/>
<path d="M59.3098 47.5999C58.2998 47.5999 57.4698 47.0199 57.4698 45.9599V45.9399C57.4698 44.7699 58.3598 44.2299 59.6298 44.2299C60.1698 44.2299 60.5598 44.3199 60.9398 44.4499V44.3599C60.9398 43.7299 60.5498 43.3799 59.7898 43.3799C59.2098 43.3799 58.7998 43.4899 58.3098 43.6699L57.9298 42.5099C58.5198 42.2499 59.0998 42.0799 60.0098 42.0799C60.8398 42.0799 61.4398 42.2999 61.8198 42.6799C62.2198 43.0799 62.3998 43.6699 62.3998 44.3899V47.4999H60.9298V46.9199C60.5598 47.3299 60.0498 47.5999 59.3098 47.5999ZM59.7698 46.5499C60.4798 46.5499 60.9598 46.1599 60.9598 45.6099V45.3399C60.6998 45.2199 60.3598 45.1399 59.9898 45.1399C59.3398 45.1399 58.9398 45.3999 58.9398 45.8799V45.8999C58.9398 46.3099 59.2798 46.5499 59.7698 46.5499Z" fill="#F26334"/>
<path d="M55.6494 47.5899C54.7194 47.5899 54.0894 47.2199 54.0894 45.9799V43.4399H53.4494V42.1399H54.0894V40.7699H55.6094V42.1399H56.8694V43.4399H55.6094V45.7299C55.6094 46.0799 55.7594 46.2499 56.0994 46.2499C56.3794 46.2499 56.6294 46.1799 56.8494 46.0599V47.2799C56.5294 47.4699 56.1594 47.5899 55.6494 47.5899Z" fill="#F26334"/>
<path d="M50.91 47.4999V40.4999H52.45V47.4999H50.91Z" fill="#F26334"/>
</svg>
