<svg width="98" height="50" viewBox="0 0 98 50" fill="none" xmlns="http://www.w3.org/2000/svg">
<path d="M58.8024 30.7844V29.2008H55.8729V17.1631H54.4483L50.5672 18.7467L50.9631 20.4885L53.9721 19.3008V29.2H50.645V30.7836L58.8024 30.7844Z" fill="#002C6C"/>
<path d="M48.8245 24.2899C48.8245 37.1981 38.2917 47.6505 25.3056 47.6505C12.3179 47.6505 1.78516 37.1981 1.78516 24.2899C1.86384 11.3817 12.3188 0.929199 25.3056 0.929199C38.2925 0.929199 48.8245 11.3817 48.8245 24.2899Z" fill="#002C6C"/>
<path d="M30.1359 17.2431C26.6523 17.2431 24.0376 20.094 24.0376 23.9743V24.1325C24.0376 28.1702 26.4941 30.8636 30.0564 30.8636C32.0359 30.8636 33.5409 30.071 34.4909 29.3571V23.5776H29.9769V25.003H32.9064V28.4079L32.8277 28.4874C32.1146 28.962 31.1654 29.2784 30.2146 29.2784C27.6007 29.2784 25.9376 27.2202 25.9376 24.053V23.9743C25.9376 21.044 27.6802 18.8267 30.1351 18.8267C31.5605 18.8267 32.4318 19.3013 33.1441 19.9349L34.1745 18.5899C32.9064 17.639 31.7195 17.2431 30.1359 17.2431Z" fill="white"/>
<path d="M37.0254 29.0426C38.3713 30.2286 39.9549 30.7844 41.618 30.7844C44.1524 30.7844 45.8147 29.2786 45.8147 27.0614C45.8147 25.2409 44.8655 24.2114 42.2524 23.2614C39.877 22.3106 39.2434 21.7573 39.2434 20.6483C39.2434 19.5393 40.1942 18.7475 41.5401 18.7475C42.4909 18.7475 43.518 19.1434 44.5475 19.9352L45.5786 18.5901C44.4696 17.6393 43.1229 17.1639 41.618 17.1639C39.1631 17.1639 37.5008 18.668 37.5008 20.727C37.5008 22.8655 38.8467 23.7368 41.3032 24.686C43.4393 25.4786 44.1532 26.0336 44.1532 27.1434C44.1532 28.3303 43.1229 29.2016 41.6991 29.2016C40.1147 29.2016 38.9278 28.409 38.1352 27.6967L37.0254 29.0426Z" fill="white"/>
<path d="M43.2827 4.96866C43.2827 3.70227 44.3097 2.67194 45.5786 2.67194C46.8458 2.67194 47.8745 3.70227 47.8745 4.96866C47.8745 6.23505 46.8458 7.26456 45.5786 7.26456C44.3097 7.26456 43.2827 6.23505 43.2827 4.96866ZM47.3991 4.96866C47.3991 3.93915 46.6064 3.14653 45.5777 3.14653C44.5466 3.14653 43.7556 3.93833 43.7556 4.96866C43.7556 5.99735 44.5466 6.78997 45.5777 6.78997C46.6064 6.78997 47.3991 5.99735 47.3991 4.96866ZM44.7056 3.85882H45.7359C46.2105 3.85882 46.6064 4.09653 46.6064 4.57194C46.6064 4.88915 46.4491 5.12604 46.1318 5.28505L46.6851 6.07686H46.0532L45.5786 5.36456H45.2614V6.07686H44.7056V3.85882ZM45.7359 4.88915C45.9745 4.88915 46.1318 4.73096 46.1318 4.57194C46.1318 4.41292 45.9745 4.25473 45.7359 4.25473H45.2614V4.88833L45.7359 4.88915Z" fill="#002C6C"/>
<path d="M6.61544 24.2899C6.61544 13.5997 14.8515 4.88909 25.3851 4.01778V3.93827C14.0597 3.93827 4.87364 13.0448 4.87364 24.2899C4.87364 35.5358 14.0597 44.6424 25.3056 44.6424V44.5637C14.8515 43.6915 6.61544 34.9014 6.61544 24.2899Z" fill="white"/>
<path d="M11.2089 24.2898C11.2089 15.3414 18.0195 7.97746 26.8089 7.10615L26.7302 7.02664C17.3064 7.18484 9.62526 14.8668 9.62526 24.2898C9.62526 33.7143 17.2269 41.3963 26.7302 41.5537L26.8089 41.475C18.0187 40.5234 11.2089 33.2389 11.2089 24.2898Z" fill="white"/>
<path d="M15.5646 24.2897C15.5646 17.0052 21.1081 10.9864 28.2351 10.1159L28.1556 10.0364C20.3941 10.2741 14.2187 16.5298 14.2187 24.2897C14.2187 32.0511 20.3941 38.3077 28.1556 38.5446L28.2351 38.4642C21.1072 37.5937 15.5646 31.5757 15.5646 24.2897Z" fill="white"/>
<path d="M19.7621 24.2897C19.7621 18.5897 24.0375 13.8381 29.6605 13.2045V13.125C23.5629 13.2831 18.7326 18.1938 18.7326 24.2905C18.7326 30.3881 23.6416 35.2987 29.6605 35.4577V35.3766C24.1179 34.6643 19.7621 29.993 19.7621 24.2897Z" fill="white"/>
<path d="M91.5855 47.5999C90.5755 47.5999 89.7455 47.0199 89.7455 45.9599V45.9399C89.7455 44.7699 90.6355 44.2299 91.9055 44.2299C92.4455 44.2299 92.8355 44.3199 93.2155 44.4499V44.3599C93.2155 43.7299 92.8255 43.3799 92.0655 43.3799C91.4855 43.3799 91.0755 43.4899 90.5855 43.6699L90.2055 42.5099C90.7955 42.2499 91.3755 42.0799 92.2855 42.0799C93.1155 42.0799 93.7155 42.2999 94.0955 42.6799C94.4955 43.0799 94.6755 43.6699 94.6755 44.3899V47.4999H93.2055V46.9199C92.8355 47.3299 92.3255 47.5999 91.5855 47.5999ZM92.0455 46.5499C92.7555 46.5499 93.2355 46.1599 93.2355 45.6099V45.3399C92.9755 45.2199 92.6355 45.1399 92.2655 45.1399C91.6155 45.1399 91.2155 45.3999 91.2155 45.8799V45.8999C91.2155 46.3099 91.5555 46.5499 92.0455 46.5499Z" fill="#F26334"/>
<path d="M87.2779 41.5499V40.1999H88.8779V41.5499H87.2779ZM87.3179 47.4999V42.1399H88.8379V47.4999H87.3179Z" fill="#F26334"/>
<path d="M81.2174 47.4999V42.1399H82.7374V42.8999C83.0874 42.4499 83.5374 42.0399 84.3074 42.0399C85.4574 42.0399 86.1274 42.7999 86.1274 44.0299V47.4999H84.6074V44.5099C84.6074 43.7899 84.2674 43.4199 83.6874 43.4199C83.1074 43.4199 82.7374 43.7899 82.7374 44.5099V47.4999H81.2174Z" fill="#F26334"/>
<path d="M77.0195 47.5999C76.0095 47.5999 75.1795 47.0199 75.1795 45.9599V45.9399C75.1795 44.7699 76.0695 44.2299 77.3395 44.2299C77.8795 44.2299 78.2695 44.3199 78.6495 44.4499V44.3599C78.6495 43.7299 78.2595 43.3799 77.4995 43.3799C76.9195 43.3799 76.5095 43.4899 76.0195 43.6699L75.6395 42.5099C76.2295 42.2499 76.8095 42.0799 77.7195 42.0799C78.5495 42.0799 79.1495 42.2999 79.5295 42.6799C79.9295 43.0799 80.1095 43.6699 80.1095 44.3899V47.4999H78.6395V46.9199C78.2695 47.3299 77.7595 47.5999 77.0195 47.5999ZM77.4795 46.5499C78.1895 46.5499 78.6695 46.1599 78.6695 45.6099V45.3399C78.4095 45.2199 78.0695 45.1399 77.6995 45.1399C77.0495 45.1399 76.6495 45.3999 76.6495 45.8799V45.8999C76.6495 46.3099 76.9895 46.5499 77.4795 46.5499Z" fill="#F26334"/>
<path d="M71.249 47.5999C70.099 47.5999 69.429 46.8399 69.429 45.6099V42.1399H70.949V45.1299C70.949 45.8499 71.289 46.2199 71.869 46.2199C72.449 46.2199 72.819 45.8499 72.819 45.1299V42.1399H74.339V47.4999H72.819V46.7399C72.469 47.1899 72.019 47.5999 71.249 47.5999Z" fill="#F26334"/>
<path d="M63.4385 47.4999V40.1999H64.9585V42.8999C65.3085 42.4499 65.7585 42.0399 66.5285 42.0399C67.6785 42.0399 68.3485 42.7999 68.3485 44.0299V47.4999H66.8285V44.5099C66.8285 43.7899 66.4885 43.4199 65.9085 43.4199C65.3285 43.4199 64.9585 43.7899 64.9585 44.5099V47.4999H63.4385Z" fill="#F26334"/>
<path d="M61.2981 47.5899C60.3681 47.5899 59.7381 47.2199 59.7381 45.9799V43.4399H59.0981V42.1399H59.7381V40.7699H61.2581V42.1399H62.5181V43.4399H61.2581V45.7299C61.2581 46.0799 61.4081 46.2499 61.7481 46.2499C62.0281 46.2499 62.2781 46.1799 62.4981 46.0599V47.2799C62.1781 47.4699 61.8081 47.5899 61.2981 47.5899Z" fill="#F26334"/>
<path d="M56.7006 41.5499V40.1999H58.3006V41.5499H56.7006ZM56.7406 47.4999V42.1399H58.2606V47.4999H56.7406Z" fill="#F26334"/>
<path d="M50.8391 47.4999V40.4999H52.3791V46.0999H55.8691V47.4999H50.8391Z" fill="#F26334"/>
</svg>
