<svg width="98" height="50" viewBox="0 0 98 50" fill="none" xmlns="http://www.w3.org/2000/svg">
<path d="M58.8033 30.7846V29.201H55.8738V17.1633H54.4492L50.568 18.7469L50.9639 20.4887L53.9729 19.301V29.2002H50.6459V30.7838L58.8033 30.7846Z" fill="#002C6C"/>
<path d="M48.8254 24.2901C48.8254 37.1983 38.2926 47.6508 25.3065 47.6508C12.3188 47.6508 1.78601 37.1983 1.78601 24.2901C1.8647 11.3819 12.3196 0.929443 25.3065 0.929443C38.2934 0.929443 48.8254 11.3819 48.8254 24.2901Z" fill="#002C6C"/>
<path d="M30.1368 17.2434C26.6532 17.2434 24.0384 20.0942 24.0384 23.9745V24.1327C24.0384 28.1704 26.495 30.8639 30.0573 30.8639C32.0368 30.8639 33.5417 30.0712 34.4917 29.3573V23.5778H29.9778V25.0032H32.9073V28.4081L32.8286 28.4876C32.1155 28.9622 31.1663 29.2786 30.2155 29.2786C27.6015 29.2786 25.9384 27.2204 25.9384 24.0532V23.9745C25.9384 21.0442 27.6811 18.827 30.136 18.827C31.5614 18.827 32.4327 19.3016 33.145 19.9352L34.1753 18.5901C32.9073 17.6393 31.7204 17.2434 30.1368 17.2434Z" fill="white"/>
<path d="M37.0262 29.0428C38.3721 30.2289 39.9557 30.7846 41.6188 30.7846C44.1533 30.7846 45.8156 29.2789 45.8156 27.0617C45.8156 25.2412 44.8664 24.2117 42.2533 23.2617C39.8779 22.3109 39.2442 21.7576 39.2442 20.6486C39.2442 19.5395 40.1951 18.7477 41.541 18.7477C42.4918 18.7477 43.5188 19.1436 44.5483 19.9354L45.5795 18.5904C44.4705 17.6395 43.1238 17.1641 41.6188 17.1641C39.1639 17.1641 37.5016 18.6682 37.5016 20.7272C37.5016 22.8658 38.8475 23.7371 41.3041 24.6863C43.4401 25.4789 44.1541 26.0338 44.1541 27.1436C44.1541 28.3305 43.1238 29.2018 41.7 29.2018C40.1156 29.2018 38.9287 28.4092 38.1361 27.6969L37.0262 29.0428Z" fill="white"/>
<path d="M43.2835 4.9689C43.2835 3.70251 44.3106 2.67218 45.5794 2.67218C46.8466 2.67218 47.8753 3.70251 47.8753 4.9689C47.8753 6.2353 46.8466 7.26481 45.5794 7.26481C44.3106 7.26481 43.2835 6.2353 43.2835 4.9689ZM47.3999 4.9689C47.3999 3.9394 46.6073 3.14677 45.5786 3.14677C44.5475 3.14677 43.7565 3.93858 43.7565 4.9689C43.7565 5.99759 44.5475 6.79022 45.5786 6.79022C46.6073 6.79022 47.3999 5.99759 47.3999 4.9689ZM44.7065 3.85907H45.7368C46.2114 3.85907 46.6073 4.09677 46.6073 4.57218C46.6073 4.8894 46.4499 5.12628 46.1327 5.2853L46.686 6.0771H46.054L45.5794 5.36481H45.2622V6.0771H44.7065V3.85907ZM45.7368 4.8894C45.9753 4.8894 46.1327 4.7312 46.1327 4.57218C46.1327 4.41317 45.9753 4.25497 45.7368 4.25497H45.2622V4.88858L45.7368 4.8894Z" fill="#002C6C"/>
<path d="M6.6163 24.2902C6.6163 13.6 14.8524 4.88933 25.386 4.01802V3.93851C14.0606 3.93851 4.8745 13.0451 4.8745 24.2902C4.8745 35.5361 14.0606 44.6426 25.3065 44.6426V44.5639C14.8524 43.6918 6.6163 34.9016 6.6163 24.2902Z" fill="white"/>
<path d="M11.2097 24.29C11.2097 15.3416 18.0204 7.9777 26.8097 7.10639L26.731 7.02688C17.3073 7.18508 9.62612 14.867 9.62612 24.29C9.62612 33.7146 17.2278 41.3966 26.731 41.5539L26.8097 41.4752C18.0196 40.5236 11.2097 33.2392 11.2097 24.29Z" fill="white"/>
<path d="M15.5655 24.2899C15.5655 17.0055 21.1089 10.9866 28.236 10.1161L28.1564 10.0366C20.395 10.2743 14.2196 16.5301 14.2196 24.2899C14.2196 32.0514 20.395 38.3079 28.1564 38.5448L28.236 38.4645C21.1081 37.594 15.5655 31.576 15.5655 24.2899Z" fill="white"/>
<path d="M19.763 24.2899C19.763 18.5899 24.0384 13.8383 29.6613 13.2047V13.1252C23.5638 13.2834 18.7335 18.194 18.7335 24.2908C18.7335 30.3883 23.6425 35.299 29.6613 35.458V35.3768C24.1187 34.6645 19.763 29.9932 19.763 24.2899Z" fill="white"/>
<path d="M83.0454 47.6201C81.4354 47.6201 80.2454 46.4901 80.2454 44.8501V44.8301C80.2454 43.3001 81.3354 42.0401 82.8954 42.0401C84.6854 42.0401 85.5054 43.4301 85.5054 44.9501C85.5054 45.0701 85.4954 45.2101 85.4854 45.3501H81.7554C81.9054 46.0401 82.3854 46.4001 83.0654 46.4001C83.5754 46.4001 83.9454 46.2401 84.3654 45.8501L85.2354 46.6201C84.7354 47.2401 84.0154 47.6201 83.0454 47.6201ZM81.7354 44.4001H84.0254C83.9354 43.7201 83.5354 43.2601 82.8954 43.2601C82.2654 43.2601 81.8554 43.7101 81.7354 44.4001Z" fill="#F26334"/>
<path d="M77.362 45.7901L78.532 42.1401H80.112L78.052 47.6301C77.642 48.7201 77.202 49.1301 76.292 49.1301C75.742 49.1301 75.332 48.9901 74.942 48.7601L75.452 47.6601C75.652 47.7801 75.902 47.8701 76.102 47.8701C76.362 47.8701 76.502 47.7901 76.632 47.5201L74.532 42.1401H76.142L77.362 45.7901Z" fill="#F26334"/>
<path d="M72.2245 41.5501V40.2001H73.8245V41.5501H72.2245ZM72.2645 47.5001V42.1401H73.7845V47.5001H72.2645Z" fill="#F26334"/>
<path d="M66.4765 47.5001V40.2001H67.9965V44.0901L69.7765 42.1401H71.5965L69.5565 44.2501L71.6665 47.5001H69.9065L68.5365 45.3001L67.9965 45.8701V47.5001H66.4765Z" fill="#F26334"/>
<path d="M62.4968 47.5001V42.1401H64.0168V43.2201C64.3268 42.4801 64.8268 42.0001 65.7268 42.0401V43.6301H65.6468C64.6368 43.6301 64.0168 44.2401 64.0168 45.5201V47.5001H62.4968Z" fill="#F26334"/>
<path d="M58.2463 47.6001C57.0963 47.6001 56.4263 46.8401 56.4263 45.6101V42.1401H57.9463V45.1301C57.9463 45.8501 58.2863 46.2201 58.8663 46.2201C59.4463 46.2201 59.8163 45.8501 59.8163 45.1301V42.1401H61.3363V47.5001H59.8163V46.7401C59.4663 47.1901 59.0163 47.6001 58.2463 47.6001ZM59.1863 41.5501V40.2001H60.6463V41.5501H59.1863ZM57.1063 41.5501V40.2001H58.5663V41.5501H57.1063Z" fill="#F26334"/>
<path d="M52.47 47.5001V41.9201H50.34V40.5001H56.14V41.9201H54.01V47.5001H52.47Z" fill="#F26334"/>
</svg>
