<svg width="98" height="50" viewBox="0 0 98 50" fill="none" xmlns="http://www.w3.org/2000/svg">
<path d="M58.8024 30.7844V29.2008H55.8729V17.1631H54.4483L50.5672 18.7467L50.9631 20.4885L53.9721 19.3008V29.2H50.645V30.7836L58.8024 30.7844Z" fill="#002C6C"/>
<path d="M48.8245 24.2899C48.8245 37.1981 38.2917 47.6505 25.3056 47.6505C12.3179 47.6505 1.78516 37.1981 1.78516 24.2899C1.86384 11.3817 12.3188 0.929199 25.3056 0.929199C38.2925 0.929199 48.8245 11.3817 48.8245 24.2899Z" fill="#002C6C"/>
<path d="M30.1359 17.2431C26.6523 17.2431 24.0376 20.094 24.0376 23.9743V24.1325C24.0376 28.1702 26.4941 30.8636 30.0564 30.8636C32.0359 30.8636 33.5409 30.071 34.4909 29.3571V23.5776H29.9769V25.003H32.9064V28.4079L32.8277 28.4874C32.1146 28.962 31.1654 29.2784 30.2146 29.2784C27.6007 29.2784 25.9376 27.2202 25.9376 24.053V23.9743C25.9376 21.044 27.6802 18.8267 30.1351 18.8267C31.5605 18.8267 32.4318 19.3013 33.1441 19.9349L34.1745 18.5899C32.9064 17.639 31.7195 17.2431 30.1359 17.2431Z" fill="white"/>
<path d="M37.0254 29.0426C38.3713 30.2286 39.9549 30.7844 41.618 30.7844C44.1524 30.7844 45.8147 29.2786 45.8147 27.0614C45.8147 25.2409 44.8655 24.2114 42.2524 23.2614C39.877 22.3106 39.2434 21.7573 39.2434 20.6483C39.2434 19.5393 40.1942 18.7475 41.5401 18.7475C42.4909 18.7475 43.518 19.1434 44.5475 19.9352L45.5786 18.5901C44.4696 17.6393 43.1229 17.1639 41.618 17.1639C39.1631 17.1639 37.5008 18.668 37.5008 20.727C37.5008 22.8655 38.8467 23.7368 41.3032 24.686C43.4393 25.4786 44.1532 26.0336 44.1532 27.1434C44.1532 28.3303 43.1229 29.2016 41.6991 29.2016C40.1147 29.2016 38.9278 28.409 38.1352 27.6967L37.0254 29.0426Z" fill="white"/>
<path d="M43.2827 4.96866C43.2827 3.70227 44.3097 2.67194 45.5786 2.67194C46.8458 2.67194 47.8745 3.70227 47.8745 4.96866C47.8745 6.23505 46.8458 7.26456 45.5786 7.26456C44.3097 7.26456 43.2827 6.23505 43.2827 4.96866ZM47.3991 4.96866C47.3991 3.93915 46.6064 3.14653 45.5777 3.14653C44.5466 3.14653 43.7556 3.93833 43.7556 4.96866C43.7556 5.99735 44.5466 6.78997 45.5777 6.78997C46.6064 6.78997 47.3991 5.99735 47.3991 4.96866ZM44.7056 3.85882H45.7359C46.2105 3.85882 46.6064 4.09653 46.6064 4.57194C46.6064 4.88915 46.4491 5.12604 46.1318 5.28505L46.6851 6.07686H46.0532L45.5786 5.36456H45.2614V6.07686H44.7056V3.85882ZM45.7359 4.88915C45.9745 4.88915 46.1318 4.73096 46.1318 4.57194C46.1318 4.41292 45.9745 4.25473 45.7359 4.25473H45.2614V4.88833L45.7359 4.88915Z" fill="#002C6C"/>
<path d="M6.61544 24.2899C6.61544 13.5997 14.8515 4.88909 25.3851 4.01778V3.93827C14.0597 3.93827 4.87364 13.0448 4.87364 24.2899C4.87364 35.5358 14.0597 44.6424 25.3056 44.6424V44.5637C14.8515 43.6915 6.61544 34.9014 6.61544 24.2899Z" fill="white"/>
<path d="M11.2089 24.2898C11.2089 15.3414 18.0195 7.97746 26.8089 7.10615L26.7302 7.02664C17.3064 7.18484 9.62526 14.8668 9.62526 24.2898C9.62526 33.7143 17.2269 41.3963 26.7302 41.5537L26.8089 41.475C18.0187 40.5234 11.2089 33.2389 11.2089 24.2898Z" fill="white"/>
<path d="M15.5646 24.2897C15.5646 17.0052 21.1081 10.9864 28.2351 10.1159L28.1556 10.0364C20.3941 10.2741 14.2187 16.5298 14.2187 24.2897C14.2187 32.0511 20.3941 38.3077 28.1556 38.5446L28.2351 38.4642C21.1072 37.5937 15.5646 31.5757 15.5646 24.2897Z" fill="white"/>
<path d="M19.7621 24.2897C19.7621 18.5897 24.0375 13.8381 29.6605 13.2045V13.125C23.5629 13.2831 18.7326 18.1938 18.7326 24.2905C18.7326 30.3881 23.6416 35.2987 29.6605 35.4577V35.3766C24.1179 34.6643 19.7621 29.993 19.7621 24.2897Z" fill="white"/>
<path d="M87.1273 47.5999C86.1173 47.5999 85.2873 47.0199 85.2873 45.9599V45.9399C85.2873 44.7699 86.1773 44.2299 87.4473 44.2299C87.9873 44.2299 88.3773 44.3199 88.7573 44.4499V44.3599C88.7573 43.7299 88.3673 43.3799 87.6073 43.3799C87.0273 43.3799 86.6173 43.4899 86.1273 43.6699L85.7473 42.5099C86.3373 42.2499 86.9173 42.0799 87.8273 42.0799C88.6573 42.0799 89.2573 42.2999 89.6373 42.6799C90.0373 43.0799 90.2173 43.6699 90.2173 44.3899V47.4999H88.7473V46.9199C88.3773 47.3299 87.8673 47.5999 87.1273 47.5999ZM87.5873 46.5499C88.2973 46.5499 88.7773 46.1599 88.7773 45.6099V45.3399C88.5173 45.2199 88.1773 45.1399 87.8073 45.1399C87.1573 45.1399 86.7573 45.3999 86.7573 45.8799V45.8999C86.7573 46.3099 87.0973 46.5499 87.5873 46.5499Z" fill="#F26334"/>
<path d="M82.8197 41.5499V40.1999H84.4197V41.5499H82.8197ZM82.8597 47.4999V42.1399H84.3797V47.4999H82.8597Z" fill="#F26334"/>
<path d="M78.81 47.4999V42.1399H80.33V43.2199C80.64 42.4799 81.14 41.9999 82.04 42.0399V43.6299H81.96C80.95 43.6299 80.33 44.2399 80.33 45.5199V47.4999H78.81Z" fill="#F26334"/>
<path d="M74.612 47.5999C73.602 47.5999 72.772 47.0199 72.772 45.9599V45.9399C72.772 44.7699 73.662 44.2299 74.932 44.2299C75.472 44.2299 75.862 44.3199 76.242 44.4499V44.3599C76.242 43.7299 75.852 43.3799 75.092 43.3799C74.512 43.3799 74.102 43.4899 73.612 43.6699L73.232 42.5099C73.822 42.2499 74.402 42.0799 75.312 42.0799C76.142 42.0799 76.742 42.2999 77.122 42.6799C77.522 43.0799 77.702 43.6699 77.702 44.3899V47.4999H76.232V46.9199C75.862 47.3299 75.352 47.5999 74.612 47.5999ZM75.072 46.5499C75.782 46.5499 76.262 46.1599 76.262 45.6099V45.3399C76.002 45.2199 75.662 45.1399 75.292 45.1399C74.642 45.1399 74.242 45.3999 74.242 45.8799V45.8999C74.242 46.3099 74.582 46.5499 75.072 46.5499Z" fill="#F26334"/>
<path d="M68.944 49.1199C68.074 49.1199 67.254 48.9199 66.574 48.5599L67.094 47.4199C67.644 47.7299 68.194 47.9099 68.904 47.9099C69.944 47.9099 70.434 47.4099 70.434 46.4499V46.1899C69.984 46.7299 69.494 47.0599 68.684 47.0599C67.434 47.0599 66.304 46.1499 66.304 44.5599V44.5399C66.304 42.9399 67.454 42.0399 68.684 42.0399C69.514 42.0399 70.004 42.3899 70.414 42.8399V42.1399H71.934V46.2899C71.934 47.2499 71.704 47.9499 71.254 48.3999C70.754 48.8999 69.984 49.1199 68.944 49.1199ZM69.124 45.7999C69.864 45.7999 70.434 45.2899 70.434 44.5599V44.5399C70.434 43.8099 69.864 43.2999 69.124 43.2999C68.384 43.2999 67.824 43.8099 67.824 44.5399V44.5599C67.824 45.2999 68.384 45.7999 69.124 45.7999Z" fill="#F26334"/>
<path d="M63.7964 47.4999V40.1999H65.3164V47.4999H63.7964Z" fill="#F26334"/>
<path d="M59.4759 47.5999C58.3259 47.5999 57.6559 46.8399 57.6559 45.6099V42.1399H59.1759V45.1299C59.1759 45.8499 59.5159 46.2199 60.0959 46.2199C60.6759 46.2199 61.0459 45.8499 61.0459 45.1299V42.1399H62.5659V47.4999H61.0459V46.7399C60.6959 47.1899 60.2459 47.5999 59.4759 47.5999Z" fill="#F26334"/>
<path d="M50.8391 47.4999V40.4999H54.0891C54.8891 40.4999 55.5191 40.7199 55.9191 41.1199C56.2391 41.4399 56.3991 41.8299 56.3991 42.3099V42.3299C56.3991 43.1199 55.9791 43.5599 55.4791 43.8399C56.2891 44.1499 56.7891 44.6199 56.7891 45.5599V45.5799C56.7891 46.8599 55.7491 47.4999 54.1691 47.4999H50.8391ZM54.8691 42.5899V42.5699C54.8691 42.1099 54.5091 41.8499 53.8591 41.8499H52.3391V43.3299H53.7591C54.4391 43.3299 54.8691 43.1099 54.8691 42.5899ZM55.2591 45.3699C55.2591 44.8999 54.9091 44.6099 54.1191 44.6099H52.3391V46.1499H54.1691C54.8491 46.1499 55.2591 45.9099 55.2591 45.3899V45.3699Z" fill="#F26334"/>
</svg>
