<svg width="98" height="50" viewBox="0 0 98 50" fill="none" xmlns="http://www.w3.org/2000/svg">
<path d="M58.8017 30.7844V29.2008H55.8721V17.1631H54.4476L50.5664 18.7467L50.9623 20.4885L53.9713 19.3008V29.2H50.6443V30.7836L58.8017 30.7844Z" fill="#002C6C"/>
<path d="M48.8245 24.2899C48.8245 37.1981 38.2917 47.6505 25.3056 47.6505C12.3179 47.6505 1.78516 37.1981 1.78516 24.2899C1.86384 11.3817 12.3188 0.929199 25.3056 0.929199C38.2925 0.929199 48.8245 11.3817 48.8245 24.2899Z" fill="#002C6C"/>
<path d="M30.1374 17.2432C26.6538 17.2432 24.0391 20.094 24.0391 23.9743V24.1325C24.0391 28.1702 26.4956 30.8637 30.0579 30.8637C32.0374 30.8637 33.5423 30.071 34.4923 29.3571V23.5776H29.9784V25.003H32.9079V28.4079L32.8292 28.4874C32.1161 28.962 31.1669 29.2784 30.2161 29.2784C27.6022 29.2784 25.9391 27.2202 25.9391 24.053V23.9743C25.9391 21.044 27.6817 18.8268 30.1366 18.8268C31.562 18.8268 32.4333 19.3014 33.1456 19.935L34.1759 18.5899C32.9079 17.6391 31.721 17.2432 30.1374 17.2432Z" fill="white"/>
<path d="M37.0234 29.0428C38.3693 30.2288 39.9529 30.7846 41.6161 30.7846C44.1505 30.7846 45.8128 29.2788 45.8128 27.0616C45.8128 25.2411 44.8636 24.2116 42.2505 23.2616C39.8751 22.3108 39.2415 21.7575 39.2415 20.6485C39.2415 19.5395 40.1923 18.7477 41.5382 18.7477C42.489 18.7477 43.5161 19.1436 44.5456 19.9354L45.5767 18.5903C44.4677 17.6395 43.121 17.1641 41.6161 17.1641C39.1611 17.1641 37.4988 18.6682 37.4988 20.7272C37.4988 22.8657 38.8447 23.737 41.3013 24.6862C43.4374 25.4788 44.1513 26.0337 44.1513 27.1436C44.1513 28.3305 43.121 29.2018 41.6972 29.2018C40.1128 29.2018 38.9259 28.4091 38.1333 27.6968L37.0234 29.0428Z" fill="white"/>
<path d="M43.2812 4.9686C43.2812 3.7022 44.3083 2.67188 45.5772 2.67188C46.8444 2.67188 47.8731 3.7022 47.8731 4.9686C47.8731 6.23499 46.8444 7.2645 45.5772 7.2645C44.3083 7.2645 43.2812 6.23499 43.2812 4.9686ZM47.3976 4.9686C47.3976 3.93909 46.605 3.14647 45.5763 3.14647C44.5452 3.14647 43.7542 3.93827 43.7542 4.9686C43.7542 5.99729 44.5452 6.78991 45.5763 6.78991C46.605 6.78991 47.3976 5.99729 47.3976 4.9686ZM44.7042 3.85876H45.7345C46.2091 3.85876 46.605 4.09647 46.605 4.57188C46.605 4.88909 46.4476 5.12597 46.1304 5.28499L46.6837 6.07679H46.0517L45.5772 5.3645H45.2599V6.07679H44.7042V3.85876ZM45.7345 4.88909C45.9731 4.88909 46.1304 4.73089 46.1304 4.57188C46.1304 4.41286 45.9731 4.25466 45.7345 4.25466H45.2599V4.88827L45.7345 4.88909Z" fill="#002C6C"/>
<path d="M6.6168 24.2901C6.6168 13.6 14.8529 4.8893 25.3865 4.01798V3.93848C14.0611 3.93848 4.875 13.045 4.875 24.2901C4.875 35.536 14.0611 44.6426 25.307 44.6426V44.5639C14.8529 43.6918 6.6168 34.9016 6.6168 24.2901Z" fill="white"/>
<path d="M11.2086 24.29C11.2086 15.3416 18.0193 7.97768 26.8086 7.10636L26.7299 7.02686C17.3061 7.18505 9.625 14.867 9.625 24.29C9.625 33.7146 17.2266 41.3965 26.7299 41.5539L26.8086 41.4752C18.0184 40.5236 11.2086 33.2392 11.2086 24.29Z" fill="white"/>
<path d="M15.5647 24.2899C15.5647 17.0055 21.1081 10.9866 28.2351 10.1161L28.1556 10.0366C20.3942 10.2743 14.2188 16.5301 14.2188 24.2899C14.2188 32.0514 20.3942 38.3079 28.1556 38.5448L28.2351 38.4645C21.1073 37.594 15.5647 31.576 15.5647 24.2899Z" fill="white"/>
<path d="M19.7639 24.2898C19.7639 18.5898 24.0393 13.8381 29.6622 13.2045V13.125C23.5647 13.2832 18.7344 18.1939 18.7344 24.2906C18.7344 30.3881 23.6434 35.2988 29.6622 35.4578V35.3766C24.1196 34.6643 19.7639 29.993 19.7639 24.2898Z" fill="white"/>
<path d="M73.1676 47.6C72.1576 47.6 71.3276 47.02 71.3276 45.96V45.94C71.3276 44.77 72.2176 44.23 73.4876 44.23C74.0276 44.23 74.4176 44.32 74.7976 44.45V44.36C74.7976 43.73 74.4076 43.38 73.6476 43.38C73.0676 43.38 72.6576 43.49 72.1676 43.67L71.7876 42.51C72.3776 42.25 72.9576 42.08 73.8676 42.08C74.6976 42.08 75.2976 42.3 75.6776 42.68C76.0776 43.08 76.2576 43.67 76.2576 44.39V47.5H74.7876V46.92C74.4176 47.33 73.9076 47.6 73.1676 47.6ZM73.6276 46.55C74.3376 46.55 74.8176 46.16 74.8176 45.61V45.34C74.5576 45.22 74.2176 45.14 73.8476 45.14C73.1976 45.14 72.7976 45.4 72.7976 45.88V45.9C72.7976 46.31 73.1376 46.55 73.6276 46.55Z" fill="#F26334"/>
<path d="M69.5072 47.59C68.5772 47.59 67.9472 47.22 67.9472 45.98V43.44H67.3072V42.14H67.9472V40.77H69.4672V42.14H70.7272V43.44H69.4672V45.73C69.4672 46.08 69.6172 46.25 69.9572 46.25C70.2372 46.25 70.4872 46.18 70.7072 46.06V47.28C70.3872 47.47 70.0172 47.59 69.5072 47.59Z" fill="#F26334"/>
<path d="M64.9496 47.5V40.2H66.4696V47.5H64.9496Z" fill="#F26334"/>
<path d="M60.6816 47.6C59.6716 47.6 58.8416 47.02 58.8416 45.96V45.94C58.8416 44.77 59.7316 44.23 61.0016 44.23C61.5416 44.23 61.9316 44.32 62.3116 44.45V44.36C62.3116 43.73 61.9216 43.38 61.1616 43.38C60.5816 43.38 60.1716 43.49 59.6816 43.67L59.3016 42.51C59.8916 42.25 60.4716 42.08 61.3816 42.08C62.2116 42.08 62.8116 42.3 63.1916 42.68C63.5916 43.08 63.7716 43.67 63.7716 44.39V47.5H62.3016V46.92C61.9316 47.33 61.4216 47.6 60.6816 47.6ZM61.1416 46.55C61.8516 46.55 62.3316 46.16 62.3316 45.61V45.34C62.0716 45.22 61.7316 45.14 61.3616 45.14C60.7116 45.14 60.3116 45.4 60.3116 45.88V45.9C60.3116 46.31 60.6516 46.55 61.1416 46.55Z" fill="#F26334"/>
<path d="M50.84 47.5V40.5H52.5L54.34 43.46L56.18 40.5H57.84V47.5H56.31V42.93L54.34 45.92H54.3L52.35 42.96V47.5H50.84Z" fill="#F26334"/>
</svg>
