<svg width="102" height="50" viewBox="0 0 102 50" fill="none" xmlns="http://www.w3.org/2000/svg">
<path d="M58.8017 30.7844V29.2008H55.8721V17.1631H54.4476L50.5664 18.7467L50.9623 20.4885L53.9713 19.3008V29.2H50.6443V30.7836L58.8017 30.7844Z" fill="#002C6C"/>
<path d="M48.8245 24.2899C48.8245 37.1981 38.2917 47.6505 25.3056 47.6505C12.3179 47.6505 1.78516 37.1981 1.78516 24.2899C1.86384 11.3817 12.3188 0.929199 25.3056 0.929199C38.2925 0.929199 48.8245 11.3817 48.8245 24.2899Z" fill="#002C6C"/>
<path d="M30.1374 17.2432C26.6538 17.2432 24.0391 20.094 24.0391 23.9743V24.1325C24.0391 28.1702 26.4956 30.8637 30.0579 30.8637C32.0374 30.8637 33.5423 30.071 34.4923 29.3571V23.5776H29.9784V25.003H32.9079V28.4079L32.8292 28.4874C32.1161 28.962 31.1669 29.2784 30.2161 29.2784C27.6022 29.2784 25.9391 27.2202 25.9391 24.053V23.9743C25.9391 21.044 27.6817 18.8268 30.1366 18.8268C31.562 18.8268 32.4333 19.3014 33.1456 19.935L34.1759 18.5899C32.9079 17.6391 31.721 17.2432 30.1374 17.2432Z" fill="white"/>
<path d="M37.0234 29.0428C38.3693 30.2288 39.9529 30.7846 41.6161 30.7846C44.1505 30.7846 45.8128 29.2788 45.8128 27.0616C45.8128 25.2411 44.8636 24.2116 42.2505 23.2616C39.8751 22.3108 39.2415 21.7575 39.2415 20.6485C39.2415 19.5395 40.1923 18.7477 41.5382 18.7477C42.489 18.7477 43.5161 19.1436 44.5456 19.9354L45.5767 18.5903C44.4677 17.6395 43.121 17.1641 41.6161 17.1641C39.1611 17.1641 37.4988 18.6682 37.4988 20.7272C37.4988 22.8657 38.8447 23.737 41.3013 24.6862C43.4374 25.4788 44.1513 26.0337 44.1513 27.1436C44.1513 28.3305 43.121 29.2018 41.6972 29.2018C40.1128 29.2018 38.9259 28.4091 38.1333 27.6968L37.0234 29.0428Z" fill="white"/>
<path d="M43.2812 4.9686C43.2812 3.7022 44.3083 2.67188 45.5772 2.67188C46.8444 2.67188 47.8731 3.7022 47.8731 4.9686C47.8731 6.23499 46.8444 7.2645 45.5772 7.2645C44.3083 7.2645 43.2812 6.23499 43.2812 4.9686ZM47.3976 4.9686C47.3976 3.93909 46.605 3.14647 45.5763 3.14647C44.5452 3.14647 43.7542 3.93827 43.7542 4.9686C43.7542 5.99729 44.5452 6.78991 45.5763 6.78991C46.605 6.78991 47.3976 5.99729 47.3976 4.9686ZM44.7042 3.85876H45.7345C46.2091 3.85876 46.605 4.09647 46.605 4.57188C46.605 4.88909 46.4476 5.12597 46.1304 5.28499L46.6837 6.07679H46.0517L45.5772 5.3645H45.2599V6.07679H44.7042V3.85876ZM45.7345 4.88909C45.9731 4.88909 46.1304 4.73089 46.1304 4.57188C46.1304 4.41286 45.9731 4.25466 45.7345 4.25466H45.2599V4.88827L45.7345 4.88909Z" fill="#002C6C"/>
<path d="M6.6168 24.2901C6.6168 13.6 14.8529 4.8893 25.3865 4.01798V3.93848C14.0611 3.93848 4.875 13.045 4.875 24.2901C4.875 35.536 14.0611 44.6426 25.307 44.6426V44.5639C14.8529 43.6918 6.6168 34.9016 6.6168 24.2901Z" fill="white"/>
<path d="M11.2086 24.29C11.2086 15.3416 18.0193 7.97768 26.8086 7.10636L26.7299 7.02686C17.3061 7.18505 9.625 14.867 9.625 24.29C9.625 33.7146 17.2266 41.3965 26.7299 41.5539L26.8086 41.4752C18.0184 40.5236 11.2086 33.2392 11.2086 24.29Z" fill="white"/>
<path d="M15.5647 24.2899C15.5647 17.0055 21.1081 10.9866 28.2351 10.1161L28.1556 10.0366C20.3942 10.2743 14.2188 16.5301 14.2188 24.2899C14.2188 32.0514 20.3942 38.3079 28.1556 38.5448L28.2351 38.4645C21.1073 37.594 15.5647 31.576 15.5647 24.2899Z" fill="white"/>
<path d="M19.7639 24.2898C19.7639 18.5898 24.0393 13.8381 29.6622 13.2045V13.125C23.5647 13.2832 18.7344 18.1939 18.7344 24.2906C18.7344 30.3881 23.6434 35.2988 29.6622 35.4578V35.3766C24.1196 34.6643 19.7639 29.993 19.7639 24.2898Z" fill="white"/>
<path d="M88.7343 45.79L89.9043 42.14H91.4843L89.4243 47.63C89.0143 48.72 88.5743 49.13 87.6643 49.13C87.1143 49.13 86.7043 48.99 86.3143 48.76L86.8243 47.66C87.0243 47.78 87.2743 47.87 87.4743 47.87C87.7343 47.87 87.8743 47.79 88.0043 47.52L85.9043 42.14H87.5143L88.7343 45.79Z" fill="#F26334"/>
<path d="M82.4046 47.5V42.14H83.9246V43.22C84.2346 42.48 84.7346 42 85.6346 42.04V43.63H85.5546C84.5446 43.63 83.9246 44.24 83.9246 45.52V47.5H82.4046Z" fill="#F26334"/>
<path d="M78.2066 47.6C77.1966 47.6 76.3666 47.02 76.3666 45.96V45.94C76.3666 44.77 77.2566 44.23 78.5266 44.23C79.0666 44.23 79.4566 44.32 79.8366 44.45V44.36C79.8366 43.73 79.4466 43.38 78.6866 43.38C78.1066 43.38 77.6966 43.49 77.2066 43.67L76.8266 42.51C77.4166 42.25 77.9966 42.08 78.9066 42.08C79.7366 42.08 80.3366 42.3 80.7166 42.68C81.1166 43.08 81.2966 43.67 81.2966 44.39V47.5H79.8266V46.92C79.4566 47.33 78.9466 47.6 78.2066 47.6ZM78.6666 46.55C79.3766 46.55 79.8566 46.16 79.8566 45.61V45.34C79.5966 45.22 79.2566 45.14 78.8866 45.14C78.2366 45.14 77.8366 45.4 77.8366 45.88V45.9C77.8366 46.31 78.1766 46.55 78.6666 46.55Z" fill="#F26334"/>
<path d="M72.5386 49.12C71.6686 49.12 70.8486 48.92 70.1686 48.56L70.6886 47.42C71.2386 47.73 71.7886 47.91 72.4986 47.91C73.5386 47.91 74.0286 47.41 74.0286 46.45V46.19C73.5786 46.73 73.0886 47.06 72.2786 47.06C71.0286 47.06 69.8986 46.15 69.8986 44.56V44.54C69.8986 42.94 71.0486 42.04 72.2786 42.04C73.1086 42.04 73.5986 42.39 74.0086 42.84V42.14H75.5286V46.29C75.5286 47.25 75.2986 47.95 74.8486 48.4C74.3486 48.9 73.5786 49.12 72.5386 49.12ZM72.7186 45.8C73.4586 45.8 74.0286 45.29 74.0286 44.56V44.54C74.0286 43.81 73.4586 43.3 72.7186 43.3C71.9786 43.3 71.4186 43.81 71.4186 44.54V44.56C71.4186 45.3 71.9786 45.8 72.7186 45.8Z" fill="#F26334"/>
<path d="M64.1081 47.5V42.14H65.6281V42.9C65.9781 42.45 66.4281 42.04 67.1981 42.04C68.3481 42.04 69.0181 42.8 69.0181 44.03V47.5H67.4981V44.51C67.4981 43.79 67.1581 43.42 66.5781 43.42C65.9981 43.42 65.6281 43.79 65.6281 44.51V47.5H64.1081Z" fill="#F26334"/>
<path d="M59.8577 47.6C58.7077 47.6 58.0377 46.84 58.0377 45.61V42.14H59.5577V45.13C59.5577 45.85 59.8977 46.22 60.4777 46.22C61.0577 46.22 61.4277 45.85 61.4277 45.13V42.14H62.9477V47.5H61.4277V46.74C61.0777 47.19 60.6277 47.6 59.8577 47.6Z" fill="#F26334"/>
<path d="M50.84 47.5V40.5H52.38V43.27H55.22V40.5H56.76V47.5H55.22V44.69H52.38V47.5H50.84Z" fill="#F26334"/>
</svg>
