<svg width="98" height="50" viewBox="0 0 98 50" fill="none" xmlns="http://www.w3.org/2000/svg">
<path d="M58.8017 30.7844V29.2008H55.8721V17.1631H54.4476L50.5664 18.7467L50.9623 20.4885L53.9713 19.3008V29.2H50.6443V30.7836L58.8017 30.7844Z" fill="#002C6C"/>
<path d="M48.8245 24.2899C48.8245 37.1981 38.2917 47.6505 25.3056 47.6505C12.3179 47.6505 1.78516 37.1981 1.78516 24.2899C1.86384 11.3817 12.3188 0.929199 25.3056 0.929199C38.2925 0.929199 48.8245 11.3817 48.8245 24.2899Z" fill="#002C6C"/>
<path d="M30.1374 17.2432C26.6538 17.2432 24.0391 20.094 24.0391 23.9743V24.1325C24.0391 28.1702 26.4956 30.8637 30.0579 30.8637C32.0374 30.8637 33.5423 30.071 34.4923 29.3571V23.5776H29.9784V25.003H32.9079V28.4079L32.8292 28.4874C32.1161 28.962 31.1669 29.2784 30.2161 29.2784C27.6022 29.2784 25.9391 27.2202 25.9391 24.053V23.9743C25.9391 21.044 27.6817 18.8268 30.1366 18.8268C31.562 18.8268 32.4333 19.3014 33.1456 19.935L34.1759 18.5899C32.9079 17.6391 31.721 17.2432 30.1374 17.2432Z" fill="white"/>
<path d="M37.0234 29.0428C38.3693 30.2288 39.9529 30.7846 41.6161 30.7846C44.1505 30.7846 45.8128 29.2788 45.8128 27.0616C45.8128 25.2411 44.8636 24.2116 42.2505 23.2616C39.8751 22.3108 39.2415 21.7575 39.2415 20.6485C39.2415 19.5395 40.1923 18.7477 41.5382 18.7477C42.489 18.7477 43.5161 19.1436 44.5456 19.9354L45.5767 18.5903C44.4677 17.6395 43.121 17.1641 41.6161 17.1641C39.1611 17.1641 37.4988 18.6682 37.4988 20.7272C37.4988 22.8657 38.8447 23.737 41.3013 24.6862C43.4374 25.4788 44.1513 26.0337 44.1513 27.1436C44.1513 28.3305 43.121 29.2018 41.6972 29.2018C40.1128 29.2018 38.9259 28.4091 38.1333 27.6968L37.0234 29.0428Z" fill="white"/>
<path d="M43.2812 4.9686C43.2812 3.7022 44.3083 2.67188 45.5772 2.67188C46.8444 2.67188 47.8731 3.7022 47.8731 4.9686C47.8731 6.23499 46.8444 7.2645 45.5772 7.2645C44.3083 7.2645 43.2812 6.23499 43.2812 4.9686ZM47.3976 4.9686C47.3976 3.93909 46.605 3.14647 45.5763 3.14647C44.5452 3.14647 43.7542 3.93827 43.7542 4.9686C43.7542 5.99729 44.5452 6.78991 45.5763 6.78991C46.605 6.78991 47.3976 5.99729 47.3976 4.9686ZM44.7042 3.85876H45.7345C46.2091 3.85876 46.605 4.09647 46.605 4.57188C46.605 4.88909 46.4476 5.12597 46.1304 5.28499L46.6837 6.07679H46.0517L45.5772 5.3645H45.2599V6.07679H44.7042V3.85876ZM45.7345 4.88909C45.9731 4.88909 46.1304 4.73089 46.1304 4.57188C46.1304 4.41286 45.9731 4.25466 45.7345 4.25466H45.2599V4.88827L45.7345 4.88909Z" fill="#002C6C"/>
<path d="M6.6168 24.2901C6.6168 13.6 14.8529 4.8893 25.3865 4.01798V3.93848C14.0611 3.93848 4.875 13.045 4.875 24.2901C4.875 35.536 14.0611 44.6426 25.307 44.6426V44.5639C14.8529 43.6918 6.6168 34.9016 6.6168 24.2901Z" fill="white"/>
<path d="M11.2086 24.29C11.2086 15.3416 18.0193 7.97768 26.8086 7.10636L26.7299 7.02686C17.3061 7.18505 9.625 14.867 9.625 24.29C9.625 33.7146 17.2266 41.3965 26.7299 41.5539L26.8086 41.4752C18.0184 40.5236 11.2086 33.2392 11.2086 24.29Z" fill="white"/>
<path d="M15.5647 24.2899C15.5647 17.0055 21.1081 10.9866 28.2351 10.1161L28.1556 10.0366C20.3942 10.2743 14.2188 16.5301 14.2188 24.2899C14.2188 32.0514 20.3942 38.3079 28.1556 38.5448L28.2351 38.4645C21.1073 37.594 15.5647 31.576 15.5647 24.2899Z" fill="white"/>
<path d="M19.7639 24.2898C19.7639 18.5898 24.0393 13.8381 29.6622 13.2045V13.125C23.5647 13.2832 18.7344 18.1939 18.7344 24.2906C18.7344 30.3881 23.6434 35.2988 29.6622 35.4578V35.3766C24.1196 34.6643 19.7639 29.993 19.7639 24.2898Z" fill="white"/>
<path d="M89.2652 47.5V40.2H90.7852V44.09L92.5652 42.14H94.3851L92.3452 44.25L94.4552 47.5H92.6952L91.3251 45.3L90.7852 45.87V47.5H89.2652Z" fill="#F26334"/>
<path d="M85.2855 47.5V42.14H86.8055V43.22C87.1155 42.48 87.6155 42 88.5155 42.04V43.63H88.4355C87.4255 43.63 86.8055 44.24 86.8055 45.52V47.5H85.2855Z" fill="#F26334"/>
<path d="M81.0875 47.6C80.0775 47.6 79.2475 47.02 79.2475 45.96V45.94C79.2475 44.77 80.1375 44.23 81.4075 44.23C81.9475 44.23 82.3375 44.32 82.7175 44.45V44.36C82.7175 43.73 82.3275 43.38 81.5675 43.38C80.9875 43.38 80.5775 43.49 80.0875 43.67L79.7075 42.51C80.2975 42.25 80.8775 42.08 81.7875 42.08C82.6175 42.08 83.2175 42.3 83.5975 42.68C83.9975 43.08 84.1775 43.67 84.1775 44.39V47.5H82.7075V46.92C82.3375 47.33 81.8275 47.6 81.0875 47.6ZM81.5475 46.55C82.2575 46.55 82.7375 46.16 82.7375 45.61V45.34C82.4775 45.22 82.1375 45.14 81.7675 45.14C81.1175 45.14 80.7175 45.4 80.7175 45.88V45.9C80.7175 46.31 81.0575 46.55 81.5475 46.55Z" fill="#F26334"/>
<path d="M70.2655 47.5V42.14H71.7856V42.9C72.1356 42.45 72.5955 42.04 73.3655 42.04C74.0655 42.04 74.5955 42.35 74.8755 42.89C75.3455 42.34 75.9056 42.04 76.6356 42.04C77.7656 42.04 78.4455 42.72 78.4455 44.01V47.5H76.9256V44.51C76.9256 43.79 76.6056 43.42 76.0356 43.42C75.4656 43.42 75.1155 43.79 75.1155 44.51V47.5H73.5956V44.51C73.5956 43.79 73.2756 43.42 72.7056 43.42C72.1356 43.42 71.7856 43.79 71.7856 44.51V47.5H70.2655Z" fill="#F26334"/>
<path d="M64.2351 47.5V42.14H65.7551V42.9C66.1051 42.45 66.5551 42.04 67.3251 42.04C68.4751 42.04 69.1451 42.8 69.1451 44.03V47.5H67.6251V44.51C67.6251 43.79 67.2851 43.42 66.7051 43.42C66.1251 43.42 65.7551 43.79 65.7551 44.51V47.5H64.2351Z" fill="#F26334"/>
<path d="M60.8423 47.62C59.2323 47.62 58.0423 46.49 58.0423 44.85V44.83C58.0423 43.3 59.1323 42.04 60.6923 42.04C62.4823 42.04 63.3023 43.43 63.3023 44.95C63.3023 45.07 63.2923 45.21 63.2823 45.35H59.5523C59.7023 46.04 60.1823 46.4 60.8623 46.4C61.3723 46.4 61.7423 46.24 62.1623 45.85L63.0323 46.62C62.5323 47.24 61.8123 47.62 60.8423 47.62ZM59.5323 44.4H61.8223C61.7323 43.72 61.3323 43.26 60.6923 43.26C60.0623 43.26 59.6523 43.71 59.5323 44.4Z" fill="#F26334"/>
<path d="M50.84 47.5V40.5H53.57C55.77 40.5 57.29 42.01 57.29 43.98V44C57.29 45.97 55.77 47.5 53.57 47.5H50.84ZM53.57 41.89H52.38V46.11H53.57C54.83 46.11 55.68 45.26 55.68 44.02V44C55.68 42.76 54.83 41.89 53.57 41.89Z" fill="#F26334"/>
</svg>
