<svg width="98" height="50" viewBox="0 0 98 50" fill="none" xmlns="http://www.w3.org/2000/svg">
<path d="M58.8024 30.7844V29.2008H55.8729V17.1631H54.4483L50.5672 18.7467L50.9631 20.4885L53.9721 19.3008V29.2H50.645V30.7836L58.8024 30.7844Z" fill="#002C6C"/>
<path d="M48.8245 24.2899C48.8245 37.1981 38.2917 47.6505 25.3056 47.6505C12.3179 47.6505 1.78516 37.1981 1.78516 24.2899C1.86384 11.3817 12.3188 0.929199 25.3056 0.929199C38.2925 0.929199 48.8245 11.3817 48.8245 24.2899Z" fill="#002C6C"/>
<path d="M30.1359 17.2431C26.6523 17.2431 24.0376 20.094 24.0376 23.9743V24.1325C24.0376 28.1702 26.4941 30.8636 30.0564 30.8636C32.0359 30.8636 33.5409 30.071 34.4909 29.3571V23.5776H29.9769V25.003H32.9064V28.4079L32.8277 28.4874C32.1146 28.962 31.1654 29.2784 30.2146 29.2784C27.6007 29.2784 25.9376 27.2202 25.9376 24.053V23.9743C25.9376 21.044 27.6802 18.8267 30.1351 18.8267C31.5605 18.8267 32.4318 19.3013 33.1441 19.9349L34.1745 18.5899C32.9064 17.639 31.7195 17.2431 30.1359 17.2431Z" fill="white"/>
<path d="M37.0254 29.0426C38.3713 30.2286 39.9549 30.7844 41.618 30.7844C44.1524 30.7844 45.8147 29.2786 45.8147 27.0614C45.8147 25.2409 44.8655 24.2114 42.2524 23.2614C39.877 22.3106 39.2434 21.7573 39.2434 20.6483C39.2434 19.5393 40.1942 18.7475 41.5401 18.7475C42.4909 18.7475 43.518 19.1434 44.5475 19.9352L45.5786 18.5901C44.4696 17.6393 43.1229 17.1639 41.618 17.1639C39.1631 17.1639 37.5008 18.668 37.5008 20.727C37.5008 22.8655 38.8467 23.7368 41.3032 24.686C43.4393 25.4786 44.1532 26.0336 44.1532 27.1434C44.1532 28.3303 43.1229 29.2016 41.6991 29.2016C40.1147 29.2016 38.9278 28.409 38.1352 27.6967L37.0254 29.0426Z" fill="white"/>
<path d="M43.2827 4.96866C43.2827 3.70227 44.3097 2.67194 45.5786 2.67194C46.8458 2.67194 47.8745 3.70227 47.8745 4.96866C47.8745 6.23505 46.8458 7.26456 45.5786 7.26456C44.3097 7.26456 43.2827 6.23505 43.2827 4.96866ZM47.3991 4.96866C47.3991 3.93915 46.6064 3.14653 45.5777 3.14653C44.5466 3.14653 43.7556 3.93833 43.7556 4.96866C43.7556 5.99735 44.5466 6.78997 45.5777 6.78997C46.6064 6.78997 47.3991 5.99735 47.3991 4.96866ZM44.7056 3.85882H45.7359C46.2105 3.85882 46.6064 4.09653 46.6064 4.57194C46.6064 4.88915 46.4491 5.12604 46.1318 5.28505L46.6851 6.07686H46.0532L45.5786 5.36456H45.2614V6.07686H44.7056V3.85882ZM45.7359 4.88915C45.9745 4.88915 46.1318 4.73096 46.1318 4.57194C46.1318 4.41292 45.9745 4.25473 45.7359 4.25473H45.2614V4.88833L45.7359 4.88915Z" fill="#002C6C"/>
<path d="M6.61544 24.2899C6.61544 13.5997 14.8515 4.88909 25.3851 4.01778V3.93827C14.0597 3.93827 4.87364 13.0448 4.87364 24.2899C4.87364 35.5358 14.0597 44.6424 25.3056 44.6424V44.5637C14.8515 43.6915 6.61544 34.9014 6.61544 24.2899Z" fill="white"/>
<path d="M11.2089 24.2898C11.2089 15.3414 18.0195 7.97746 26.8089 7.10615L26.7302 7.02664C17.3064 7.18484 9.62526 14.8668 9.62526 24.2898C9.62526 33.7143 17.2269 41.3963 26.7302 41.5537L26.8089 41.475C18.0187 40.5234 11.2089 33.2389 11.2089 24.2898Z" fill="white"/>
<path d="M15.5646 24.2897C15.5646 17.0052 21.1081 10.9864 28.2351 10.1159L28.1556 10.0364C20.3941 10.2741 14.2187 16.5298 14.2187 24.2897C14.2187 32.0511 20.3941 38.3077 28.1556 38.5446L28.2351 38.4642C21.1072 37.5937 15.5646 31.5757 15.5646 24.2897Z" fill="white"/>
<path d="M19.7621 24.2897C19.7621 18.5897 24.0375 13.8381 29.6605 13.2045V13.125C23.5629 13.2831 18.7326 18.1938 18.7326 24.2905C18.7326 30.3881 23.6416 35.2987 29.6605 35.4577V35.3766C24.1179 34.6643 19.7621 29.993 19.7621 24.2897Z" fill="white"/>
<path d="M80.3705 47.5999C79.1205 47.5999 77.9305 46.6199 77.9305 44.8299V44.8099C77.9305 43.0199 79.1005 42.0399 80.3705 42.0399C81.1805 42.0399 81.6805 42.4099 82.0405 42.8399V40.1999H83.5605V47.4999H82.0405V46.7299C81.6705 47.2299 81.1605 47.5999 80.3705 47.5999ZM80.7605 46.3099C81.4705 46.3099 82.0605 45.7199 82.0605 44.8299V44.8099C82.0605 43.9199 81.4705 43.3299 80.7605 43.3299C80.0505 43.3299 79.4505 43.9099 79.4505 44.8099V44.8299C79.4505 45.7199 80.0505 46.3099 80.7605 46.3099Z" fill="#F26334"/>
<path d="M72.1401 47.4999V42.1399H73.6601V42.8999C74.0101 42.4499 74.4601 42.0399 75.2301 42.0399C76.3801 42.0399 77.0501 42.7999 77.0501 44.0299V47.4999H75.5301V44.5099C75.5301 43.7899 75.1901 43.4199 74.6101 43.4199C74.0301 43.4199 73.6601 43.7899 73.6601 44.5099V47.4999H72.1401Z" fill="#F26334"/>
<path d="M67.9421 47.5999C66.9321 47.5999 66.1021 47.0199 66.1021 45.9599V45.9399C66.1021 44.7699 66.9921 44.2299 68.2621 44.2299C68.8021 44.2299 69.1921 44.3199 69.5721 44.4499V44.3599C69.5721 43.7299 69.1821 43.3799 68.4221 43.3799C67.8421 43.3799 67.4321 43.4899 66.9421 43.6699L66.5621 42.5099C67.1521 42.2499 67.7321 42.0799 68.6421 42.0799C69.4721 42.0799 70.0721 42.2999 70.4521 42.6799C70.8521 43.0799 71.0321 43.6699 71.0321 44.3899V47.4999H69.5621V46.9199C69.1921 47.3299 68.6821 47.5999 67.9421 47.5999ZM68.4021 46.5499C69.1121 46.5499 69.5921 46.1599 69.5921 45.6099V45.3399C69.3321 45.2199 68.9921 45.1399 68.6221 45.1399C67.9721 45.1399 67.5721 45.3999 67.5721 45.8799V45.8999C67.5721 46.3099 67.9121 46.5499 68.4021 46.5499Z" fill="#F26334"/>
<path d="M63.6745 47.4999V40.1999H65.1945V47.4999H63.6745Z" fill="#F26334"/>
<path d="M60.2117 47.6199C58.6017 47.6199 57.4117 46.4899 57.4117 44.8499V44.8299C57.4117 43.2999 58.5017 42.0399 60.0617 42.0399C61.8517 42.0399 62.6717 43.4299 62.6717 44.9499C62.6717 45.0699 62.6617 45.2099 62.6517 45.3499H58.9217C59.0717 46.0399 59.5517 46.3999 60.2317 46.3999C60.7417 46.3999 61.1117 46.2399 61.5317 45.8499L62.4017 46.6199C61.9017 47.2399 61.1817 47.6199 60.2117 47.6199ZM58.9017 44.3999H61.1917C61.1017 43.7199 60.7017 43.2599 60.0617 43.2599C59.4317 43.2599 59.0217 43.7099 58.9017 44.3999Z" fill="#F26334"/>
<path d="M53.8385 47.4999V42.1399H55.3585V43.2199C55.6685 42.4799 56.1685 41.9999 57.0685 42.0399V43.6299H56.9885C55.9785 43.6299 55.3585 44.2399 55.3585 45.5199V47.4999H53.8385Z" fill="#F26334"/>
<path d="M50.9091 47.4999V40.4999H52.4491V47.4999H50.9091Z" fill="#F26334"/>
</svg>
