<svg width="98" height="50" viewBox="0 0 98 50" fill="none" xmlns="http://www.w3.org/2000/svg">
<path d="M58.8024 30.7844V29.2008H55.8729V17.1631H54.4483L50.5672 18.7467L50.9631 20.4885L53.9721 19.3008V29.2H50.645V30.7836L58.8024 30.7844Z" fill="#002C6C"/>
<path d="M48.8245 24.2899C48.8245 37.1981 38.2917 47.6505 25.3056 47.6505C12.3179 47.6505 1.78516 37.1981 1.78516 24.2899C1.86384 11.3817 12.3188 0.929199 25.3056 0.929199C38.2925 0.929199 48.8245 11.3817 48.8245 24.2899Z" fill="#002C6C"/>
<path d="M30.1359 17.2431C26.6523 17.2431 24.0376 20.094 24.0376 23.9743V24.1325C24.0376 28.1702 26.4941 30.8636 30.0564 30.8636C32.0359 30.8636 33.5409 30.071 34.4909 29.3571V23.5776H29.9769V25.003H32.9064V28.4079L32.8277 28.4874C32.1146 28.962 31.1654 29.2784 30.2146 29.2784C27.6007 29.2784 25.9376 27.2202 25.9376 24.053V23.9743C25.9376 21.044 27.6802 18.8267 30.1351 18.8267C31.5605 18.8267 32.4318 19.3013 33.1441 19.9349L34.1745 18.5899C32.9064 17.639 31.7195 17.2431 30.1359 17.2431Z" fill="white"/>
<path d="M37.0254 29.0426C38.3713 30.2286 39.9549 30.7844 41.618 30.7844C44.1524 30.7844 45.8147 29.2786 45.8147 27.0614C45.8147 25.2409 44.8655 24.2114 42.2524 23.2614C39.877 22.3106 39.2434 21.7573 39.2434 20.6483C39.2434 19.5393 40.1942 18.7475 41.5401 18.7475C42.4909 18.7475 43.518 19.1434 44.5475 19.9352L45.5786 18.5901C44.4696 17.6393 43.1229 17.1639 41.618 17.1639C39.1631 17.1639 37.5008 18.668 37.5008 20.727C37.5008 22.8655 38.8467 23.7368 41.3032 24.686C43.4393 25.4786 44.1532 26.0336 44.1532 27.1434C44.1532 28.3303 43.1229 29.2016 41.6991 29.2016C40.1147 29.2016 38.9278 28.409 38.1352 27.6967L37.0254 29.0426Z" fill="white"/>
<path d="M43.2827 4.96866C43.2827 3.70227 44.3097 2.67194 45.5786 2.67194C46.8458 2.67194 47.8745 3.70227 47.8745 4.96866C47.8745 6.23505 46.8458 7.26456 45.5786 7.26456C44.3097 7.26456 43.2827 6.23505 43.2827 4.96866ZM47.3991 4.96866C47.3991 3.93915 46.6064 3.14653 45.5777 3.14653C44.5466 3.14653 43.7556 3.93833 43.7556 4.96866C43.7556 5.99735 44.5466 6.78997 45.5777 6.78997C46.6064 6.78997 47.3991 5.99735 47.3991 4.96866ZM44.7056 3.85882H45.7359C46.2105 3.85882 46.6064 4.09653 46.6064 4.57194C46.6064 4.88915 46.4491 5.12604 46.1318 5.28505L46.6851 6.07686H46.0532L45.5786 5.36456H45.2614V6.07686H44.7056V3.85882ZM45.7359 4.88915C45.9745 4.88915 46.1318 4.73096 46.1318 4.57194C46.1318 4.41292 45.9745 4.25473 45.7359 4.25473H45.2614V4.88833L45.7359 4.88915Z" fill="#002C6C"/>
<path d="M6.61544 24.2899C6.61544 13.5997 14.8515 4.88909 25.3851 4.01778V3.93827C14.0597 3.93827 4.87364 13.0448 4.87364 24.2899C4.87364 35.5358 14.0597 44.6424 25.3056 44.6424V44.5637C14.8515 43.6915 6.61544 34.9014 6.61544 24.2899Z" fill="white"/>
<path d="M11.2089 24.2898C11.2089 15.3414 18.0195 7.97746 26.8089 7.10615L26.7302 7.02664C17.3064 7.18484 9.62526 14.8668 9.62526 24.2898C9.62526 33.7143 17.2269 41.3963 26.7302 41.5537L26.8089 41.475C18.0187 40.5234 11.2089 33.2389 11.2089 24.2898Z" fill="white"/>
<path d="M15.5646 24.2897C15.5646 17.0052 21.1081 10.9864 28.2351 10.1159L28.1556 10.0364C20.3941 10.2741 14.2187 16.5298 14.2187 24.2897C14.2187 32.0511 20.3941 38.3077 28.1556 38.5446L28.2351 38.4642C21.1072 37.5937 15.5646 31.5757 15.5646 24.2897Z" fill="white"/>
<path d="M19.7621 24.2897C19.7621 18.5897 24.0375 13.8381 29.6605 13.2045V13.125C23.5629 13.2831 18.7326 18.1938 18.7326 24.2905C18.7326 30.3881 23.6416 35.2987 29.6605 35.4577V35.3766C24.1179 34.6643 19.7621 29.993 19.7621 24.2897Z" fill="white"/>
<path d="M75.4241 47.5999C74.1741 47.5999 72.9841 46.6199 72.9841 44.8299V44.8099C72.9841 43.0199 74.1541 42.0399 75.4241 42.0399C76.2341 42.0399 76.7341 42.4099 77.0941 42.8399V40.1999H78.6141V47.4999H77.0941V46.7299C76.7241 47.2299 76.2141 47.5999 75.4241 47.5999ZM75.8141 46.3099C76.5241 46.3099 77.1141 45.7199 77.1141 44.8299V44.8099C77.1141 43.9199 76.5241 43.3299 75.8141 43.3299C75.1041 43.3299 74.5041 43.9099 74.5041 44.8099V44.8299C74.5041 45.7199 75.1041 46.3099 75.8141 46.3099Z" fill="#F26334"/>
<path d="M67.1936 47.4999V42.1399H68.7136V42.8999C69.0636 42.4499 69.5136 42.0399 70.2836 42.0399C71.4336 42.0399 72.1036 42.7999 72.1036 44.0299V47.4999H70.5836V44.5099C70.5836 43.7899 70.2436 43.4199 69.6636 43.4199C69.0836 43.4199 68.7136 43.7899 68.7136 44.5099V47.4999H67.1936Z" fill="#F26334"/>
<path d="M62.9956 47.5999C61.9856 47.5999 61.1556 47.0199 61.1556 45.9599V45.9399C61.1556 44.7699 62.0456 44.2299 63.3156 44.2299C63.8556 44.2299 64.2456 44.3199 64.6256 44.4499V44.3599C64.6256 43.7299 64.2356 43.3799 63.4756 43.3799C62.8956 43.3799 62.4856 43.4899 61.9956 43.6699L61.6156 42.5099C62.2056 42.2499 62.7856 42.0799 63.6956 42.0799C64.5256 42.0799 65.1256 42.2999 65.5056 42.6799C65.9056 43.0799 66.0856 43.6699 66.0856 44.3899V47.4999H64.6156V46.9199C64.2456 47.3299 63.7356 47.5999 62.9956 47.5999ZM63.4556 46.5499C64.1656 46.5499 64.6456 46.1599 64.6456 45.6099V45.3399C64.3856 45.2199 64.0456 45.1399 63.6756 45.1399C63.0256 45.1399 62.6256 45.3999 62.6256 45.8799V45.8999C62.6256 46.3099 62.9656 46.5499 63.4556 46.5499Z" fill="#F26334"/>
<path d="M58.728 47.4999V40.1999H60.248V47.4999H58.728Z" fill="#F26334"/>
<path d="M55.7185 47.5999C54.9685 47.5999 54.1285 47.3499 53.4185 46.7899L54.0685 45.7899C54.6485 46.2099 55.2585 46.4299 55.7585 46.4299C56.1985 46.4299 56.3985 46.2699 56.3985 46.0299V46.0099C56.3985 45.6799 55.8785 45.5699 55.2885 45.3899C54.5385 45.1699 53.6885 44.8199 53.6885 43.7799V43.7599C53.6885 42.6699 54.5685 42.0599 55.6485 42.0599C56.3285 42.0599 57.0685 42.2899 57.6485 42.6799L57.0685 43.7299C56.5385 43.4199 56.0085 43.2299 55.6185 43.2299C55.2485 43.2299 55.0585 43.3899 55.0585 43.5999V43.6199C55.0585 43.9199 55.5685 44.0599 56.1485 44.2599C56.8985 44.5099 57.7685 44.8699 57.7685 45.8499V45.8699C57.7685 47.0599 56.8785 47.5999 55.7185 47.5999Z" fill="#F26334"/>
<path d="M50.9091 47.4999V40.4999H52.4491V47.4999H50.9091ZM51.0591 39.9499L52.2691 38.3799L53.5791 38.9499L52.2191 39.9499H51.0591Z" fill="#F26334"/>
</svg>
