<svg width="98" height="50" viewBox="0 0 98 50" fill="none" xmlns="http://www.w3.org/2000/svg">
<path d="M58.8033 30.7846V29.201H55.8738V17.1633H54.4492L50.568 18.7469L50.9639 20.4887L53.9729 19.301V29.2002H50.6459V30.7838L58.8033 30.7846Z" fill="#002C6C"/>
<path d="M48.8254 24.2901C48.8254 37.1983 38.2926 47.6508 25.3065 47.6508C12.3188 47.6508 1.78601 37.1983 1.78601 24.2901C1.8647 11.3819 12.3196 0.929443 25.3065 0.929443C38.2934 0.929443 48.8254 11.3819 48.8254 24.2901Z" fill="#002C6C"/>
<path d="M30.1368 17.2434C26.6532 17.2434 24.0384 20.0942 24.0384 23.9745V24.1327C24.0384 28.1704 26.495 30.8639 30.0573 30.8639C32.0368 30.8639 33.5417 30.0712 34.4917 29.3573V23.5778H29.9778V25.0032H32.9073V28.4081L32.8286 28.4876C32.1155 28.9622 31.1663 29.2786 30.2155 29.2786C27.6015 29.2786 25.9384 27.2204 25.9384 24.0532V23.9745C25.9384 21.0442 27.6811 18.827 30.136 18.827C31.5614 18.827 32.4327 19.3016 33.145 19.9352L34.1753 18.5901C32.9073 17.6393 31.7204 17.2434 30.1368 17.2434Z" fill="white"/>
<path d="M37.0262 29.0428C38.3721 30.2289 39.9557 30.7846 41.6188 30.7846C44.1533 30.7846 45.8156 29.2789 45.8156 27.0617C45.8156 25.2412 44.8664 24.2117 42.2533 23.2617C39.8779 22.3109 39.2442 21.7576 39.2442 20.6486C39.2442 19.5395 40.1951 18.7477 41.541 18.7477C42.4918 18.7477 43.5188 19.1436 44.5483 19.9354L45.5795 18.5904C44.4705 17.6395 43.1238 17.1641 41.6188 17.1641C39.1639 17.1641 37.5016 18.6682 37.5016 20.7272C37.5016 22.8658 38.8475 23.7371 41.3041 24.6863C43.4401 25.4789 44.1541 26.0338 44.1541 27.1436C44.1541 28.3305 43.1238 29.2018 41.7 29.2018C40.1156 29.2018 38.9287 28.4092 38.1361 27.6969L37.0262 29.0428Z" fill="white"/>
<path d="M43.2835 4.9689C43.2835 3.70251 44.3106 2.67218 45.5794 2.67218C46.8466 2.67218 47.8753 3.70251 47.8753 4.9689C47.8753 6.2353 46.8466 7.26481 45.5794 7.26481C44.3106 7.26481 43.2835 6.2353 43.2835 4.9689ZM47.3999 4.9689C47.3999 3.9394 46.6073 3.14677 45.5786 3.14677C44.5475 3.14677 43.7565 3.93858 43.7565 4.9689C43.7565 5.99759 44.5475 6.79022 45.5786 6.79022C46.6073 6.79022 47.3999 5.99759 47.3999 4.9689ZM44.7065 3.85907H45.7368C46.2114 3.85907 46.6073 4.09677 46.6073 4.57218C46.6073 4.8894 46.4499 5.12628 46.1327 5.2853L46.686 6.0771H46.054L45.5794 5.36481H45.2622V6.0771H44.7065V3.85907ZM45.7368 4.8894C45.9753 4.8894 46.1327 4.7312 46.1327 4.57218C46.1327 4.41317 45.9753 4.25497 45.7368 4.25497H45.2622V4.88858L45.7368 4.8894Z" fill="#002C6C"/>
<path d="M6.6163 24.2902C6.6163 13.6 14.8524 4.88933 25.386 4.01802V3.93851C14.0606 3.93851 4.8745 13.0451 4.8745 24.2902C4.8745 35.5361 14.0606 44.6426 25.3065 44.6426V44.5639C14.8524 43.6918 6.6163 34.9016 6.6163 24.2902Z" fill="white"/>
<path d="M11.2097 24.29C11.2097 15.3416 18.0204 7.9777 26.8097 7.10639L26.731 7.02688C17.3073 7.18508 9.62612 14.867 9.62612 24.29C9.62612 33.7146 17.2278 41.3966 26.731 41.5539L26.8097 41.4752C18.0196 40.5236 11.2097 33.2392 11.2097 24.29Z" fill="white"/>
<path d="M15.5655 24.2899C15.5655 17.0055 21.1089 10.9866 28.236 10.1161L28.1564 10.0366C20.395 10.2743 14.2196 16.5301 14.2196 24.2899C14.2196 32.0514 20.395 38.3079 28.1564 38.5448L28.236 38.4645C21.1081 37.594 15.5655 31.576 15.5655 24.2899Z" fill="white"/>
<path d="M19.763 24.2899C19.763 18.5899 24.0384 13.8383 29.6613 13.2047V13.1252C23.5638 13.2834 18.7335 18.194 18.7335 24.2908C18.7335 30.3883 23.6425 35.299 29.6613 35.458V35.3768C24.1187 34.6645 19.763 29.9932 19.763 24.2899Z" fill="white"/>
<path d="M89.848 47.5001V40.2001H91.368V47.5001H89.848Z" fill="#F26334"/>
<path d="M85.5801 47.6001C84.5701 47.6001 83.7401 47.0201 83.7401 45.9601V45.9401C83.7401 44.7701 84.6301 44.2301 85.9001 44.2301C86.4401 44.2301 86.8301 44.3201 87.2101 44.4501V44.3601C87.2101 43.7301 86.8201 43.3801 86.0601 43.3801C85.4801 43.3801 85.0701 43.4901 84.5801 43.6701L84.2001 42.5101C84.7901 42.2501 85.3701 42.0801 86.2801 42.0801C87.1101 42.0801 87.7101 42.3001 88.0901 42.6801C88.4901 43.0801 88.6701 43.6701 88.6701 44.3901V47.5001H87.2001V46.9201C86.8301 47.3301 86.3201 47.6001 85.5801 47.6001ZM86.0401 46.5501C86.7501 46.5501 87.2301 46.1601 87.2301 45.6101V45.3401C86.9701 45.2201 86.6301 45.1401 86.2601 45.1401C85.6101 45.1401 85.2101 45.4001 85.2101 45.8801V45.9001C85.2101 46.3101 85.5501 46.5501 86.0401 46.5501Z" fill="#F26334"/>
<path d="M79.912 49.1201C79.042 49.1201 78.222 48.9201 77.542 48.5601L78.062 47.4201C78.612 47.7301 79.162 47.9101 79.872 47.9101C80.912 47.9101 81.402 47.4101 81.402 46.4501V46.1901C80.952 46.7301 80.462 47.0601 79.652 47.0601C78.402 47.0601 77.272 46.1501 77.272 44.5601V44.5401C77.272 42.9401 78.422 42.0401 79.652 42.0401C80.482 42.0401 80.972 42.3901 81.382 42.8401V42.1401H82.902V46.2901C82.902 47.2501 82.672 47.9501 82.222 48.4001C81.722 48.9001 80.952 49.1201 79.912 49.1201ZM80.092 45.8001C80.832 45.8001 81.402 45.2901 81.402 44.5601V44.5401C81.402 43.8101 80.832 43.3001 80.092 43.3001C79.352 43.3001 78.792 43.8101 78.792 44.5401V44.5601C78.792 45.3001 79.352 45.8001 80.092 45.8001Z" fill="#F26334"/>
<path d="M73.2616 47.6001C72.1116 47.6001 71.4416 46.8401 71.4416 45.6101V42.1401H72.9616V45.1301C72.9616 45.8501 73.3016 46.2201 73.8816 46.2201C74.4616 46.2201 74.8316 45.8501 74.8316 45.1301V42.1401H76.3516V47.5001H74.8316V46.7401C74.4816 47.1901 74.0316 47.6001 73.2616 47.6001Z" fill="#F26334"/>
<path d="M69.3412 47.5901C68.4112 47.5901 67.7812 47.2201 67.7812 45.9801V43.4401H67.1412V42.1401H67.7812V40.7701H69.3012V42.1401H70.5612V43.4401H69.3012V45.7301C69.3012 46.0801 69.4512 46.2501 69.7912 46.2501C70.0712 46.2501 70.3212 46.1801 70.5412 46.0601V47.2801C70.2212 47.4701 69.8512 47.5901 69.3412 47.5901Z" fill="#F26334"/>
<path d="M63.5515 47.5001V42.1401H65.0715V43.2201C65.3815 42.4801 65.8815 42.0001 66.7815 42.0401V43.6301H66.7015C65.6915 43.6301 65.0715 44.2401 65.0715 45.5201V47.5001H63.5515Z" fill="#F26334"/>
<path d="M59.7409 47.6201C58.0809 47.6201 56.8509 46.3901 56.8509 44.8501V44.8301C56.8509 43.2901 58.0909 42.0401 59.7609 42.0401C61.4209 42.0401 62.6509 43.2701 62.6509 44.8101V44.8301C62.6509 46.3701 61.4109 47.6201 59.7409 47.6201ZM59.7609 46.3101C60.6309 46.3101 61.1509 45.6401 61.1509 44.8501V44.8301C61.1509 44.0401 60.5809 43.3501 59.7409 43.3501C58.8709 43.3501 58.3509 44.0201 58.3509 44.8101V44.8301C58.3509 45.6201 58.9209 46.3101 59.7609 46.3101Z" fill="#F26334"/>
<path d="M50.84 47.5001V40.5001H53.7C55.37 40.5001 56.38 41.4901 56.38 42.9201V42.9401C56.38 44.5601 55.12 45.4001 53.55 45.4001H52.38V47.5001H50.84ZM52.38 44.0301H53.6C54.37 44.0301 54.82 43.5701 54.82 42.9701V42.9501C54.82 42.2601 54.34 41.8901 53.57 41.8901H52.38V44.0301Z" fill="#F26334"/>
</svg>
