<svg width="98" height="50" viewBox="0 0 98 50" fill="none" xmlns="http://www.w3.org/2000/svg">
<path d="M58.8024 30.7844V29.2008H55.8729V17.1631H54.4483L50.5672 18.7467L50.9631 20.4885L53.9721 19.3008V29.2H50.645V30.7836L58.8024 30.7844Z" fill="#002C6C"/>
<path d="M48.8245 24.2899C48.8245 37.1981 38.2917 47.6505 25.3056 47.6505C12.3179 47.6505 1.78516 37.1981 1.78516 24.2899C1.86384 11.3817 12.3188 0.929199 25.3056 0.929199C38.2925 0.929199 48.8245 11.3817 48.8245 24.2899Z" fill="#002C6C"/>
<path d="M30.1359 17.2431C26.6523 17.2431 24.0376 20.094 24.0376 23.9743V24.1325C24.0376 28.1702 26.4941 30.8636 30.0564 30.8636C32.0359 30.8636 33.5409 30.071 34.4909 29.3571V23.5776H29.9769V25.003H32.9064V28.4079L32.8277 28.4874C32.1146 28.962 31.1654 29.2784 30.2146 29.2784C27.6007 29.2784 25.9376 27.2202 25.9376 24.053V23.9743C25.9376 21.044 27.6802 18.8267 30.1351 18.8267C31.5605 18.8267 32.4318 19.3013 33.1441 19.9349L34.1745 18.5899C32.9064 17.639 31.7195 17.2431 30.1359 17.2431Z" fill="white"/>
<path d="M37.0254 29.0426C38.3713 30.2286 39.9549 30.7844 41.618 30.7844C44.1524 30.7844 45.8147 29.2786 45.8147 27.0614C45.8147 25.2409 44.8655 24.2114 42.2524 23.2614C39.877 22.3106 39.2434 21.7573 39.2434 20.6483C39.2434 19.5393 40.1942 18.7475 41.5401 18.7475C42.4909 18.7475 43.518 19.1434 44.5475 19.9352L45.5786 18.5901C44.4696 17.6393 43.1229 17.1639 41.618 17.1639C39.1631 17.1639 37.5008 18.668 37.5008 20.727C37.5008 22.8655 38.8467 23.7368 41.3032 24.686C43.4393 25.4786 44.1532 26.0336 44.1532 27.1434C44.1532 28.3303 43.1229 29.2016 41.6991 29.2016C40.1147 29.2016 38.9278 28.409 38.1352 27.6967L37.0254 29.0426Z" fill="white"/>
<path d="M43.2827 4.96866C43.2827 3.70227 44.3097 2.67194 45.5786 2.67194C46.8458 2.67194 47.8745 3.70227 47.8745 4.96866C47.8745 6.23505 46.8458 7.26456 45.5786 7.26456C44.3097 7.26456 43.2827 6.23505 43.2827 4.96866ZM47.3991 4.96866C47.3991 3.93915 46.6064 3.14653 45.5777 3.14653C44.5466 3.14653 43.7556 3.93833 43.7556 4.96866C43.7556 5.99735 44.5466 6.78997 45.5777 6.78997C46.6064 6.78997 47.3991 5.99735 47.3991 4.96866ZM44.7056 3.85882H45.7359C46.2105 3.85882 46.6064 4.09653 46.6064 4.57194C46.6064 4.88915 46.4491 5.12604 46.1318 5.28505L46.6851 6.07686H46.0532L45.5786 5.36456H45.2614V6.07686H44.7056V3.85882ZM45.7359 4.88915C45.9745 4.88915 46.1318 4.73096 46.1318 4.57194C46.1318 4.41292 45.9745 4.25473 45.7359 4.25473H45.2614V4.88833L45.7359 4.88915Z" fill="#002C6C"/>
<path d="M6.61544 24.2899C6.61544 13.5997 14.8515 4.88909 25.3851 4.01778V3.93827C14.0597 3.93827 4.87364 13.0448 4.87364 24.2899C4.87364 35.5358 14.0597 44.6424 25.3056 44.6424V44.5637C14.8515 43.6915 6.61544 34.9014 6.61544 24.2899Z" fill="white"/>
<path d="M11.2089 24.2898C11.2089 15.3414 18.0195 7.97746 26.8089 7.10615L26.7302 7.02664C17.3064 7.18484 9.62526 14.8668 9.62526 24.2898C9.62526 33.7143 17.2269 41.3963 26.7302 41.5537L26.8089 41.475C18.0187 40.5234 11.2089 33.2389 11.2089 24.2898Z" fill="white"/>
<path d="M15.5646 24.2897C15.5646 17.0052 21.1081 10.9864 28.2351 10.1159L28.1556 10.0364C20.3941 10.2741 14.2187 16.5298 14.2187 24.2897C14.2187 32.0511 20.3941 38.3077 28.1556 38.5446L28.2351 38.4642C21.1072 37.5937 15.5646 31.5757 15.5646 24.2897Z" fill="white"/>
<path d="M19.7621 24.2897C19.7621 18.5897 24.0375 13.8381 29.6605 13.2045V13.125C23.5629 13.2831 18.7326 18.1938 18.7326 24.2905C18.7326 30.3881 23.6416 35.2987 29.6605 35.4577V35.3766C24.1179 34.6643 19.7621 29.993 19.7621 24.2897Z" fill="white"/>
<path d="M82.0929 47.5999C81.0829 47.5999 80.2529 47.0199 80.2529 45.9599V45.9399C80.2529 44.7699 81.1429 44.2299 82.4129 44.2299C82.9529 44.2299 83.3429 44.3199 83.7229 44.4499V44.3599C83.7229 43.7299 83.3329 43.3799 82.5729 43.3799C81.9929 43.3799 81.5829 43.4899 81.0929 43.6699L80.7129 42.5099C81.3029 42.2499 81.8829 42.0799 82.7929 42.0799C83.6229 42.0799 84.2229 42.2999 84.6029 42.6799C85.0029 43.0799 85.1829 43.6699 85.1829 44.3899V47.4999H83.7129V46.9199C83.3429 47.3299 82.8329 47.5999 82.0929 47.5999ZM82.5529 46.5499C83.2629 46.5499 83.7429 46.1599 83.7429 45.6099V45.3399C83.4829 45.2199 83.1429 45.1399 82.7729 45.1399C82.1229 45.1399 81.7229 45.3999 81.7229 45.8799V45.8999C81.7229 46.3099 82.0629 46.5499 82.5529 46.5499Z" fill="#F26334"/>
<path d="M77.7853 41.5499V40.1999H79.3853V41.5499H77.7853ZM77.8253 47.4999V42.1399H79.3453V47.4999H77.8253Z" fill="#F26334"/>
<path d="M75.6149 47.5899C74.6849 47.5899 74.0549 47.2199 74.0549 45.9799V43.4399H73.4149V42.1399H74.0549V40.7699H75.5749V42.1399H76.8349V43.4399H75.5749V45.7299C75.5749 46.0799 75.7249 46.2499 76.0649 46.2499C76.3449 46.2499 76.5949 46.1799 76.8149 46.0599V47.2799C76.4949 47.4699 76.1249 47.5899 75.6149 47.5899Z" fill="#F26334"/>
<path d="M69.6558 47.5999C68.6458 47.5999 67.8158 47.0199 67.8158 45.9599V45.9399C67.8158 44.7699 68.7058 44.2299 69.9758 44.2299C70.5158 44.2299 70.9058 44.3199 71.2858 44.4499V44.3599C71.2858 43.7299 70.8958 43.3799 70.1358 43.3799C69.5558 43.3799 69.1458 43.4899 68.6558 43.6699L68.2758 42.5099C68.8658 42.2499 69.4458 42.0799 70.3558 42.0799C71.1858 42.0799 71.7858 42.2999 72.1658 42.6799C72.5658 43.0799 72.7458 43.6699 72.7458 44.3899V47.4999H71.2758V46.9199C70.9058 47.3299 70.3958 47.5999 69.6558 47.5999ZM70.1158 46.5499C70.8258 46.5499 71.3058 46.1599 71.3058 45.6099V45.3399C71.0458 45.2199 70.7058 45.1399 70.3358 45.1399C69.6858 45.1399 69.2858 45.3999 69.2858 45.8799V45.8999C69.2858 46.3099 69.6258 46.5499 70.1158 46.5499Z" fill="#F26334"/>
<path d="M64.3252 47.6199C62.6652 47.6199 61.4352 46.3899 61.4352 44.8499V44.8299C61.4352 43.2899 62.6752 42.0399 64.3452 42.0399C66.0052 42.0399 67.2352 43.2699 67.2352 44.8099V44.8299C67.2352 46.3699 65.9952 47.6199 64.3252 47.6199ZM64.3452 46.3099C65.2152 46.3099 65.7352 45.6399 65.7352 44.8499V44.8299C65.7352 44.0399 65.1652 43.3499 64.3252 43.3499C63.4552 43.3499 62.9352 44.0199 62.9352 44.8099V44.8299C62.9352 45.6199 63.5052 46.3099 64.3452 46.3099Z" fill="#F26334"/>
<path d="M57.862 47.4999V42.1399H59.382V43.2199C59.692 42.4799 60.192 41.9999 61.092 42.0399V43.6299H61.012C60.002 43.6299 59.382 44.2399 59.382 45.5199V47.4999H57.862Z" fill="#F26334"/>
<path d="M54.1191 47.6199C52.0591 47.6199 50.5291 46.0299 50.5291 44.0199V43.9999C50.5291 42.0099 52.0291 40.3799 54.1791 40.3799C55.4991 40.3799 56.2891 40.8199 56.9391 41.4599L55.9591 42.5899C55.4191 42.0999 54.8691 41.7999 54.1691 41.7999C52.9891 41.7999 52.1391 42.7799 52.1391 43.9799V43.9999C52.1391 45.1999 52.9691 46.1999 54.1691 46.1999C54.9691 46.1999 55.4591 45.8799 56.0091 45.3799L56.9891 46.3699C56.2691 47.1399 55.4691 47.6199 54.1191 47.6199Z" fill="#F26334"/>
</svg>
