<svg width="145" height="50" viewBox="0 0 145 50" fill="none" xmlns="http://www.w3.org/2000/svg">
<path d="M58.8017 30.7844V29.2008H55.8721V17.1631H54.4476L50.5664 18.7467L50.9623 20.4885L53.9713 19.3008V29.2H50.6443V30.7836L58.8017 30.7844Z" fill="#002C6C"/>
<path d="M48.8245 24.2899C48.8245 37.1981 38.2917 47.6505 25.3056 47.6505C12.3179 47.6505 1.78516 37.1981 1.78516 24.2899C1.86384 11.3817 12.3188 0.929199 25.3056 0.929199C38.2925 0.929199 48.8245 11.3817 48.8245 24.2899Z" fill="#002C6C"/>
<path d="M30.1374 17.2432C26.6538 17.2432 24.0391 20.094 24.0391 23.9743V24.1325C24.0391 28.1702 26.4956 30.8637 30.0579 30.8637C32.0374 30.8637 33.5423 30.071 34.4923 29.3571V23.5776H29.9784V25.003H32.9079V28.4079L32.8292 28.4874C32.1161 28.962 31.1669 29.2784 30.2161 29.2784C27.6022 29.2784 25.9391 27.2202 25.9391 24.053V23.9743C25.9391 21.044 27.6817 18.8268 30.1366 18.8268C31.562 18.8268 32.4333 19.3014 33.1456 19.935L34.1759 18.5899C32.9079 17.6391 31.721 17.2432 30.1374 17.2432Z" fill="white"/>
<path d="M37.0234 29.0428C38.3693 30.2288 39.9529 30.7846 41.6161 30.7846C44.1505 30.7846 45.8128 29.2788 45.8128 27.0616C45.8128 25.2411 44.8636 24.2116 42.2505 23.2616C39.8751 22.3108 39.2415 21.7575 39.2415 20.6485C39.2415 19.5395 40.1923 18.7477 41.5382 18.7477C42.489 18.7477 43.5161 19.1436 44.5456 19.9354L45.5767 18.5903C44.4677 17.6395 43.121 17.1641 41.6161 17.1641C39.1611 17.1641 37.4988 18.6682 37.4988 20.7272C37.4988 22.8657 38.8447 23.737 41.3013 24.6862C43.4374 25.4788 44.1513 26.0337 44.1513 27.1436C44.1513 28.3305 43.121 29.2018 41.6972 29.2018C40.1128 29.2018 38.9259 28.4091 38.1333 27.6968L37.0234 29.0428Z" fill="white"/>
<path d="M43.2812 4.9686C43.2812 3.7022 44.3083 2.67188 45.5772 2.67188C46.8444 2.67188 47.8731 3.7022 47.8731 4.9686C47.8731 6.23499 46.8444 7.2645 45.5772 7.2645C44.3083 7.2645 43.2812 6.23499 43.2812 4.9686ZM47.3976 4.9686C47.3976 3.93909 46.605 3.14647 45.5763 3.14647C44.5452 3.14647 43.7542 3.93827 43.7542 4.9686C43.7542 5.99729 44.5452 6.78991 45.5763 6.78991C46.605 6.78991 47.3976 5.99729 47.3976 4.9686ZM44.7042 3.85876H45.7345C46.2091 3.85876 46.605 4.09647 46.605 4.57188C46.605 4.88909 46.4476 5.12597 46.1304 5.28499L46.6837 6.07679H46.0517L45.5772 5.3645H45.2599V6.07679H44.7042V3.85876ZM45.7345 4.88909C45.9731 4.88909 46.1304 4.73089 46.1304 4.57188C46.1304 4.41286 45.9731 4.25466 45.7345 4.25466H45.2599V4.88827L45.7345 4.88909Z" fill="#002C6C"/>
<path d="M6.6168 24.2901C6.6168 13.6 14.8529 4.8893 25.3865 4.01798V3.93848C14.0611 3.93848 4.875 13.045 4.875 24.2901C4.875 35.536 14.0611 44.6426 25.307 44.6426V44.5639C14.8529 43.6918 6.6168 34.9016 6.6168 24.2901Z" fill="white"/>
<path d="M11.2086 24.29C11.2086 15.3416 18.0193 7.97768 26.8086 7.10636L26.7299 7.02686C17.3061 7.18505 9.625 14.867 9.625 24.29C9.625 33.7146 17.2266 41.3965 26.7299 41.5539L26.8086 41.4752C18.0184 40.5236 11.2086 33.2392 11.2086 24.29Z" fill="white"/>
<path d="M15.5647 24.2899C15.5647 17.0055 21.1081 10.9866 28.2351 10.1161L28.1556 10.0366C20.3942 10.2743 14.2188 16.5301 14.2188 24.2899C14.2188 32.0514 20.3942 38.3079 28.1556 38.5448L28.2351 38.4645C21.1073 37.594 15.5647 31.576 15.5647 24.2899Z" fill="white"/>
<path d="M19.7639 24.2898C19.7639 18.5898 24.0393 13.8381 29.6622 13.2045V13.125C23.5647 13.2832 18.7344 18.1939 18.7344 24.2906C18.7344 30.3881 23.6434 35.2988 29.6622 35.4578V35.3766C24.1196 34.6643 19.7639 29.993 19.7639 24.2898Z" fill="white"/>
<path d="M141.646 47.62C140.036 47.62 138.846 46.49 138.846 44.85V44.83C138.846 43.3 139.936 42.04 141.496 42.04C143.286 42.04 144.106 43.43 144.106 44.95C144.106 45.07 144.096 45.21 144.086 45.35H140.356C140.506 46.04 140.986 46.4 141.666 46.4C142.176 46.4 142.546 46.24 142.966 45.85L143.836 46.62C143.336 47.24 142.616 47.62 141.646 47.62ZM140.336 44.4H142.626C142.536 43.72 142.136 43.26 141.496 43.26C140.866 43.26 140.456 43.71 140.336 44.4Z" fill="#F26334"/>
<path d="M136.27 47.62C134.66 47.62 133.48 46.38 133.48 44.85V44.83C133.48 43.3 134.65 42.04 136.29 42.04C137.3 42.04 137.93 42.38 138.43 42.94L137.5 43.94C137.16 43.58 136.82 43.35 136.28 43.35C135.52 43.35 134.98 44.02 134.98 44.81V44.83C134.98 45.65 135.51 46.31 136.34 46.31C136.85 46.31 137.2 46.09 137.57 45.74L138.46 46.64C137.94 47.21 137.34 47.62 136.27 47.62Z" fill="#F26334"/>
<path d="M130.347 47.62C128.737 47.62 127.547 46.49 127.547 44.85V44.83C127.547 43.3 128.637 42.04 130.197 42.04C131.987 42.04 132.807 43.43 132.807 44.95C132.807 45.07 132.797 45.21 132.787 45.35H129.057C129.207 46.04 129.687 46.4 130.367 46.4C130.877 46.4 131.247 46.24 131.667 45.85L132.537 46.62C132.037 47.24 131.317 47.62 130.347 47.62ZM129.037 44.4H131.327C131.237 43.72 130.837 43.26 130.197 43.26C129.567 43.26 129.157 43.71 129.037 44.4Z" fill="#F26334"/>
<path d="M124.414 47.62C122.804 47.62 121.614 46.49 121.614 44.85V44.83C121.614 43.3 122.704 42.04 124.264 42.04C126.054 42.04 126.874 43.43 126.874 44.95C126.874 45.07 126.864 45.21 126.854 45.35H123.124C123.274 46.04 123.754 46.4 124.434 46.4C124.944 46.4 125.314 46.24 125.734 45.85L126.604 46.62C126.104 47.24 125.384 47.62 124.414 47.62ZM123.104 44.4H125.394C125.304 43.72 124.904 43.26 124.264 43.26C123.634 43.26 123.224 43.71 123.104 44.4Z" fill="#F26334"/>
<path d="M118.041 47.5V42.14H119.561V43.22C119.871 42.48 120.371 42 121.271 42.04V43.63H121.191C120.181 43.63 119.561 44.24 119.561 45.52V47.5H118.041Z" fill="#F26334"/>
<path d="M113.929 47.62C111.749 47.62 110.249 46.09 110.249 44.02V44C110.249 42.01 111.799 40.38 113.919 40.38C115.179 40.38 115.939 40.72 116.669 41.34L115.699 42.51C115.159 42.06 114.679 41.8 113.869 41.8C112.749 41.8 111.859 42.79 111.859 43.98V44C111.859 45.28 112.739 46.22 113.979 46.22C114.539 46.22 115.039 46.08 115.429 45.8V44.8H113.879V43.47H116.919V46.51C116.199 47.12 115.209 47.62 113.929 47.62Z" fill="#F26334"/>
<path d="M101.571 47.5V42.14H103.091V42.9C103.441 42.45 103.891 42.04 104.661 42.04C105.811 42.04 106.481 42.8 106.481 44.03V47.5H104.961V44.51C104.961 43.79 104.621 43.42 104.041 43.42C103.461 43.42 103.091 43.79 103.091 44.51V47.5H101.571Z" fill="#F26334"/>
<path d="M97.76 47.62C96.1 47.62 94.87 46.39 94.87 44.85V44.83C94.87 43.29 96.11 42.04 97.78 42.04C99.44 42.04 100.67 43.27 100.67 44.81V44.83C100.67 46.37 99.43 47.62 97.76 47.62ZM97.78 46.31C98.65 46.31 99.17 45.64 99.17 44.85V44.83C99.17 44.04 98.6 43.35 97.76 43.35C96.89 43.35 96.37 44.02 96.37 44.81V44.83C96.37 45.62 96.94 46.31 97.78 46.31Z" fill="#F26334"/>
<path d="M92.3424 41.55V40.2H93.9424V41.55H92.3424ZM92.3824 47.5V42.14H93.9024V47.5H92.3824Z" fill="#F26334"/>
<path d="M90.172 47.59C89.242 47.59 88.612 47.22 88.612 45.98V43.44H87.972V42.14H88.612V40.77H90.132V42.14H91.392V43.44H90.132V45.73C90.132 46.08 90.282 46.25 90.622 46.25C90.902 46.25 91.152 46.18 91.372 46.06V47.28C91.052 47.47 90.682 47.59 90.172 47.59Z" fill="#F26334"/>
<path d="M84.2129 47.6C83.2029 47.6 82.3729 47.02 82.3729 45.96V45.94C82.3729 44.77 83.2629 44.23 84.5329 44.23C85.0729 44.23 85.4629 44.32 85.8429 44.45V44.36C85.8429 43.73 85.4529 43.38 84.6929 43.38C84.1129 43.38 83.7029 43.49 83.2129 43.67L82.8329 42.51C83.4229 42.25 84.0029 42.08 84.9129 42.08C85.7429 42.08 86.3429 42.3 86.7229 42.68C87.1229 43.08 87.3029 43.67 87.3029 44.39V47.5H85.8329V46.92C85.4629 47.33 84.9529 47.6 84.2129 47.6ZM84.6729 46.55C85.3829 46.55 85.8629 46.16 85.8629 45.61V45.34C85.6029 45.22 85.2629 45.14 84.8929 45.14C84.2429 45.14 83.8429 45.4 83.8429 45.88V45.9C83.8429 46.31 84.1829 46.55 84.6729 46.55Z" fill="#F26334"/>
<path d="M79.9053 41.55V40.2H81.5053V41.55H79.9053ZM79.9453 47.5V42.14H81.4653V47.5H79.9453Z" fill="#F26334"/>
<path d="M76.8924 47.62C75.2824 47.62 74.1024 46.38 74.1024 44.85V44.83C74.1024 43.3 75.2724 42.04 76.9124 42.04C77.9224 42.04 78.5524 42.38 79.0524 42.94L78.1224 43.94C77.7824 43.58 77.4424 43.35 76.9024 43.35C76.1424 43.35 75.6024 44.02 75.6024 44.81V44.83C75.6024 45.65 76.1324 46.31 76.9624 46.31C77.4724 46.31 77.8224 46.09 78.1924 45.74L79.0824 46.64C78.5624 47.21 77.9624 47.62 76.8924 47.62Z" fill="#F26334"/>
<path d="M70.5518 47.62C68.8918 47.62 67.6618 46.39 67.6618 44.85V44.83C67.6618 43.29 68.9018 42.04 70.5718 42.04C72.2318 42.04 73.4618 43.27 73.4618 44.81V44.83C73.4618 46.37 72.2218 47.62 70.5518 47.62ZM70.5718 46.31C71.4418 46.31 71.9618 45.64 71.9618 44.85V44.83C71.9618 44.04 71.3918 43.35 70.5518 43.35C69.6818 43.35 69.1618 44.02 69.1618 44.81V44.83C69.1618 45.62 69.7318 46.31 70.5718 46.31Z" fill="#F26334"/>
<path d="M64.9823 47.6C64.2323 47.6 63.3923 47.35 62.6823 46.79L63.3323 45.79C63.9123 46.21 64.5223 46.43 65.0223 46.43C65.4623 46.43 65.6623 46.27 65.6623 46.03V46.01C65.6623 45.68 65.1423 45.57 64.5523 45.39C63.8023 45.17 62.9523 44.82 62.9523 43.78V43.76C62.9523 42.67 63.8323 42.06 64.9123 42.06C65.5923 42.06 66.3323 42.29 66.9123 42.68L66.3323 43.73C65.8023 43.42 65.2723 43.23 64.8823 43.23C64.5123 43.23 64.3223 43.39 64.3223 43.6V43.62C64.3223 43.92 64.8323 44.06 65.4123 44.26C66.1623 44.51 67.0323 44.87 67.0323 45.85V45.87C67.0323 47.06 66.1423 47.6 64.9823 47.6Z" fill="#F26334"/>
<path d="M60.2604 47.6C59.5104 47.6 58.6704 47.35 57.9604 46.79L58.6104 45.79C59.1904 46.21 59.8004 46.43 60.3004 46.43C60.7404 46.43 60.9404 46.27 60.9404 46.03V46.01C60.9404 45.68 60.4204 45.57 59.8304 45.39C59.0804 45.17 58.2304 44.82 58.2304 43.78V43.76C58.2304 42.67 59.1104 42.06 60.1904 42.06C60.8704 42.06 61.6104 42.29 62.1904 42.68L61.6104 43.73C61.0804 43.42 60.5504 43.23 60.1604 43.23C59.7904 43.23 59.6004 43.39 59.6004 43.6V43.62C59.6004 43.92 60.1104 44.06 60.6904 44.26C61.4404 44.51 62.3104 44.87 62.3104 45.85V45.87C62.3104 47.06 61.4204 47.6 60.2604 47.6Z" fill="#F26334"/>
<path d="M50.24 47.5L53.24 40.45H54.66L57.66 47.5H56.05L55.41 45.93H52.45L51.81 47.5H50.24ZM53 44.57H54.86L53.93 42.3L53 44.57Z" fill="#F26334"/>
</svg>
