<svg width="166" height="50" viewBox="0 0 166 50" fill="none" xmlns="http://www.w3.org/2000/svg">
<path d="M58.8017 30.7844V29.2008H55.8721V17.1631H54.4476L50.5664 18.7467L50.9623 20.4885L53.9713 19.3008V29.2H50.6443V30.7836L58.8017 30.7844Z" fill="#002C6C"/>
<path d="M48.8245 24.2899C48.8245 37.1981 38.2917 47.6505 25.3056 47.6505C12.3179 47.6505 1.78516 37.1981 1.78516 24.2899C1.86384 11.3817 12.3188 0.929199 25.3056 0.929199C38.2925 0.929199 48.8245 11.3817 48.8245 24.2899Z" fill="#002C6C"/>
<path d="M30.1374 17.2432C26.6538 17.2432 24.0391 20.094 24.0391 23.9743V24.1325C24.0391 28.1702 26.4956 30.8637 30.0579 30.8637C32.0374 30.8637 33.5423 30.071 34.4923 29.3571V23.5776H29.9784V25.003H32.9079V28.4079L32.8292 28.4874C32.1161 28.962 31.1669 29.2784 30.2161 29.2784C27.6022 29.2784 25.9391 27.2202 25.9391 24.053V23.9743C25.9391 21.044 27.6817 18.8268 30.1366 18.8268C31.562 18.8268 32.4333 19.3014 33.1456 19.935L34.1759 18.5899C32.9079 17.6391 31.721 17.2432 30.1374 17.2432Z" fill="white"/>
<path d="M37.0234 29.0428C38.3693 30.2288 39.9529 30.7846 41.6161 30.7846C44.1505 30.7846 45.8128 29.2788 45.8128 27.0616C45.8128 25.2411 44.8636 24.2116 42.2505 23.2616C39.8751 22.3108 39.2415 21.7575 39.2415 20.6485C39.2415 19.5395 40.1923 18.7477 41.5382 18.7477C42.489 18.7477 43.5161 19.1436 44.5456 19.9354L45.5767 18.5903C44.4677 17.6395 43.121 17.1641 41.6161 17.1641C39.1611 17.1641 37.4988 18.6682 37.4988 20.7272C37.4988 22.8657 38.8447 23.737 41.3013 24.6862C43.4374 25.4788 44.1513 26.0337 44.1513 27.1436C44.1513 28.3305 43.121 29.2018 41.6972 29.2018C40.1128 29.2018 38.9259 28.4091 38.1333 27.6968L37.0234 29.0428Z" fill="white"/>
<path d="M43.2812 4.9686C43.2812 3.7022 44.3083 2.67188 45.5772 2.67188C46.8444 2.67188 47.8731 3.7022 47.8731 4.9686C47.8731 6.23499 46.8444 7.2645 45.5772 7.2645C44.3083 7.2645 43.2812 6.23499 43.2812 4.9686ZM47.3976 4.9686C47.3976 3.93909 46.605 3.14647 45.5763 3.14647C44.5452 3.14647 43.7542 3.93827 43.7542 4.9686C43.7542 5.99729 44.5452 6.78991 45.5763 6.78991C46.605 6.78991 47.3976 5.99729 47.3976 4.9686ZM44.7042 3.85876H45.7345C46.2091 3.85876 46.605 4.09647 46.605 4.57188C46.605 4.88909 46.4476 5.12597 46.1304 5.28499L46.6837 6.07679H46.0517L45.5772 5.3645H45.2599V6.07679H44.7042V3.85876ZM45.7345 4.88909C45.9731 4.88909 46.1304 4.73089 46.1304 4.57188C46.1304 4.41286 45.9731 4.25466 45.7345 4.25466H45.2599V4.88827L45.7345 4.88909Z" fill="#002C6C"/>
<path d="M6.6168 24.2901C6.6168 13.6 14.8529 4.8893 25.3865 4.01798V3.93848C14.0611 3.93848 4.875 13.045 4.875 24.2901C4.875 35.536 14.0611 44.6426 25.307 44.6426V44.5639C14.8529 43.6918 6.6168 34.9016 6.6168 24.2901Z" fill="white"/>
<path d="M11.2086 24.29C11.2086 15.3416 18.0193 7.97768 26.8086 7.10636L26.7299 7.02686C17.3061 7.18505 9.625 14.867 9.625 24.29C9.625 33.7146 17.2266 41.3965 26.7299 41.5539L26.8086 41.4752C18.0184 40.5236 11.2086 33.2392 11.2086 24.29Z" fill="white"/>
<path d="M15.5647 24.2899C15.5647 17.0055 21.1081 10.9866 28.2351 10.1161L28.1556 10.0366C20.3942 10.2743 14.2188 16.5301 14.2188 24.2899C14.2188 32.0514 20.3942 38.3079 28.1556 38.5448L28.2351 38.4645C21.1073 37.594 15.5647 31.576 15.5647 24.2899Z" fill="white"/>
<path d="M19.7639 24.2898C19.7639 18.5898 24.0393 13.8381 29.6622 13.2045V13.125C23.5647 13.2832 18.7344 18.1939 18.7344 24.2906C18.7344 30.3881 23.6434 35.2988 29.6622 35.4578V35.3766C24.1196 34.6643 19.7639 29.993 19.7639 24.2898Z" fill="white"/>
<path d="M161.35 49.12C160.48 49.12 159.66 48.92 158.98 48.56L159.5 47.42C160.05 47.73 160.6 47.91 161.31 47.91C162.35 47.91 162.84 47.41 162.84 46.45V46.19C162.39 46.73 161.9 47.06 161.09 47.06C159.84 47.06 158.71 46.15 158.71 44.56V44.54C158.71 42.94 159.86 42.04 161.09 42.04C161.92 42.04 162.41 42.39 162.82 42.84V42.14H164.34V46.29C164.34 47.25 164.11 47.95 163.66 48.4C163.16 48.9 162.39 49.12 161.35 49.12ZM161.53 45.8C162.27 45.8 162.84 45.29 162.84 44.56V44.54C162.84 43.81 162.27 43.3 161.53 43.3C160.79 43.3 160.23 43.81 160.23 44.54V44.56C160.23 45.3 160.79 45.8 161.53 45.8Z" fill="#F26334"/>
<path d="M155.068 47.5V42.14H156.588V43.22C156.898 42.48 157.398 42 158.298 42.04V43.63H158.218C157.208 43.63 156.588 44.24 156.588 45.52V47.5H155.068Z" fill="#F26334"/>
<path d="M150.818 47.6C149.668 47.6 148.998 46.84 148.998 45.61V42.14H150.518V45.13C150.518 45.85 150.858 46.22 151.438 46.22C152.018 46.22 152.388 45.85 152.388 45.13V42.14H153.908V47.5H152.388V46.74C152.038 47.19 151.588 47.6 150.818 47.6Z" fill="#F26334"/>
<path d="M145.227 47.62C143.567 47.62 142.337 46.39 142.337 44.85V44.83C142.337 43.29 143.577 42.04 145.247 42.04C146.907 42.04 148.137 43.27 148.137 44.81V44.83C148.137 46.37 146.897 47.62 145.227 47.62ZM145.247 46.31C146.117 46.31 146.637 45.64 146.637 44.85V44.83C146.637 44.04 146.067 43.35 145.227 43.35C144.357 43.35 143.837 44.02 143.837 44.81V44.83C143.837 45.62 144.407 46.31 145.247 46.31Z" fill="#F26334"/>
<path d="M139.239 47.6C138.429 47.6 137.929 47.23 137.569 46.8V47.5H136.049V40.2H137.569V42.91C137.939 42.41 138.449 42.04 139.239 42.04C140.489 42.04 141.679 43.02 141.679 44.81V44.83C141.679 46.62 140.509 47.6 139.239 47.6ZM138.849 46.31C139.559 46.31 140.159 45.73 140.159 44.83V44.81C140.159 43.92 139.559 43.33 138.849 43.33C138.139 43.33 137.549 43.92 137.549 44.81V44.83C137.549 45.72 138.139 46.31 138.849 46.31Z" fill="#F26334"/>
<path d="M126.747 47.5V42.14H128.267V42.9C128.617 42.45 129.077 42.04 129.847 42.04C130.547 42.04 131.077 42.35 131.357 42.89C131.827 42.34 132.387 42.04 133.117 42.04C134.247 42.04 134.927 42.72 134.927 44.01V47.5H133.407V44.51C133.407 43.79 133.087 43.42 132.517 43.42C131.947 43.42 131.597 43.79 131.597 44.51V47.5H130.077V44.51C130.077 43.79 129.757 43.42 129.187 43.42C128.617 43.42 128.267 43.79 128.267 44.51V47.5H126.747Z" fill="#F26334"/>
<path d="M123.354 47.62C121.744 47.62 120.554 46.49 120.554 44.85V44.83C120.554 43.3 121.644 42.04 123.204 42.04C124.994 42.04 125.814 43.43 125.814 44.95C125.814 45.07 125.804 45.21 125.794 45.35H122.064C122.214 46.04 122.694 46.4 123.374 46.4C123.884 46.4 124.254 46.24 124.674 45.85L125.544 46.62C125.044 47.24 124.324 47.62 123.354 47.62ZM122.044 44.4H124.334C124.244 43.72 123.844 43.26 123.204 43.26C122.574 43.26 122.164 43.71 122.044 44.4Z" fill="#F26334"/>
<path d="M116.776 42.14L117.776 43.71L118.786 42.14H120.376L118.566 44.76L120.456 47.5H118.826L117.746 45.83L116.666 47.5H115.076L116.956 44.78L115.146 42.14H116.776Z" fill="#F26334"/>
<path d="M111.276 47.6C110.126 47.6 109.456 46.84 109.456 45.61V42.14H110.976V45.13C110.976 45.85 111.316 46.22 111.896 46.22C112.476 46.22 112.846 45.85 112.846 45.13V42.14H114.366V47.5H112.846V46.74C112.496 47.19 112.046 47.6 111.276 47.6Z" fill="#F26334"/>
<path d="M103.664 47.5V40.5H105.204V46.1H108.694V47.5H103.664Z" fill="#F26334"/>
<path d="M98.8133 47.64L98.0033 46.82C97.4333 47.29 96.7633 47.6 95.9533 47.6C94.6133 47.6 93.6033 46.82 93.6033 45.58V45.56C93.6033 44.67 94.0833 44.04 94.9633 43.64C94.6233 43.16 94.4733 42.72 94.4733 42.24V42.22C94.4733 41.26 95.2433 40.38 96.5933 40.38C97.7833 40.38 98.5633 41.16 98.5633 42.14V42.16C98.5633 43.1 97.9633 43.65 97.0933 43.99L98.0233 44.92C98.2533 44.56 98.4833 44.15 98.7033 43.72L99.8333 44.34C99.5633 44.83 99.2633 45.35 98.9133 45.82L99.9433 46.85L98.8133 47.64ZM96.2933 43.18C96.9033 42.95 97.2233 42.69 97.2233 42.25V42.23C97.2233 41.83 96.9533 41.58 96.5633 41.58C96.1533 41.58 95.8833 41.87 95.8833 42.29V42.31C95.8833 42.62 96.0033 42.85 96.2933 43.18ZM96.1333 46.34C96.4833 46.34 96.8233 46.19 97.1433 45.94L95.8033 44.58C95.3433 44.82 95.1533 45.16 95.1533 45.5V45.52C95.1533 46.01 95.5633 46.34 96.1333 46.34Z" fill="#F26334"/>
<path d="M81.8433 47.5V42.14H83.3633V42.9C83.7133 42.45 84.1733 42.04 84.9433 42.04C85.6433 42.04 86.1733 42.35 86.4533 42.89C86.9233 42.34 87.4833 42.04 88.2133 42.04C89.3433 42.04 90.0233 42.72 90.0233 44.01V47.5H88.5033V44.51C88.5033 43.79 88.1833 43.42 87.6133 43.42C87.0433 43.42 86.6933 43.79 86.6933 44.51V47.5H85.1733V44.51C85.1733 43.79 84.8533 43.42 84.2833 43.42C83.7133 43.42 83.3633 43.79 83.3633 44.51V47.5H81.8433Z" fill="#F26334"/>
<path d="M77.5928 47.6C76.4428 47.6 75.7728 46.84 75.7728 45.61V42.14H77.2928V45.13C77.2928 45.85 77.6328 46.22 78.2128 46.22C78.7928 46.22 79.1628 45.85 79.1628 45.13V42.14H80.6828V47.5H79.1628V46.74C78.8128 47.19 78.3628 47.6 77.5928 47.6Z" fill="#F26334"/>
<path d="M73.0252 41.55V40.2H74.6252V41.55H73.0252ZM73.0652 47.5V42.14H74.5852V47.5H73.0652Z" fill="#F26334"/>
<path d="M68.8472 49.12C67.9772 49.12 67.1572 48.92 66.4772 48.56L66.9972 47.42C67.5472 47.73 68.0972 47.91 68.8072 47.91C69.8472 47.91 70.3372 47.41 70.3372 46.45V46.19C69.8872 46.73 69.3972 47.06 68.5872 47.06C67.3372 47.06 66.2072 46.15 66.2072 44.56V44.54C66.2072 42.94 67.3572 42.04 68.5872 42.04C69.4172 42.04 69.9072 42.39 70.3172 42.84V42.14H71.8372V46.29C71.8372 47.25 71.6072 47.95 71.1572 48.4C70.6572 48.9 69.8872 49.12 68.8472 49.12ZM69.0272 45.8C69.7672 45.8 70.3372 45.29 70.3372 44.56V44.54C70.3372 43.81 69.7672 43.3 69.0272 43.3C68.2872 43.3 67.7272 43.81 67.7272 44.54V44.56C67.7272 45.3 68.2872 45.8 69.0272 45.8Z" fill="#F26334"/>
<path d="M63.6996 47.5V40.2H65.2196V47.5H63.6996Z" fill="#F26334"/>
<path d="M60.2368 47.62C58.6268 47.62 57.4368 46.49 57.4368 44.85V44.83C57.4368 43.3 58.5268 42.04 60.0868 42.04C61.8768 42.04 62.6968 43.43 62.6968 44.95C62.6968 45.07 62.6868 45.21 62.6768 45.35H58.9468C59.0968 46.04 59.5768 46.4 60.2568 46.4C60.7668 46.4 61.1368 46.24 61.5568 45.85L62.4268 46.62C61.9268 47.24 61.2068 47.62 60.2368 47.62ZM58.9268 44.4H61.2168C61.1268 43.72 60.7268 43.26 60.0868 43.26C59.4568 43.26 59.0468 43.71 58.9268 44.4Z" fill="#F26334"/>
<path d="M50.84 47.5V40.5H54.09C54.89 40.5 55.52 40.72 55.92 41.12C56.24 41.44 56.4 41.83 56.4 42.31V42.33C56.4 43.12 55.98 43.56 55.48 43.84C56.29 44.15 56.79 44.62 56.79 45.56V45.58C56.79 46.86 55.75 47.5 54.17 47.5H50.84ZM54.87 42.59V42.57C54.87 42.11 54.51 41.85 53.86 41.85H52.34V43.33H53.76C54.44 43.33 54.87 43.11 54.87 42.59ZM55.26 45.37C55.26 44.9 54.91 44.61 54.12 44.61H52.34V46.15H54.17C54.85 46.15 55.26 45.91 55.26 45.39V45.37Z" fill="#F26334"/>
</svg>
