<svg xmlns="http://www.w3.org/2000/svg" x="0px" y="0px" viewBox="0 0 52 52" fill="#002C6C"><path d="M1.5,27c0,2.5,2,4.5,4.5,4.5H46c2.5,0,4.5-2,4.5-4.5V8c0-2.5-2-4.5-4.5-4.5H6c-2.5,0-4.5,2-4.5,4.5V27z M49,27.7c0,1.1-0.9,2-2,2H5c-1.1,0-2-0.9-2-2V7.3c0-1.1,0.9-2,2-2l42,0c1.1,0,2,0.9,2,2V27.7z"/><path class="st1" d="M4,33.5c-8.6,0,5.5,15,14.1,15h15.8c8.6,0,22.7-15,14.1-15H4z"/><path class="st1" d="M21.5,14.7L21,15.4c-0.5-0.4-1.1-0.7-1.7-0.8v2.7c1.7,0.4,2.4,1,2.4,2.1c0,1.2-1,2-2.3,2.1v1.1h-0.7v-1.1c-1-0.1-1.8-0.5-2.6-1.1l0.5-0.7c0.7,0.6,1.3,1,2.1,1.1V18c-1.6-0.4-2.3-1-2.3-2.1v0c0-1.1,1-2,2.3-2v-0.6h0.7v0.7C20.2,13.9,20.9,14.2,21.5,14.7z M20.9,19.5c0-0.6-0.3-1-1.5-1.4v2.7C20.3,20.7,20.9,20.2,20.9,19.5L20.9,19.5z M17.3,15.8c0,0.6,0.3,1,1.5,1.4v-2.6C17.8,14.6,17.3,15.1,17.3,15.8z"/><path class="st1" d="M28.5,14.7L28,15.4c-0.5-0.4-1.1-0.7-1.7-0.8v2.7c1.7,0.4,2.4,1,2.4,2.1c0,1.2-1,2-2.3,2.1v1.1h-0.7v-1.1c-1-0.1-1.8-0.5-2.6-1.1l0.5-0.7c0.7,0.6,1.3,1,2.1,1.1V18c-1.6-0.4-2.3-1-2.3-2.1v0c0-1.1,1-2,2.3-2v-0.6h0.7v0.7C27.2,13.9,27.9,14.2,28.5,14.7z M27.9,19.5c0-0.6-0.3-1-1.5-1.4v2.7C27.3,20.7,27.9,20.2,27.9,19.5L27.9,19.5z M24.2,15.8c0,0.6,0.3,1,1.5,1.4v-2.6C24.8,14.6,24.2,15.1,24.2,15.8z"/><path class="st1" d="M35.5,14.7L35,15.4c-0.5-0.4-1.1-0.7-1.7-0.8v2.7c1.7,0.4,2.4,1,2.4,2.1c0,1.2-1,2-2.3,2.1v1.1h-0.7v-1.1c-1-0.1-1.8-0.5-2.6-1.1l0.5-0.7c0.7,0.6,1.3,1,2.1,1.1V18c-1.6-0.4-2.3-1-2.3-2.1v0c0-1.1,1-2,2.3-2v-0.6h0.7v0.7C34.2,13.9,34.9,14.2,35.5,14.7z M34.9,19.5c0-0.6-0.3-1-1.5-1.4v2.7C34.3,20.7,34.9,20.2,34.9,19.5L34.9,19.5z M31.2,15.8c0,0.6,0.3,1,1.5,1.4v-2.6C31.8,14.6,31.2,15.1,31.2,15.8z"/></svg>