<svg xmlns="http://www.w3.org/2000/svg" x="0px" y="0px" viewBox="0 0 50 50"><path d="M7,8.6L0.4,22.1c-1.1,2.2-0.1,4.8,2,5.8l34.7,16.8c2.2,1.1,4.8,0.1,5.9-2.1l6.6-13.5c1.1-2.2,0.1-4.8-2-5.8L12.9,6.5C10.8,5.5,8.1,6.5,7,8.6z M46.9,24.8c1.3,0.6,1.9,2.3,1.3,3.7L41.6,42c-0.6,1.3-2.3,1.9-3.7,1.3L3.2,26.4c-1.3-0.6-1.9-2.3-1.3-3.7l0.7-1.6l0.6,0.3c0.4,0.2,0.8,0,1.1-0.4l4.5-8.8c0.2-0.4,0-0.8-0.4-1.1l-0.6-0.4l0.8-1.6c0.6-1.3,2.3-1.9,3.7-1.3L46.9,24.8L46.9,24.8z"/><path d="M0.9,33.5l1.6,0.9l1.6,0.9c0.2,0.1,0.2,0.4,0,0.4l-1,0.6c2.5,4.3,6.4,7.8,11.5,9.8c4.5,1.7,9.3,1.9,13.6,0.7c0.4-0.1,0.7,0,0.9,0.4l0,0c0.3,0.4,0,1-0.5,1.2c-1.7,0.4-3.4,0.7-5.2,0.8c-3.3,0.1-6.4-0.4-9.5-1.6c-3-1.2-5.8-2.8-8.1-5.1c-1.7-1.6-3.1-3.4-4.2-5.4l-0.9,0.5c-0.1,0.1-0.4,0-0.4-0.2l0-1.8l0-1.8C0.6,33.5,0.7,33.4,0.9,33.5L0.9,33.5z"/><path d="M44.8,15.7l-1.6-0.9l-1.6-0.9c-0.2-0.1-0.2-0.4,0-0.4l1-0.6C40,8.5,36.1,5,31.1,3.1c-4.5-1.7-9.3-1.9-13.6-0.7c-0.4,0.1-0.7,0-0.9-0.4l0,0c-0.3-0.4,0-1,0.5-1.2c1.7-0.4,3.4-0.7,5.2-0.8c3.3-0.1,6.4,0.4,9.5,1.6s5.8,2.8,8.1,5.1c1.7,1.6,3.1,3.4,4.2,5.4l0.9-0.5c0.1-0.1,0.4,0,0.4,0.2v1.8l-0.1,1.8C45.1,15.6,45,15.7,44.8,15.7L44.8,15.7z"/></svg>